<?xml version="1.0" encoding="utf-8" ?>
<svg baseProfile="full" height="310" version="1.1" width="300" xmlns="http://www.w3.org/2000/svg" xmlns:ev="http://www.w3.org/2001/xml-events" xmlns:xlink="http://www.w3.org/1999/xlink"><defs /><path d="M0,0 L-114.94,580.76" fill="none" stroke="black" stroke-width="0.6" /><path d="M-0.13,309.87 L-112.49,588.23" fill="none" stroke="black" stroke-width="0.6" /><path d="M-0.13,309.87 L-109.33,588.27" fill="none" stroke="black" stroke-width="0.6" /><path d="M-0.13,309.87 L-117.44,564.46" fill="none" stroke="black" stroke-width="0.6" /><path d="M-0.13,309.87 L-120.92,564.58" fill="none" stroke="black" stroke-width="0.6" /><path d="M-0.13,309.87 L-129.07,588.22" fill="none" stroke="black" stroke-width="0.6" /><path d="M-0.13,309.87 L-125.89,588.32" fill="none" stroke="black" stroke-width="0.6" /><path d="M-0.13,309.87 L-122.82,578.33" fill="none" stroke="black" stroke-width="0.6" /><path d="M-0.13,309.87 L-119.14,567.22" fill="none" stroke="black" stroke-width="0.6" /><path d="M-0.13,309.87 L-117.8,571.5" fill="none" stroke="black" stroke-width="0.6" /><path d="M-0.13,309.87 L-132.63,588.29" fill="none" stroke="black" stroke-width="0.6" /><path d="M-0.13,309.87 L-132.53,564.53" fill="none" stroke="black" stroke-width="0.6" /><path d="M-0.13,309.87 L-135.71,564.58" fill="none" stroke="black" stroke-width="0.6" /><path d="M-0.13,309.87 L-147.65,584.32" fill="none" stroke="black" stroke-width="0.6" /><path d="M-0.13,309.87 L-147.58,574.42" fill="none" stroke="black" stroke-width="0.6" /><path d="M-0.13,309.87 L-147.47,564.52" fill="none" stroke="black" stroke-width="0.6" /><path d="M-0.13,309.87 L-150.36,564.52" fill="none" stroke="black" stroke-width="0.6" /><path d="M-0.13,309.87 L-150.46,588.28" fill="none" stroke="black" stroke-width="0.6" /><path d="M-0.13,309.87 L-147.2,588.28" fill="none" stroke="black" stroke-width="0.6" /><path d="M-0.13,309.87 L-135.23,568.36" fill="none" stroke="black" stroke-width="0.6" /><path d="M-0.13,309.87 L-135.49,578.08" fill="none" stroke="black" stroke-width="0.6" /><path d="M-0.13,309.87 L-183.58,588.2" fill="none" stroke="black" stroke-width="0.6" /><path d="M-0.13,309.87 L-183.54,578.11" fill="none" stroke="black" stroke-width="0.6" /><path d="M-0.13,309.87 L-175.98,564.5" fill="none" stroke="black" stroke-width="0.6" /><path d="M-0.13,309.87 L-179.62,564.56" fill="none" stroke="black" stroke-width="0.6" /><path d="M-0.13,309.87 L-185.45,575.88" fill="none" stroke="black" stroke-width="0.6" /><path d="M-0.13,309.87 L-187.82,571.1" fill="none" stroke="black" stroke-width="0.6" /><path d="M-0.13,309.87 L-191.18,564.46" fill="none" stroke="black" stroke-width="0.6" /><path d="M-0.13,309.87 L-194.85,564.46" fill="none" stroke="black" stroke-width="0.6" /><path d="M-0.13,309.87 L-186.57,578.18" fill="none" stroke="black" stroke-width="0.6" /><path d="M-0.13,309.87 L-207.96,564.42" fill="none" stroke="black" stroke-width="0.6" /><path d="M-0.13,309.87 L-207.74,588.25" fill="none" stroke="black" stroke-width="0.6" /><path d="M-0.13,309.87 L-204.66,588.26" fill="none" stroke="black" stroke-width="0.6" /><path d="M-0.13,309.87 L-225.37,565.28" fill="none" stroke="black" stroke-width="0.6" /><path d="M-0.13,309.87 L-241.91,580.72" fill="none" stroke="black" stroke-width="0.6" /><path d="M-0.13,309.87 L-239.54,588.2" fill="none" stroke="black" stroke-width="0.6" /><path d="M-0.13,309.87 L-236.33,588.15" fill="none" stroke="black" stroke-width="0.6" /><path d="M-0.13,309.87 L-244.24,564.55" fill="none" stroke="black" stroke-width="0.6" /><path d="M-0.13,309.87 L-248.1,564.5" fill="none" stroke="black" stroke-width="0.6" /><path d="M-0.13,309.87 L-256.04,588.23" fill="none" stroke="black" stroke-width="0.6" /><path d="M-0.13,309.87 L-252.79,588.24" fill="none" stroke="black" stroke-width="0.6" /><path d="M-0.13,309.87 L-249.54,578.46" fill="none" stroke="black" stroke-width="0.6" /><path d="M-0.13,309.87 L-246.05,567.26" fill="none" stroke="black" stroke-width="0.6" /><path d="M-0.13,309.87 L-244.62,571.57" fill="none" stroke="black" stroke-width="0.6" /><path d="M-0.13,309.87 L-284.2,565.39" fill="none" stroke="black" stroke-width="0.6" /><path d="M-0.13,309.87 L-281.95,585.38" fill="none" stroke="black" stroke-width="0.6" /><path d="M-0.13,309.87 L-282.16,578.25" fill="none" stroke="black" stroke-width="0.6" /><path d="M-0.13,309.87 L-277.35,578.22" fill="none" stroke="black" stroke-width="0.6" /><path d="M-0.13,309.87 L-277.07,575.89" fill="none" stroke="black" stroke-width="0.6" /><path d="M-0.13,309.87 L-301.87,577.14" fill="none" stroke="black" stroke-width="0.6" /><path d="M-0.13,309.87 L-292.84,577.16" fill="none" stroke="black" stroke-width="0.6" /><path d="M-0.13,309.87 L-292.59,585.77" fill="none" stroke="black" stroke-width="0.6" /><path d="M-0.13,309.87 L-303.15,585.68" fill="none" stroke="black" stroke-width="0.6" /><path d="M-0.13,309.87 L-303.18,588.23" fill="none" stroke="black" stroke-width="0.6" /><path d="M-0.13,309.87 L-289.91,588.19" fill="none" stroke="black" stroke-width="0.6" /><path d="M-0.13,309.87 L-289.73,564.53" fill="none" stroke="black" stroke-width="0.6" /><path d="M-0.13,309.87 L-302.47,564.62" fill="none" stroke="black" stroke-width="0.6" /><path d="M-0.13,309.87 L-302.53,567.16" fill="none" stroke="black" stroke-width="0.6" /><path d="M-0.13,309.87 L-292.78,567.14" fill="none" stroke="black" stroke-width="0.6" /><path d="M-0.13,309.87 L-292.81,574.61" fill="none" stroke="black" stroke-width="0.6" /><path d="M-0.13,309.87 L-307.03,588.31" fill="none" stroke="black" stroke-width="0.6" /><path d="M-0.13,309.87 L-306.97,564.56" fill="none" stroke="black" stroke-width="0.6" /><path d="M-0.13,309.87 L-310.36,564.5" fill="none" stroke="black" stroke-width="0.6" /><path d="M-0.13,309.87 L-322.13,584.28" fill="none" stroke="black" stroke-width="0.6" /><path d="M-0.13,309.87 L-322.03,574.41" fill="none" stroke="black" stroke-width="0.6" /><path d="M-0.13,309.87 L-321.86,564.54" fill="none" stroke="black" stroke-width="0.6" /><path d="M-0.13,309.87 L-324.93,564.49" fill="none" stroke="black" stroke-width="0.6" /><path d="M-0.13,309.87 L-324.86,588.34" fill="none" stroke="black" stroke-width="0.6" /><path d="M-0.13,309.87 L-321.67,588.22" fill="none" stroke="black" stroke-width="0.6" /><path d="M-0.13,309.87 L-309.86,568.25" fill="none" stroke="black" stroke-width="0.6" /><path d="M-0.13,309.87 L-309.94,578.11" fill="none" stroke="black" stroke-width="0.6" /><path d="M-0.13,309.87 L-333.46,564.41" fill="none" stroke="black" stroke-width="0.6" /><path d="M-0.13,309.87 L-333.13,588.36" fill="none" stroke="black" stroke-width="0.6" /><path d="M-0.13,309.87 L-330.29,588.2" fill="none" stroke="black" stroke-width="0.6" /><path d="M-0.13,309.87 L-341.76,564.49" fill="none" stroke="black" stroke-width="0.6" /><path d="M-0.13,309.87 L-352.99,578.6" fill="none" stroke="black" stroke-width="0.6" /><path d="M-0.13,309.87 L-352.96,564.58" fill="none" stroke="black" stroke-width="0.6" /><path d="M-0.13,309.87 L-355.81,564.65" fill="none" stroke="black" stroke-width="0.6" /><path d="M-0.13,309.87 L-338.87,578.36" fill="none" stroke="black" stroke-width="0.6" /><path d="M-0.13,309.87 L-373.7,565.32" fill="none" stroke="black" stroke-width="0.6" /></svg>