<?xml version="1.0" encoding="utf-8" ?>
<svg baseProfile="full" height="2310" version="1.1" width="2300" xmlns="http://www.w3.org/2000/svg" xmlns:ev="http://www.w3.org/2001/xml-events" xmlns:xlink="http://www.w3.org/1999/xlink"><defs /><path d="M0,0 L1.6,2290.64 L1.58,2291.36 L1.63,2291.9 L1.68,2292.44 L1.73,2292.98 L1.68,2292.44 L1.59,2293.35 L1.64,2293.89 L1.51,2294.25 L1.56,2294.79 L1.65,2295.87 L1.67,2295.15 L1.51,2294.25 L1.59,2293.35 L1.63,2291.9 L1.68,2292.44 L1.73,2292.98 L1.59,2293.35 L1.64,2293.89 L1.51,2294.25 L1.8,2294.78" fill="none" stroke="black" stroke-width="0.6" /><path d="M2.05,2294.76 L1.67,2295.15 L1.65,2295.87 L1.45,2296.42 L1.68,2297.13 L1.73,2297.67 L1.6,2298.03 L1.65,2298.57 L1.51,2298.94 L1.56,2299.48 L1.61,2300.02 L1.56,2299.48 L1.58,2298.76 L1.6,2298.03 L1.62,2297.31 L1.45,2296.42 L1.65,2295.87 L1.67,2295.15 L1.65,2295.87 L1.45,2296.42 L1.68,2297.13 L1.45,2296.42 L1.65,2295.87 L1.67,2295.15 L1.51,2294.25 L1.73,2292.98 L1.68,2292.44 L1.63,2291.9 L1.58,2291.36 L1.63,2291.9 L1.58,2291.36 L1.68,2292.44 L1.59,2293.35 L1.68,2292.44 L1.73,2292.98 L1.59,2293.35 L1.64,2293.89 L1.51,2294.25 L1.56,2294.79 L1.65,2295.87 L1.45,2296.42 L1.68,2297.13 L1.42,2297.86 L1.68,2297.13 L1.73,2297.67 L1.35,2298.05 L1.65,2298.57" fill="none" stroke="black" stroke-width="0.6" /><path d="M1.89,2298.56 L1.58,2298.76" fill="none" stroke="black" stroke-width="0.6" /><path d="M1.4,2298.59 L1.51,2298.94" fill="none" stroke="black" stroke-width="0.6" /><path d="M1.76,2298.93 L1.56,2299.48 L1.54,2300.2 L1.52,2300.92 L1.57,2301.46 L1.62,2302.0 L1.64,2301.28 L1.48,2300.39 L1.68,2299.83 L1.63,2299.29 L1.65,2298.57 L1.66,2297.85 L1.68,2297.13 L1.73,2297.67 L1.6,2298.03 L1.65,2298.57 L1.51,2298.94 L1.56,2299.48 L1.54,2300.2 L1.74,2299.65 L1.51,2298.94 L1.6,2298.03 L1.62,2297.31 L1.45,2296.42 L1.65,2295.87 L1.45,2296.42 L1.68,2297.13 L1.45,2296.42 L1.65,2295.87 L1.67,2295.15 L1.51,2294.25 L1.8,2294.78" fill="none" stroke="black" stroke-width="0.6" /><path d="M2.05,2294.76 L1.79,2295.5 L1.77,2296.22 L1.57,2296.77 L1.62,2297.31 L1.66,2297.85 L1.71,2298.39 L1.58,2298.76 L1.63,2299.29 L1.68,2299.83 L1.54,2300.2 L1.52,2300.92 L1.57,2301.46 L1.59,2300.74 L1.71,2301.09" fill="none" stroke="black" stroke-width="0.6" /><path d="M1.95,2301.08 L1.57,2301.46 L1.44,2301.83 L1.71,2301.09 L1.57,2301.46 L1.44,2301.83 L1.49,2302.37 L1.54,2302.91 L1.4,2303.27 L1.45,2303.81 L1.65,2303.26 L1.42,2302.55 L1.44,2301.83 L1.49,2302.37 L1.6,2302.72" fill="none" stroke="black" stroke-width="0.6" /><path d="M1.85,2302.71 L1.47,2303.09 L1.52,2303.63 L1.39,2304.0 L1.5,2304.35" fill="none" stroke="black" stroke-width="0.6" /><path d="M1.75,2304.34 L1.62,2304.7 L1.39,2304.0 L1.4,2303.27 L1.67,2302.54 L1.69,2301.82 L1.71,2301.09 L1.75,2301.63 L1.56,2302.18 L1.67,2302.54" fill="none" stroke="black" stroke-width="0.6" /><path d="M1.92,2302.52 L1.54,2302.91 L1.74,2302.35 L1.57,2301.46 L1.69,2301.82" fill="none" stroke="black" stroke-width="0.6" /><path d="M1.94,2301.8 L1.56,2302.18 L1.67,2302.54" fill="none" stroke="black" stroke-width="0.6" /><path d="M1.92,2302.52 L1.79,2302.89 L1.65,2303.26 L1.52,2303.63 L1.82,2304.15" fill="none" stroke="black" stroke-width="0.6" /><path d="M2.07,2304.14 L1.75,2304.34" fill="none" stroke="black" stroke-width="0.6" /><path d="M1.57,2304.17 L1.44,2304.53 L1.55,2304.89" fill="none" stroke="black" stroke-width="0.6" /><path d="M1.8,2304.87 L1.67,2305.24 L1.53,2305.61 L1.4,2305.98 L1.6,2305.43 L1.8,2304.87 L1.75,2304.34 L1.52,2303.63 L1.72,2303.08 L1.59,2303.44 L1.64,2303.98 L1.65,2303.26 L1.52,2303.63 L1.82,2304.15" fill="none" stroke="black" stroke-width="0.6" /><path d="M2.07,2304.14 L1.57,2304.17 L1.44,2304.53 L1.55,2304.89" fill="none" stroke="black" stroke-width="0.6" /><path d="M1.8,2304.87 L1.75,2304.34 L1.62,2304.7 L1.48,2305.07 L1.6,2305.43" fill="none" stroke="black" stroke-width="0.6" /><path d="M1.85,2305.41 L1.55,2304.89 L1.42,2305.26 L1.53,2305.61" fill="none" stroke="black" stroke-width="0.6" /><path d="M1.78,2305.6 L1.65,2305.96 L1.52,2306.33 L1.38,2306.7 L1.5,2307.06" fill="none" stroke="black" stroke-width="0.6" /><path d="M1.75,2307.04 L1.62,2307.41 L1.57,2306.87 L1.77,2306.32 L1.72,2305.78 L1.58,2306.15 L1.78,2305.6 L1.65,2305.96 L1.52,2306.33 L1.63,2306.69" fill="none" stroke="black" stroke-width="0.6" /><path d="M1.88,2306.67 L1.75,2307.04 L1.62,2307.41 L1.81,2306.86 L1.68,2307.23 L1.55,2307.59 L1.42,2307.96 L1.28,2308.33 L1.48,2307.78 L1.68,2307.23 L1.8,2307.58" fill="none" stroke="black" stroke-width="0.6" /><path d="M2.05,2307.56 L1.73,2307.76" fill="none" stroke="black" stroke-width="0.6" /><path d="M1.55,2307.59 L1.66,2307.95" fill="none" stroke="black" stroke-width="0.6" /><path d="M1.91,2307.93 L1.6,2308.13" fill="none" stroke="black" stroke-width="0.6" /><path d="M1.42,2307.96 L1.53,2308.32" fill="none" stroke="black" stroke-width="0.6" /><path d="M1.78,2308.3 L1.98,2307.75 L2.18,2307.2 L2.05,2307.56 L1.91,2307.93 L2.11,2307.38 L1.98,2307.75 L2.36,2307.37 L2.23,2307.73 L2.61,2307.35 L3.36,2307.31 L3.85,2307.28 L4.35,2307.25 L3.85,2307.28 L3.36,2307.31 L2.92,2307.15" fill="none" stroke="black" stroke-width="0.6" /><path d="M3.17,2307.14 L2.86,2307.34" fill="none" stroke="black" stroke-width="0.6" /><path d="M2.68,2307.17 L2.36,2307.37" fill="none" stroke="black" stroke-width="0.6" /><path d="M2.18,2307.2 L2.05,2307.56 L2.25,2307.01 L2.11,2307.38 L2.31,2306.83 L2.26,2306.29 L2.21,2305.75 L2.16,2305.21 L1.93,2304.51 L1.98,2305.04 L2.0,2304.32 L2.05,2304.86 L1.92,2305.23 L1.78,2305.6 L2.23,2305.03 L2.1,2305.4 L1.96,2305.77 L2.08,2306.12" fill="none" stroke="black" stroke-width="0.6" /><path d="M2.33,2306.11 L2.01,2306.3" fill="none" stroke="black" stroke-width="0.6" /><path d="M1.83,2306.13 L1.95,2306.49" fill="none" stroke="black" stroke-width="0.6" /><path d="M2.2,2306.47 L2.06,2306.84 L1.93,2307.21 L1.8,2307.58 L1.66,2307.95 L1.86,2307.39 L1.81,2306.86 L1.77,2306.32 L1.96,2305.77 L1.92,2305.23 L1.87,2304.69 L1.73,2305.06 L1.6,2305.43 L1.72,2305.78" fill="none" stroke="black" stroke-width="0.6" /><path d="M1.96,2305.77 L1.83,2306.13 L1.7,2306.5 L1.9,2305.95 L1.85,2305.41 L1.8,2304.87 L1.75,2304.34 L1.62,2304.7 L1.67,2305.24 L1.44,2304.53 L1.64,2303.98 L1.65,2303.26 L1.67,2302.54 L1.69,2301.82 L1.71,2301.09 L1.72,2300.37 L1.68,2299.83 L1.72,2300.37 L1.71,2301.09 L1.57,2301.46 L1.62,2302.0 L1.74,2302.35" fill="none" stroke="black" stroke-width="0.6" /><path d="M1.99,2302.34 L1.85,2302.71 L1.72,2303.08 L1.77,2303.61 L1.54,2302.91 L1.83,2303.43" fill="none" stroke="black" stroke-width="0.6" /><path d="M2.08,2303.42 L1.52,2303.63" fill="none" stroke="black" stroke-width="0.6" /><path d="M1.34,2303.46 L1.7,2303.8 L1.75,2304.34 L1.8,2304.87 L1.67,2305.24 L1.78,2305.6" fill="none" stroke="black" stroke-width="0.6" /><path d="M2.03,2305.58 L1.72,2305.78" fill="none" stroke="black" stroke-width="0.6" /><path d="M1.53,2305.61 L1.65,2305.96" fill="none" stroke="black" stroke-width="0.6" /><path d="M1.9,2305.95 L1.85,2305.41 L1.8,2304.87 L2.0,2304.32 L1.87,2304.69 L1.73,2305.06 L1.85,2305.41" fill="none" stroke="black" stroke-width="0.6" /><path d="M2.1,2305.4 L1.96,2305.77 L1.83,2306.13 L1.7,2306.5 L1.57,2306.87 L1.77,2306.32 L1.96,2305.77 L1.83,2306.13 L1.95,2306.49" fill="none" stroke="black" stroke-width="0.6" /><path d="M2.2,2306.47 L1.88,2306.67" fill="none" stroke="black" stroke-width="0.6" /><path d="M1.7,2306.5 L1.9,2305.95 L2.1,2305.4 L1.96,2305.77 L1.92,2305.23 L1.78,2305.6 L1.98,2305.04 L1.93,2304.51 L1.7,2303.8 L1.9,2303.25 L1.77,2303.61 L1.82,2304.15 L2.02,2303.6 L1.79,2302.89 L2.08,2303.42" fill="none" stroke="black" stroke-width="0.6" /><path d="M2.33,2303.4 L2.02,2303.6" fill="none" stroke="black" stroke-width="0.6" /><path d="M1.83,2303.43 L1.88,2303.97 L1.75,2304.34 L1.87,2304.69" fill="none" stroke="black" stroke-width="0.6" /><path d="M2.11,2304.68 L1.98,2305.04 L1.85,2305.41 L2.05,2304.86 L1.92,2305.23 L1.93,2304.51 L2.13,2303.95 L2.08,2303.42 L1.95,2303.78 L1.9,2303.25 L1.92,2302.52 L1.94,2301.8 L1.8,2302.17 L1.92,2302.52" fill="none" stroke="black" stroke-width="0.6" /><path d="M2.17,2302.51 L2.03,2302.88 L1.9,2303.25 L1.95,2303.78 L1.9,2303.25 L1.67,2302.54 L1.69,2301.82 L1.71,2301.09 L2.0,2301.62" fill="none" stroke="black" stroke-width="0.6" /><path d="M2.25,2301.6 L1.69,2301.82" fill="none" stroke="black" stroke-width="0.6" /><path d="M1.51,2301.65 L1.87,2301.99 L1.74,2302.35 L1.85,2302.71" fill="none" stroke="black" stroke-width="0.6" /><path d="M2.1,2302.69 L1.97,2303.06 L1.83,2303.43 L1.88,2303.97 L1.65,2303.26 L1.67,2302.54 L1.94,2301.8 L1.71,2301.09 L1.72,2300.37 L1.92,2299.82 L1.72,2300.37 L1.95,2301.08 L2.0,2301.62 L1.87,2301.99 L1.74,2302.35 L1.85,2302.71" fill="none" stroke="black" stroke-width="0.6" /><path d="M2.1,2302.69 L1.8,2302.17 L2.0,2301.62 L1.95,2301.08 L1.72,2300.37 L1.77,2300.91 L1.82,2301.45 L1.84,2300.73 L2.04,2300.17 L1.99,2299.63 L1.83,2298.74 L1.66,2297.85 L1.71,2298.39 L1.76,2298.93 L1.81,2299.46 L1.79,2300.19 L1.84,2300.73 L1.64,2301.28 L1.69,2301.82 L1.74,2302.35 L1.6,2302.72 L1.72,2303.08" fill="none" stroke="black" stroke-width="0.6" /><path d="M1.97,2303.06 L1.83,2303.43 L1.6,2302.72 L1.87,2301.99 L1.64,2301.28 L1.72,2300.37 L1.92,2299.82 L1.76,2298.93 L1.66,2297.85 L1.81,2296.76 L1.9,2295.85 L1.7,2296.41 L1.68,2297.13 L1.66,2297.85 L1.65,2298.57 L1.76,2298.93" fill="none" stroke="black" stroke-width="0.6" /><path d="M2.01,2298.91 L1.81,2299.46 L1.86,2300.0 L1.72,2300.37 L1.68,2299.83 L1.88,2299.28 L1.71,2298.39 L1.73,2297.67 L1.68,2297.13 L1.7,2296.41 L1.79,2295.5 L1.8,2294.78 L1.79,2295.5 L1.77,2296.22 L1.81,2296.76 L1.62,2297.31 L1.77,2296.22 L1.79,2295.5 L1.8,2294.78 L1.64,2293.89 L1.73,2292.98 L1.59,2293.35 L1.64,2293.89 L1.76,2294.24" fill="none" stroke="black" stroke-width="0.6" /><path d="M2.0,2294.22 L1.8,2294.78 L1.79,2295.5 L1.77,2296.22 L1.57,2296.77 L1.62,2297.31 L1.66,2297.85 L1.71,2298.39 L1.58,2298.76 L1.88,2299.28" fill="none" stroke="black" stroke-width="0.6" /><path d="M2.12,2299.27 L1.74,2299.65 L1.54,2300.2 L1.59,2300.74 L1.79,2300.19 L1.74,2299.65 L1.51,2298.94 L1.71,2298.39 L1.51,2298.94 L1.81,2299.46" fill="none" stroke="black" stroke-width="0.6" /><path d="M2.06,2299.45 L1.74,2299.65" fill="none" stroke="black" stroke-width="0.6" /><path d="M1.56,2299.48 L1.61,2300.02 L1.63,2299.29 L1.65,2298.57 L1.66,2297.85 L1.68,2297.13 L1.7,2296.41 L1.79,2295.5 L1.8,2294.78 L1.64,2293.89 L1.73,2292.98 L1.63,2291.9 L1.73,2292.98 L1.59,2293.35 L1.64,2293.89 L1.51,2294.25 L1.8,2294.78" fill="none" stroke="black" stroke-width="0.6" /><path d="M2.05,2294.76 L1.67,2295.15 L1.51,2294.25 L1.59,2293.35 L1.68,2292.44 L1.83,2291.35 L1.63,2291.9 L1.68,2292.44 L1.73,2292.98 L1.59,2293.35 L1.68,2292.44 L1.83,2291.35 L1.68,2292.44 L1.73,2292.98 L1.59,2293.35 L1.64,2293.89 L1.51,2294.25 L1.8,2294.78" fill="none" stroke="black" stroke-width="0.6" /><path d="M2.05,2294.76 L1.67,2295.15 L1.51,2294.25 L1.73,2292.98 L1.63,2291.9" fill="none" stroke="black" stroke-width="0.6" /></svg>