<?xml version="1.0" encoding="utf-8" ?>
<svg baseProfile="full" height="310" version="1.1" width="300" xmlns="http://www.w3.org/2000/svg" xmlns:ev="http://www.w3.org/2001/xml-events" xmlns:xlink="http://www.w3.org/1999/xlink"><defs /><path d="M0,0 L35.02,304.59 L21.51,183.49 L27.14,232.44 L10.07,253.15 L62.42,253.18" fill="none" stroke="black" stroke-width="0.6" /><path d="M62.24,253.06 L47.38,268.42 L50.66,304.47" fill="none" stroke="black" stroke-width="0.6" /><path d="M50.47,304.35 L39.19,183.47 L44.37,232.53 L59.34,239.93 L7.78,239.96 L12.81,240.01 L0.11,309.82 L21.77,179.21 L44.57,244.47 L66.56,179.19 L88.48,309.93 L0.48,178.71 L38.25,304.57 L51.5,304.58 L89.17,178.76 L69.62,243.71 L19.96,243.72 L2.65,308.1 L11.39,188.33 L85.11,186.05 L2.65,308.1 L11.39,188.33 L85.11,186.05 L6.6,305.82 L6.62,193.97 L82.74,193.87 L82.71,305.75 L0.34,309.76 L88.43,179.12 L44.42,244.14 L0.19,179.17 L88.49,309.73 L0.34,309.76" fill="none" stroke="black" stroke-width="0.6" /><path d="M0.57,309.71 L88.43,179.12 L44.42,244.14 L0.19,179.17 L88.49,309.73" fill="none" stroke="black" stroke-width="0.6" /></svg>