<?xml version="1.0" encoding="utf-8" ?>
<svg baseProfile="full" height="310" version="1.1" width="300" xmlns="http://www.w3.org/2000/svg" xmlns:ev="http://www.w3.org/2001/xml-events" xmlns:xlink="http://www.w3.org/1999/xlink"><defs /><path d="M150.0,-0.07 L150.0,394.95" fill="none" stroke="black" stroke-width="0.6" /><path d="M150.0,310.0 L179.49,-78.63" fill="none" stroke="black" stroke-width="0.6" /><path d="M179.51,-0.02 L120.65,388.32" fill="none" stroke="black" stroke-width="0.6" /><path d="M120.41,309.89 L207.23,-68.46" fill="none" stroke="black" stroke-width="0.6" /><path d="M207.34,-0.21 L92.66,378.26" fill="none" stroke="black" stroke-width="0.6" /><path d="M92.69,309.81 L233.11,-55.21" fill="none" stroke="black" stroke-width="0.6" /><path d="M233.05,0.04 L67.0,364.86" fill="none" stroke="black" stroke-width="0.6" /><path d="M66.98,309.9 L256.38,-38.86" fill="none" stroke="black" stroke-width="0.6" /><path d="M256.44,-0.06 L43.34,348.63" fill="none" stroke="black" stroke-width="0.6" /><path d="M43.49,309.91 L277.19,-20.24" fill="none" stroke="black" stroke-width="0.6" /><path d="M277.13,-0.01 L22.98,330.0" fill="none" stroke="black" stroke-width="0.6" /><path d="M22.94,309.87 L294.82,0.6 L5.04,309.2 L309.35,23.03" fill="none" stroke="black" stroke-width="0.6" /><path d="M299.94,22.92 L-9.57,286.76" fill="none" stroke="black" stroke-width="0.6" /><path d="M0.11,286.88 L320.74,46.61" fill="none" stroke="black" stroke-width="0.6" /><path d="M300.04,46.48 L-20.55,263.33" fill="none" stroke="black" stroke-width="0.6" /><path d="M0.2,263.32 L328.68,70.88" fill="none" stroke="black" stroke-width="0.6" /><path d="M299.92,70.74 L-28.66,238.98" fill="none" stroke="black" stroke-width="0.6" /><path d="M0.09,239.02 L333.46,95.28" fill="none" stroke="black" stroke-width="0.6" /><path d="M299.96,95.27 L-33.36,214.58" fill="none" stroke="black" stroke-width="0.6" /><path d="M-0.06,214.5 L334.81,119.66" fill="none" stroke="black" stroke-width="0.6" /><path d="M299.89,119.65 L-34.62,190.14" fill="none" stroke="black" stroke-width="0.6" /><path d="M-0.08,190.08 L332.92,143.33" fill="none" stroke="black" stroke-width="0.6" /><path d="M299.99,143.41 L-32.94,166.42" fill="none" stroke="black" stroke-width="0.6" /><path d="M0.05,166.48 L328.36,166.1" fill="none" stroke="black" stroke-width="0.6" /><path d="M300.06,166.14 L-28.28,143.68" fill="none" stroke="black" stroke-width="0.6" /><path d="M0.26,143.9 L320.7,187.51" fill="none" stroke="black" stroke-width="0.6" /><path d="M299.9,187.63 L-20.72,122.29" fill="none" stroke="black" stroke-width="0.6" /><path d="M-0.02,122.31 L310.86,207.15" fill="none" stroke="black" stroke-width="0.6" /><path d="M299.82,207.24 L-10.91,102.54" fill="none" stroke="black" stroke-width="0.6" /><path d="M0.05,102.6 L298.87,224.95 L1.23,84.92 L284.95,240.48 L15.25,69.31 L269.45,253.74 L30.52,56.14 L252.69,264.51 L47.15,45.24 L235.48,272.75 L64.47,37.13 L217.76,278.38 L82.23,31.43 L200.14,281.55 L99.92,28.23" fill="none" stroke="black" stroke-width="0.6" /><path d="M99.77,28.34 L182.77,282.27 L117.26,27.56 L165.8,280.57 L134.1,29.12 L150.0,276.97 L150.0,32.84 L135.25,271.25 L164.58,38.54 L122.05,263.86 L177.97,45.82 L110.22,255.18 L189.77,54.64 L100.39,245.2 L199.79,64.53" fill="none" stroke="black" stroke-width="0.6" /><path d="M199.65,64.65 L92.09,234.56 L207.77,75.24" fill="none" stroke="black" stroke-width="0.6" /><path d="M207.94,75.34 L85.91,223.26 L214.21,86.58 L81.56,211.63 L218.63,98.2 L78.91,200.09 L221.18,109.71 L78.07,188.79 L221.88,121.01 L78.73,178.02 L221.11,131.77 L81.14,168.01 L218.79,141.8 L84.67,159.0 L215.18,150.83 L89.42,151.1 L210.44,158.76 L95.18,144.38" fill="none" stroke="black" stroke-width="0.6" /><path d="M95.35,144.5 L204.91,165.33 L101.39,139.11 L198.63,170.75" fill="none" stroke="black" stroke-width="0.6" /><path d="M198.45,170.86 L107.9,135.15 L192.14,174.64" fill="none" stroke="black" stroke-width="0.6" /><path d="M191.97,174.75 L114.76,132.52 L185.15,177.24 L121.47,131.28" fill="none" stroke="black" stroke-width="0.6" /><path d="M121.3,131.38 L178.42,178.51 L127.93,131.34" fill="none" stroke="black" stroke-width="0.6" /><path d="M127.76,131.44 L171.99,178.46 L133.68,132.59 L166.27,177.29 L139.08,134.83" fill="none" stroke="black" stroke-width="0.6" /><path d="M138.91,134.93 L161.11,174.92 L143.31,137.96 L156.52,171.77 L146.55,141.89 L153.42,167.96 L148.78,146.22" fill="none" stroke="black" stroke-width="0.6" /><path d="M148.96,146.33 L151.07,163.49" fill="none" stroke="black" stroke-width="0.6" /></svg>