<?xml version="1.0" encoding="utf-8" ?>
<svg baseProfile="full" height="310" version="1.1" width="300" xmlns="http://www.w3.org/2000/svg" xmlns:ev="http://www.w3.org/2001/xml-events" xmlns:xlink="http://www.w3.org/1999/xlink"><defs /><path d="M0,0 L114.99,39.01 L112.5,31.45 L109.28,31.6 L117.38,55.29 L121.14,55.25 L129.19,31.54 L126.0,31.54 L122.77,41.52 L119.25,52.62 L117.89,48.27" fill="none" stroke="black" stroke-width="0.6" /><path d="M117.74,48.38 L132.66,31.53 L132.7,55.22 L136.02,55.19 L147.91,35.55" fill="none" stroke="black" stroke-width="0.6" /><path d="M148.05,35.67 L147.59,45.39 L147.55,55.35 L150.43,55.35 L150.42,31.54 L147.37,31.54 L135.38,51.6 L135.47,41.72 L183.47,31.57 L183.6,41.55 L176.11,55.26 L179.58,55.33 L185.29,43.91" fill="none" stroke="black" stroke-width="0.6" /><path d="M185.44,44.01 L187.72,48.76 L191.18,55.36 L194.66,55.34 L186.71,41.6 L207.91,55.27 L207.81,31.62 L204.85,31.54 L225.42,54.51 L241.99,38.99 L239.28,31.54 L236.13,31.53 L244.22,55.33 L247.96,55.31 L256.15,31.49 L252.81,31.48 L249.53,41.41 L246.03,52.63 L244.91,48.31" fill="none" stroke="black" stroke-width="0.6" /><path d="M245.07,48.4 L284.32,54.49 L282.11,34.47 L282.05,41.6 L277.19,41.5 L277.26,43.92 L302.1,42.68" fill="none" stroke="black" stroke-width="0.6" /><path d="M299.83,42.92 L292.83,42.69 L292.87,34.06 L303.12,34.15" fill="none" stroke="black" stroke-width="0.6" /><path d="M299.9,34.17 L303.06,31.59" fill="none" stroke="black" stroke-width="0.6" /><path d="M299.86,31.6 L289.83,31.51 L289.8,55.3 L302.53,55.26" fill="none" stroke="black" stroke-width="0.6" /><path d="M299.86,55.37 L302.51,52.74" fill="none" stroke="black" stroke-width="0.6" /><path d="M299.98,52.7 L292.93,52.71 L292.83,45.24 L307.02,31.47" fill="none" stroke="black" stroke-width="0.6" /><path d="M299.97,31.46 L307.15,55.31" fill="none" stroke="black" stroke-width="0.6" /><path d="M299.98,55.22 L310.48,55.22" fill="none" stroke="black" stroke-width="0.6" /><path d="M299.98,55.22 L322.23,35.56" fill="none" stroke="black" stroke-width="0.6" /><path d="M299.95,35.56 L321.96,45.4" fill="none" stroke="black" stroke-width="0.6" /><path d="M299.98,45.32 L321.97,55.3" fill="none" stroke="black" stroke-width="0.6" /><path d="M299.98,55.22 L324.92,55.35" fill="none" stroke="black" stroke-width="0.6" /><path d="M299.98,55.22 L324.8,31.51" fill="none" stroke="black" stroke-width="0.6" /><path d="M299.97,31.46 L321.83,31.59" fill="none" stroke="black" stroke-width="0.6" /><path d="M299.97,31.46 L309.79,51.5" fill="none" stroke="black" stroke-width="0.6" /><path d="M300.0,51.54 L309.97,41.74" fill="none" stroke="black" stroke-width="0.6" /><path d="M299.85,41.76 L333.27,55.2" fill="none" stroke="black" stroke-width="0.6" /><path d="M299.98,55.22 L333.25,31.56" fill="none" stroke="black" stroke-width="0.6" /><path d="M299.97,31.46 L330.19,31.48" fill="none" stroke="black" stroke-width="0.6" /><path d="M299.97,31.46 L341.62,55.26" fill="none" stroke="black" stroke-width="0.6" /><path d="M299.98,55.22 L352.92,41.22" fill="none" stroke="black" stroke-width="0.6" /><path d="M300.03,41.25 L353.14,55.24" fill="none" stroke="black" stroke-width="0.6" /><path d="M299.98,55.22 L356.06,55.24" fill="none" stroke="black" stroke-width="0.6" /><path d="M299.98,55.22 L338.55,41.38" fill="none" stroke="black" stroke-width="0.6" /><path d="M300.03,41.25 L373.58,54.42" fill="none" stroke="black" stroke-width="0.6" /></svg>