<?xml version="1.0" encoding="utf-8" ?>
<svg baseProfile="full" height="2310" version="1.1" width="2300" xmlns="http://www.w3.org/2000/svg" xmlns:ev="http://www.w3.org/2001/xml-events" xmlns:xlink="http://www.w3.org/1999/xlink"><defs /><path d="M0,0 L35.97,2306.83 L36.64,2306.96" fill="none" stroke="black" stroke-width="0.6" /><path d="M36.46,2306.79 L37.08,2306.39 L37.03,2305.85 L36.65,2306.24 L36.71,2306.77 L36.65,2306.24 L37.1,2305.66 L37.11,2304.94 L37.55,2304.37 L37.67,2304.72" fill="none" stroke="black" stroke-width="0.6" /><path d="M37.91,2304.7 L37.6,2304.9" fill="none" stroke="black" stroke-width="0.6" /><path d="M37.42,2304.74 L37.47,2305.27 L37.34,2305.64 L37.4,2306.18 L37.02,2306.57 L37.45,2306.72" fill="none" stroke="black" stroke-width="0.6" /><path d="M37.27,2306.55 L37.88,2306.87 L37.27,2306.55" fill="none" stroke="black" stroke-width="0.6" /><path d="M37.51,2306.54 L37.71,2305.98 L38.15,2305.41 L37.85,2304.89 L38.11,2304.15 L37.87,2303.44 L37.95,2302.53 L37.82,2302.9 L37.62,2303.46 L37.43,2304.01 L37.3,2304.38 L36.92,2304.77 L36.8,2305.14 L36.81,2304.42 L37.25,2303.85 L36.69,2304.07" fill="none" stroke="black" stroke-width="0.6" /><path d="M36.51,2303.9 L36.63,2304.25" fill="none" stroke="black" stroke-width="0.6" /><path d="M36.87,2304.23 L36.56,2304.44" fill="none" stroke="black" stroke-width="0.6" /><path d="M36.38,2304.27 L36.5,2304.62" fill="none" stroke="black" stroke-width="0.6" /><path d="M36.74,2304.6 L36.37,2304.99 L36.48,2305.35" fill="none" stroke="black" stroke-width="0.6" /><path d="M36.73,2305.33 L36.35,2305.72 L35.99,2305.38 L35.86,2305.75 L35.48,2306.14 L35.68,2305.58 L36.12,2305.01 L36.31,2304.45 L36.51,2303.9 L36.46,2303.36 L35.96,2303.4 L36.16,2302.84 L36.83,2302.97" fill="none" stroke="black" stroke-width="0.6" /><path d="M36.65,2302.81 L36.7,2303.34 L37.38,2303.48" fill="none" stroke="black" stroke-width="0.6" /><path d="M37.2,2303.31 L37.39,2302.75 L37.58,2302.2 L38.02,2301.63 L38.04,2300.9 L37.72,2301.11" fill="none" stroke="black" stroke-width="0.6" /><path d="M37.54,2300.94 L37.35,2301.49 L37.47,2301.85" fill="none" stroke="black" stroke-width="0.6" /><path d="M37.71,2301.83 L37.15,2302.05" fill="none" stroke="black" stroke-width="0.6" /><path d="M36.97,2301.88 L37.52,2302.38 L36.84,2302.25 L37.14,2302.77" fill="none" stroke="black" stroke-width="0.6" /><path d="M37.39,2302.75 L36.96,2302.6" fill="none" stroke="black" stroke-width="0.6" /><path d="M37.21,2302.59 L36.78,2302.44" fill="none" stroke="black" stroke-width="0.6" /><path d="M37.03,2302.42 L37.22,2301.86 L37.23,2301.14 L37.49,2300.4 L37.44,2299.86 L37.45,2299.14 L37.81,2299.48 L37.68,2299.85 L38.13,2299.27 L38.14,2298.55 L37.76,2298.94 L37.53,2298.23 L37.58,2298.77 L37.45,2299.14 L37.32,2299.51 L37.37,2300.05 L37.24,2300.42 L36.5,2300.47 L36.8,2300.99" fill="none" stroke="black" stroke-width="0.6" /><path d="M37.05,2300.97 L36.67,2301.36 L36.54,2301.73 L36.6,2302.27 L36.29,2302.47" fill="none" stroke="black" stroke-width="0.6" /><path d="M36.1,2302.3 L35.73,2302.69 L35.35,2303.08 L35.22,2303.45 L35.23,2302.73 L35.67,2302.15 L36.35,2302.29" fill="none" stroke="black" stroke-width="0.6" /><path d="M36.17,2302.12 L35.49,2301.99 L35.12,2302.37 L34.74,2302.76 L34.61,2303.13 L34.62,2302.41 L35.18,2302.19 L34.88,2301.67 L34.89,2300.95 L35.34,2300.37 L35.53,2299.82 L35.97,2299.25 L35.98,2298.52 L35.93,2297.99 L36.19,2297.25 L35.96,2296.54 L36.4,2295.97 L36.77,2295.58 L37.4,2295.17 L38.02,2294.77 L37.89,2295.14 L37.51,2295.53 L37.32,2296.08 L36.83,2296.12 L36.7,2296.49 L36.57,2296.86 L36.37,2297.41 L36.18,2297.97 L36.05,2298.34 L36.35,2298.86" fill="none" stroke="black" stroke-width="0.6" /><path d="M36.59,2298.84 L36.28,2299.04" fill="none" stroke="black" stroke-width="0.6" /><path d="M36.1,2298.88 L35.97,2299.25 L35.84,2299.62 L35.71,2299.99 L35.34,2300.37 L34.96,2300.76 L35.63,2300.89" fill="none" stroke="black" stroke-width="0.6" /><path d="M35.45,2300.73 L35.5,2301.26 L35.8,2301.78" fill="none" stroke="black" stroke-width="0.6" /><path d="M36.05,2301.77 L35.82,2301.06 L35.52,2300.54 L35.96,2299.97 L36.08,2300.32" fill="none" stroke="black" stroke-width="0.6" /><path d="M36.32,2300.3 L36.19,2300.67 L36.06,2301.04 L36.43,2301.38 L36.44,2300.66 L36.45,2299.93 L36.09,2299.6 L36.53,2299.03 L36.72,2298.47 L36.74,2297.75 L36.79,2298.29 L36.66,2298.66 L36.71,2299.19 L36.58,2299.56 L36.45,2299.93 L36.82,2300.27 L36.58,2299.56 L37.2,2299.16 L37.22,2298.44 L36.98,2297.73 L36.75,2297.03 L37.19,2296.45 L37.24,2296.99 L37.36,2297.34" fill="none" stroke="black" stroke-width="0.6" /><path d="M37.6,2297.33 L37.41,2297.88 L37.6,2297.33 L37.8,2296.77 L37.67,2297.14 L38.03,2297.47 L37.9,2297.84 L37.53,2298.23 L37.89,2298.57 L38.15,2297.83 L38.1,2297.29 L38.29,2296.73 L38.3,2296.01 L37.75,2296.23" fill="none" stroke="black" stroke-width="0.6" /><path d="M37.57,2296.06 L38.19,2295.66 L38.45,2294.92 L38.15,2294.4 L38.16,2293.68 L37.79,2294.06 L37.49,2293.54 L38.11,2293.14 L38.37,2292.4 L38.56,2291.84 L38.33,2291.14 L37.77,2291.36" fill="none" stroke="black" stroke-width="0.6" /><path d="M37.59,2291.19 L37.64,2291.73 L37.09,2291.95" fill="none" stroke="black" stroke-width="0.6" /><path d="M36.91,2291.78 L37.35,2291.21 L37.05,2290.69 L37.72,2290.82" fill="none" stroke="black" stroke-width="0.6" /><path d="M37.54,2290.65 L38.21,2290.78" fill="none" stroke="black" stroke-width="0.6" /><path d="M38.03,2290.62 L37.54,2290.65 L37.18,2290.32 L37.67,2290.28 L37.62,2289.74 L38.6,2289.67 L39.03,2289.82" fill="none" stroke="black" stroke-width="0.6" /><path d="M38.85,2289.66 L38.9,2290.19 L38.85,2289.66 L38.24,2289.34" fill="none" stroke="black" stroke-width="0.6" /><path d="M38.49,2289.32 L38.12,2288.99 L38.0,2289.36 L37.7,2288.84 L37.89,2288.28 L38.33,2287.71 L38.45,2288.06" fill="none" stroke="black" stroke-width="0.6" /><path d="M38.7,2288.04 L39.3,2288.36 L38.76,2287.86 L38.46,2287.34 L38.72,2286.6 L38.3,2286.45" fill="none" stroke="black" stroke-width="0.6" /><path d="M38.54,2286.43 L39.16,2286.02 L39.36,2285.47 L39.85,2285.43 L39.9,2285.97 L40.34,2285.4 L40.46,2285.75" fill="none" stroke="black" stroke-width="0.6" /><path d="M40.7,2285.73 L40.33,2286.12 L40.95,2285.71 L41.0,2286.25 L41.44,2285.68 L42.24,2285.44 L43.22,2285.36 L42.62,2285.05" fill="none" stroke="black" stroke-width="0.6" /><path d="M42.86,2285.03 L42.25,2284.71" fill="none" stroke="black" stroke-width="0.6" /><path d="M42.5,2284.7 L42.19,2284.9" fill="none" stroke="black" stroke-width="0.6" /><path d="M42.01,2284.73 L42.06,2285.27 L41.75,2285.47" fill="none" stroke="black" stroke-width="0.6" /><path d="M41.57,2285.31 L41.76,2284.75 L41.45,2284.95" fill="none" stroke="black" stroke-width="0.6" /><path d="M41.27,2284.79 L40.9,2285.18 L40.29,2284.86" fill="none" stroke="black" stroke-width="0.6" /><path d="M40.54,2284.84 L40.16,2285.23 L39.8,2284.89 L39.67,2285.27 L39.11,2285.49" fill="none" stroke="black" stroke-width="0.6" /><path d="M38.93,2285.32 L39.29,2285.65 L38.98,2285.86" fill="none" stroke="black" stroke-width="0.6" /><path d="M38.8,2285.69 L38.24,2285.91" fill="none" stroke="black" stroke-width="0.6" /><path d="M38.06,2285.74 L37.51,2285.96" fill="none" stroke="black" stroke-width="0.6" /><path d="M37.33,2285.8 L37.44,2286.15" fill="none" stroke="black" stroke-width="0.6" /><path d="M37.69,2286.13 L37.25,2286.7 L37.8,2286.48 L37.86,2287.02 L38.22,2287.36 L37.66,2287.58" fill="none" stroke="black" stroke-width="0.6" /><path d="M37.48,2287.41 L37.84,2287.74 L37.47,2288.13 L37.52,2288.67 L37.63,2289.02" fill="none" stroke="black" stroke-width="0.6" /><path d="M37.88,2289.0 L37.5,2289.39 L37.37,2289.76 L37.0,2290.15 L36.8,2290.71 L36.67,2291.08 L36.79,2291.43" fill="none" stroke="black" stroke-width="0.6" /><path d="M37.04,2291.41 L36.84,2291.97 L36.96,2292.32" fill="none" stroke="black" stroke-width="0.6" /><path d="M37.2,2292.3 L36.65,2292.52" fill="none" stroke="black" stroke-width="0.6" /><path d="M36.46,2292.35 L36.83,2292.69 L36.45,2293.08 L37.01,2292.86 L37.38,2292.47 L37.83,2291.9 L38.27,2291.32 L38.25,2292.05 L37.88,2292.43 L37.32,2292.65" fill="none" stroke="black" stroke-width="0.6" /><path d="M37.14,2292.49 L37.93,2292.97 L37.62,2293.17" fill="none" stroke="black" stroke-width="0.6" /><path d="M37.44,2293.01 L37.31,2293.38 L37.11,2293.93 L36.68,2293.78" fill="none" stroke="black" stroke-width="0.6" /><path d="M36.93,2293.76 L36.26,2293.63 L36.2,2293.09 L36.07,2293.46 L35.95,2293.83 L35.57,2294.22 L35.44,2294.59 L35.31,2294.96 L35.93,2294.56 L36.13,2294.0 L36.24,2294.35" fill="none" stroke="black" stroke-width="0.6" /><path d="M36.49,2294.34 L35.93,2294.56" fill="none" stroke="black" stroke-width="0.6" /><path d="M35.75,2294.39 L35.87,2294.74" fill="none" stroke="black" stroke-width="0.6" /><path d="M36.11,2294.72 L35.56,2294.94" fill="none" stroke="black" stroke-width="0.6" /><path d="M35.37,2294.78 L35.74,2295.11 L35.61,2295.48 L35.48,2295.85 L35.92,2295.28 L36.36,2294.71 L36.55,2294.15 L37.23,2294.28" fill="none" stroke="black" stroke-width="0.6" /><path d="M37.05,2294.12 L37.35,2294.64" fill="none" stroke="black" stroke-width="0.6" /><path d="M37.59,2294.62 L37.03,2294.84" fill="none" stroke="black" stroke-width="0.6" /><path d="M36.85,2294.67 L36.97,2295.02" fill="none" stroke="black" stroke-width="0.6" /><path d="M37.22,2295.01 L36.9,2295.21" fill="none" stroke="black" stroke-width="0.6" /><path d="M36.72,2295.04 L36.77,2295.58 L36.79,2294.86 L36.29,2294.89 L36.17,2295.26 L36.04,2295.63 L36.09,2296.17 L35.71,2296.56 L35.17,2296.06 L35.18,2295.33 L34.87,2295.53" fill="none" stroke="black" stroke-width="0.6" /><path d="M34.69,2295.37 L34.98,2295.89" fill="none" stroke="black" stroke-width="0.6" /><path d="M35.23,2295.87 L35.1,2296.24 L34.56,2295.74 L34.61,2296.27 L34.48,2296.65 L34.1,2297.03 L34.3,2296.48 L34.31,2295.75 L34.51,2295.2 L34.95,2294.63 L35.39,2294.05 L35.09,2293.53 L35.04,2293.0 L35.71,2293.13" fill="none" stroke="black" stroke-width="0.6" /><path d="M35.53,2292.96 L35.4,2293.33 L35.45,2293.87 L35.83,2293.48 L36.02,2292.93 L35.6,2292.78" fill="none" stroke="black" stroke-width="0.6" /><path d="M35.84,2292.76 L35.86,2292.04 L35.73,2292.41 L35.18,2291.9 L35.38,2291.35 L34.88,2291.38 L34.9,2290.66 L35.34,2290.09 L35.72,2289.7 L35.91,2289.15 L35.6,2289.35" fill="none" stroke="black" stroke-width="0.6" /><path d="M35.42,2289.18 L35.29,2289.55 L35.3,2288.83 L35.5,2288.27 L35.94,2287.7 L35.89,2287.16 L35.66,2286.46 L36.03,2286.07 L36.05,2285.35 L35.75,2284.83 L35.94,2284.27 L35.96,2283.55 L36.32,2283.88 L36.58,2283.14 L36.88,2283.66" fill="none" stroke="black" stroke-width="0.6" /><path d="M37.12,2283.64 L36.57,2283.86" fill="none" stroke="black" stroke-width="0.6" /><path d="M36.39,2283.7 L36.5,2284.05" fill="none" stroke="black" stroke-width="0.6" /><path d="M36.75,2284.03 L36.26,2284.07 L36.13,2284.44 L36.18,2284.98 L36.37,2284.42 L36.8,2284.57" fill="none" stroke="black" stroke-width="0.6" /><path d="M36.62,2284.4 L36.73,2284.76" fill="none" stroke="black" stroke-width="0.6" /><path d="M36.98,2284.74 L36.6,2285.13 L36.41,2285.68 L37.03,2285.28 L36.9,2285.65 L36.52,2286.03 L36.57,2286.57 L36.2,2286.96 L36.07,2287.33 L36.12,2287.87 L35.99,2288.24 L36.11,2288.59" fill="none" stroke="black" stroke-width="0.6" /><path d="M36.35,2288.57 L36.47,2288.92" fill="none" stroke="black" stroke-width="0.6" /><path d="M36.71,2288.91 L36.34,2289.29 L36.76,2289.44" fill="none" stroke="black" stroke-width="0.6" /><path d="M36.58,2289.28 L36.45,2289.65 L36.51,2290.19 L36.21,2289.67 L35.9,2289.87" fill="none" stroke="black" stroke-width="0.6" /><path d="M35.72,2289.7 L35.83,2290.05" fill="none" stroke="black" stroke-width="0.6" /><path d="M36.08,2290.04 L35.77,2290.24" fill="none" stroke="black" stroke-width="0.6" /><path d="M35.59,2290.07 L35.46,2290.44 L34.9,2290.66" fill="none" stroke="black" stroke-width="0.6" /><path d="M34.72,2290.49 L35.08,2290.83 L35.44,2291.16 L35.49,2291.7 L35.93,2291.13 L36.3,2291.46 L36.1,2292.02 L36.4,2292.54" fill="none" stroke="black" stroke-width="0.6" /><path d="M36.65,2292.52 L36.41,2291.82 L36.61,2291.26 L36.56,2290.72 L36.06,2290.76 L36.62,2290.54 L36.82,2289.98 L37.01,2289.43 L37.21,2288.87 L37.47,2288.13 L37.41,2287.59 L37.12,2287.07 L36.99,2287.44 L37.04,2287.98 L36.91,2288.35 L36.96,2288.89 L36.91,2288.35 L36.92,2287.63 L36.37,2287.85" fill="none" stroke="black" stroke-width="0.6" /><path d="M36.18,2287.68 L36.55,2288.02 L36.5,2287.48 L36.76,2286.74 L37.2,2286.17 L37.46,2285.43 L37.82,2285.76 L37.83,2285.04 L38.03,2284.48 L37.65,2284.87 L37.09,2285.09" fill="none" stroke="black" stroke-width="0.6" /><path d="M36.91,2284.92 L37.29,2284.53 L37.48,2283.98 L37.74,2283.24 L38.04,2283.76" fill="none" stroke="black" stroke-width="0.6" /><path d="M38.29,2283.74 L37.98,2283.94" fill="none" stroke="black" stroke-width="0.6" /><path d="M37.8,2283.78 L38.09,2284.3" fill="none" stroke="black" stroke-width="0.6" /><path d="M38.34,2284.28 L38.21,2284.65 L38.5,2285.17" fill="none" stroke="black" stroke-width="0.6" /><path d="M38.75,2285.15 L38.19,2285.37" fill="none" stroke="black" stroke-width="0.6" /><path d="M38.01,2285.2 L38.56,2285.71 L38.93,2285.32 L39.55,2284.91 L39.13,2284.76" fill="none" stroke="black" stroke-width="0.6" /><path d="M39.37,2284.75 L39.14,2284.04 L38.84,2283.52 L38.79,2282.98 L38.42,2283.37 L38.71,2283.89" fill="none" stroke="black" stroke-width="0.6" /><path d="M38.96,2283.87 L38.65,2284.08" fill="none" stroke="black" stroke-width="0.6" /><path d="M38.47,2283.91 L38.89,2284.06" fill="none" stroke="black" stroke-width="0.6" /><path d="M38.71,2283.89 L38.83,2284.24" fill="none" stroke="black" stroke-width="0.6" /><path d="M39.07,2284.23 L38.7,2284.61 L38.82,2284.97" fill="none" stroke="black" stroke-width="0.6" /><path d="M39.06,2284.95 L38.69,2285.34 L38.39,2284.82 L38.58,2284.26 L38.22,2283.93 L38.17,2283.39 L37.87,2282.87 L38.43,2282.65 L39.17,2282.59 L39.66,2282.56 L40.2,2283.06 L39.9,2282.54 L39.3,2282.22" fill="none" stroke="black" stroke-width="0.6" /><path d="M39.54,2282.21 L39.05,2282.24 L38.82,2281.54 L38.69,2281.91 L38.56,2282.28 L38.26,2281.76 L37.89,2282.15 L37.76,2282.52 L37.56,2283.07 L37.43,2283.44 L37.24,2284.0 L37.11,2284.37 L36.68,2284.22" fill="none" stroke="black" stroke-width="0.6" /><path d="M36.93,2284.2 L37.12,2283.64 L37.32,2283.09 L37.58,2282.35 L37.77,2281.79 L37.97,2281.24 L38.34,2280.85 L38.54,2280.29 L37.98,2280.51" fill="none" stroke="black" stroke-width="0.6" /><path d="M37.8,2280.35 L38.1,2280.87" fill="none" stroke="black" stroke-width="0.6" /><path d="M38.34,2280.85 L37.85,2280.88 L37.48,2281.27 L37.35,2281.64 L37.54,2281.09 L37.74,2280.53 L37.93,2279.98 L38.31,2279.59 L38.57,2278.85 L38.08,2278.88 L38.03,2278.35 L38.58,2278.12 L39.2,2277.72 L39.63,2277.87" fill="none" stroke="black" stroke-width="0.6" /><path d="M39.45,2277.7 L39.32,2278.07 L38.94,2278.46 L38.99,2279.0 L38.62,2279.39 L38.98,2279.72 L38.79,2280.28 L38.65,2280.65 L39.26,2280.96 L39.28,2280.24 L39.05,2279.54 L39.06,2278.81 L39.25,2278.26 L39.62,2278.59 L39.67,2279.13 L39.36,2279.33" fill="none" stroke="black" stroke-width="0.6" /><path d="M39.18,2279.16 L39.47,2279.68" fill="none" stroke="black" stroke-width="0.6" /><path d="M39.72,2279.67 L39.59,2280.04 L39.64,2280.57 L40.24,2280.89 L40.36,2281.24" fill="none" stroke="black" stroke-width="0.6" /><path d="M40.6,2281.23 L40.31,2280.71 L39.64,2280.57 L39.65,2279.85 L40.09,2279.28 L40.04,2278.74 L40.06,2278.02 L40.01,2277.48 L40.2,2276.92 L40.4,2276.37 L39.91,2276.4 L39.96,2276.94 L39.4,2277.16" fill="none" stroke="black" stroke-width="0.6" /><path d="M39.22,2277.0 L39.48,2276.25 L40.1,2275.85 L39.87,2275.14 L39.38,2275.18 L39.08,2274.66 L39.52,2274.09 L39.57,2274.62 L40.01,2274.05 L40.31,2274.57" fill="none" stroke="black" stroke-width="0.6" /><path d="M40.56,2274.55 L40.0,2274.77" fill="none" stroke="black" stroke-width="0.6" /><path d="M39.82,2274.61 L40.12,2275.13" fill="none" stroke="black" stroke-width="0.6" /><path d="M40.36,2275.11 L40.41,2275.65 L40.71,2276.17" fill="none" stroke="black" stroke-width="0.6" /><path d="M40.95,2276.15 L40.66,2275.63 L40.85,2275.07 L41.11,2274.33 L41.31,2273.77 L40.75,2274.0" fill="none" stroke="black" stroke-width="0.6" /><path d="M40.57,2273.83 L40.87,2274.35" fill="none" stroke="black" stroke-width="0.6" /><path d="M41.11,2274.33 L40.56,2274.55" fill="none" stroke="black" stroke-width="0.6" /><path d="M40.38,2274.38 L40.49,2274.74" fill="none" stroke="black" stroke-width="0.6" /><path d="M40.74,2274.72 L40.69,2274.18 L40.7,2273.46 L40.47,2272.75 L40.24,2272.05 L40.68,2271.47 L40.55,2271.84 L40.91,2272.18 L40.78,2272.55 L41.22,2271.98 L41.09,2272.35 L40.72,2272.74 L41.08,2273.07 L41.52,2272.5 L41.71,2271.94 L41.73,2271.22 L41.99,2270.48 L41.43,2270.7" fill="none" stroke="black" stroke-width="0.6" /><path d="M41.25,2270.53 L41.3,2271.07 L40.93,2271.46 L40.94,2270.73 L41.2,2269.99 L41.46,2269.25 L41.82,2269.59 L41.63,2270.14 L42.07,2269.57 L42.08,2268.84 L42.46,2268.46 L42.47,2267.73 L42.42,2267.19 L42.11,2267.4" fill="none" stroke="black" stroke-width="0.6" /><path d="M41.93,2267.23 L42.23,2267.75" fill="none" stroke="black" stroke-width="0.6" /><path d="M42.47,2267.73 L41.8,2267.6 L41.85,2268.14 L41.66,2268.69 L41.35,2268.9" fill="none" stroke="black" stroke-width="0.6" /><path d="M41.17,2268.73 L41.22,2269.27 L41.09,2269.64 L40.96,2270.01 L40.83,2270.38 L40.45,2270.77 L40.32,2271.14 L39.77,2271.36" fill="none" stroke="black" stroke-width="0.6" /><path d="M39.59,2271.19 L40.03,2270.62 L40.47,2270.05 L40.73,2269.31 L40.99,2268.56 L41.61,2268.16 L41.62,2267.43 L41.82,2266.88 L42.37,2266.66 L42.98,2266.97 L42.68,2266.45 L43.12,2265.88 L43.32,2265.32 L43.51,2264.77 L42.96,2264.99" fill="none" stroke="black" stroke-width="0.6" /><path d="M42.78,2264.82 L42.83,2265.36 L42.45,2265.75 L42.75,2266.27" fill="none" stroke="black" stroke-width="0.6" /><path d="M42.99,2266.25 L42.5,2266.29 L42.45,2265.75 L42.47,2265.02 L41.92,2265.25" fill="none" stroke="black" stroke-width="0.6" /><path d="M41.74,2265.08 L42.03,2265.6" fill="none" stroke="black" stroke-width="0.6" /><path d="M42.27,2265.58 L41.96,2265.78" fill="none" stroke="black" stroke-width="0.6" /><path d="M41.78,2265.62 L41.8,2264.89 L41.43,2265.28 L40.76,2265.15 L40.38,2265.54 L39.83,2265.76" fill="none" stroke="black" stroke-width="0.6" /><path d="M39.65,2265.59 L40.01,2265.93 L39.45,2266.15" fill="none" stroke="black" stroke-width="0.6" /><path d="M39.27,2265.98 L39.63,2266.32 L39.68,2266.86 L40.12,2266.28 L40.24,2266.63" fill="none" stroke="black" stroke-width="0.6" /><path d="M40.48,2266.62 L39.93,2266.84" fill="none" stroke="black" stroke-width="0.6" /><path d="M39.75,2266.67 L39.86,2267.02" fill="none" stroke="black" stroke-width="0.6" /><path d="M40.11,2267.0 L39.97,2267.38 L40.42,2266.8 L40.37,2266.26 L40.81,2265.69 L41.3,2265.65 L41.34,2266.19 L40.99,2265.86 L40.68,2266.06" fill="none" stroke="black" stroke-width="0.6" /><path d="M40.5,2265.89 L40.61,2266.25" fill="none" stroke="black" stroke-width="0.6" /><path d="M40.86,2266.23 L40.66,2266.78 L40.53,2267.15 L40.82,2267.67" fill="none" stroke="black" stroke-width="0.6" /><path d="M41.07,2267.66 L40.77,2267.14 L40.97,2266.58 L41.52,2266.36 L41.96,2265.78 L42.08,2266.14" fill="none" stroke="black" stroke-width="0.6" /><path d="M42.32,2266.12 L42.01,2266.32" fill="none" stroke="black" stroke-width="0.6" /><path d="M41.83,2266.15 L41.7,2266.53 L41.33,2266.91 L41.13,2267.47 L41.0,2267.84 L40.51,2267.88 L40.2,2268.08" fill="none" stroke="black" stroke-width="0.6" /><path d="M40.02,2267.91 L39.65,2268.3 L40.01,2268.64 L40.63,2268.23 L40.5,2268.6 L40.55,2269.14 L40.24,2269.34" fill="none" stroke="black" stroke-width="0.6" /><path d="M40.06,2269.17 L39.86,2269.73 L40.22,2270.06 L39.85,2270.45 L39.47,2270.84 L39.52,2271.38 L39.15,2271.77 L39.7,2271.55 L40.06,2271.88 L40.18,2272.23" fill="none" stroke="black" stroke-width="0.6" /><path d="M40.42,2272.22 L40.11,2272.42" fill="none" stroke="black" stroke-width="0.6" /><path d="M39.93,2272.25 L40.23,2272.77" fill="none" stroke="black" stroke-width="0.6" /><path d="M40.47,2272.75 L40.52,2273.29 L40.15,2273.68 L39.83,2273.88" fill="none" stroke="black" stroke-width="0.6" /><path d="M39.65,2273.72 L39.36,2273.2 L39.38,2272.47 L39.74,2272.81 L39.79,2273.34 L39.98,2272.79 L39.69,2272.27 L39.13,2272.49" fill="none" stroke="black" stroke-width="0.6" /><path d="M38.95,2272.32 L38.57,2272.71 L38.62,2273.25 L38.82,2272.69 L39.18,2273.03 L39.23,2273.57 L39.1,2273.94 L39.15,2274.47 L38.79,2274.14 L38.98,2273.58 L38.49,2273.62 L38.54,2274.16 L38.84,2274.68" fill="none" stroke="black" stroke-width="0.6" /><path d="M39.08,2274.66 L38.77,2274.86" fill="none" stroke="black" stroke-width="0.6" /><path d="M38.59,2274.7 L38.64,2275.23 L38.69,2275.77 L38.2,2275.81 L38.25,2276.34 L38.87,2275.94 L39.25,2275.55 L39.3,2276.09 L38.99,2276.29" fill="none" stroke="black" stroke-width="0.6" /><path d="M38.81,2276.12 L38.79,2276.85 L38.66,2277.22 L38.53,2277.59 L38.55,2276.86 L38.12,2276.71" fill="none" stroke="black" stroke-width="0.6" /><path d="M38.37,2276.7 L37.99,2277.08 L37.86,2277.46 L37.85,2278.18 L37.72,2278.55 L37.77,2279.09 L38.19,2279.24" fill="none" stroke="black" stroke-width="0.6" /><path d="M38.01,2279.07 L37.88,2279.44 L37.75,2279.81 L37.8,2280.35 L37.43,2280.74 L37.3,2281.11 L36.92,2281.49 L37.28,2281.83 L37.15,2282.2 L37.27,2282.55" fill="none" stroke="black" stroke-width="0.6" /><path d="M37.51,2282.53 L36.96,2282.75" fill="none" stroke="black" stroke-width="0.6" /><path d="M36.78,2282.59 L36.97,2282.03 L36.42,2282.25" fill="none" stroke="black" stroke-width="0.6" /><path d="M36.23,2282.08 L36.35,2282.44" fill="none" stroke="black" stroke-width="0.6" /><path d="M36.6,2282.42 L36.22,2282.81 L36.09,2283.18 L35.78,2283.38" fill="none" stroke="black" stroke-width="0.6" /><path d="M35.6,2283.21 L35.71,2283.56" fill="none" stroke="black" stroke-width="0.6" /><path d="M35.96,2283.55 L35.58,2283.94 L35.39,2284.49 L35.5,2284.84" fill="none" stroke="black" stroke-width="0.6" /><path d="M35.75,2284.83 L35.19,2285.05" fill="none" stroke="black" stroke-width="0.6" /><path d="M35.01,2284.88 L35.13,2285.23" fill="none" stroke="black" stroke-width="0.6" /><path d="M35.37,2285.21 L35.74,2285.55 L35.36,2285.94 L35.23,2286.31 L35.1,2286.68 L34.9,2287.23 L35.2,2287.75" fill="none" stroke="black" stroke-width="0.6" /><path d="M35.45,2287.73 L34.89,2287.95" fill="none" stroke="black" stroke-width="0.6" /><path d="M34.71,2287.79 L34.48,2287.08 L34.85,2286.69 L34.43,2286.54" fill="none" stroke="black" stroke-width="0.6" /><path d="M34.67,2286.53 L34.31,2286.19 L34.32,2285.47 L34.01,2285.67" fill="none" stroke="black" stroke-width="0.6" /><path d="M33.83,2285.5 L33.95,2285.86" fill="none" stroke="black" stroke-width="0.6" /><path d="M34.19,2285.84 L34.06,2286.21 L34.11,2286.75 L33.56,2286.97" fill="none" stroke="black" stroke-width="0.6" /><path d="M33.38,2286.8 L33.74,2287.13 L33.79,2287.67 L33.41,2288.06 L32.92,2288.09 L33.48,2287.87 L33.31,2286.98 L33.75,2286.41 L33.7,2285.87 L33.41,2285.35 L33.6,2284.8 L33.72,2285.15" fill="none" stroke="black" stroke-width="0.6" /><path d="M33.96,2285.13 L34.4,2284.56 L34.42,2283.84 L34.19,2283.13 L34.2,2282.41 L33.71,2282.44 L33.91,2281.89 L33.61,2281.37 L33.81,2280.81 L34.36,2280.59 L34.74,2280.21 L35.3,2279.99 L35.17,2280.36 L35.22,2280.89 L34.84,2281.28 L34.86,2280.56 L34.48,2280.95 L34.53,2281.48 L34.4,2281.85 L34.27,2282.22 L34.56,2282.74" fill="none" stroke="black" stroke-width="0.6" /><path d="M34.81,2282.73 L34.25,2282.95" fill="none" stroke="black" stroke-width="0.6" /><path d="M34.07,2282.78 L34.43,2283.11 L34.55,2283.47" fill="none" stroke="black" stroke-width="0.6" /><path d="M34.8,2283.45 L34.85,2283.99 L34.53,2284.19" fill="none" stroke="black" stroke-width="0.6" /><path d="M34.35,2284.02 L34.65,2284.54" fill="none" stroke="black" stroke-width="0.6" /><path d="M34.9,2284.53 L34.59,2284.73" fill="none" stroke="black" stroke-width="0.6" /><path d="M34.4,2284.56 L34.27,2284.93 L34.39,2285.28" fill="none" stroke="black" stroke-width="0.6" /><path d="M34.64,2285.27 L34.51,2285.64 L34.38,2286.01 L34.87,2285.97 L34.88,2285.25 L34.65,2284.54 L35.27,2284.14 L35.71,2283.56 L35.91,2283.01 L35.48,2282.86" fill="none" stroke="black" stroke-width="0.6" /><path d="M35.73,2282.84 L35.17,2283.06" fill="none" stroke="black" stroke-width="0.6" /><path d="M34.99,2282.89 L35.11,2283.25" fill="none" stroke="black" stroke-width="0.6" /><path d="M35.35,2283.23 L35.16,2283.78 L35.03,2284.16 L34.8,2283.45 L34.56,2282.74 L34.58,2282.02 L35.25,2282.15" fill="none" stroke="black" stroke-width="0.6" /><path d="M35.07,2281.99 L35.09,2281.26 L35.69,2281.58 L35.64,2281.04 L35.17,2280.36 L35.36,2279.8 L35.98,2279.4 L35.85,2279.77 L35.72,2280.14 L36.39,2280.27" fill="none" stroke="black" stroke-width="0.6" /><path d="M36.21,2280.1 L36.57,2280.44 L36.95,2280.05 L37.0,2280.59 L36.63,2280.97 L36.5,2281.34 L35.95,2280.84 L36.0,2281.38 L35.63,2281.77 L35.5,2282.14 L35.37,2282.51 L35.92,2282.29 L36.12,2281.73 L36.68,2281.51 L36.94,2280.77 L37.31,2280.38 L37.33,2279.66 L37.34,2278.94 L37.54,2278.38 L37.16,2278.77 L37.28,2279.12" fill="none" stroke="black" stroke-width="0.6" /><path d="M37.52,2279.1 L37.21,2279.31" fill="none" stroke="black" stroke-width="0.6" /><path d="M37.03,2279.14 L37.08,2279.68 L36.71,2280.07 L36.03,2279.93 L36.47,2279.36 L36.49,2278.64 L36.0,2278.67 L36.29,2279.19" fill="none" stroke="black" stroke-width="0.6" /><path d="M36.54,2279.17 L35.87,2279.04 L35.74,2279.41 L35.18,2279.63" fill="none" stroke="black" stroke-width="0.6" /><path d="M35.0,2279.47 L35.56,2279.25 L35.57,2278.52 L35.83,2277.78 L35.85,2277.06 L36.22,2276.67 L36.6,2276.28 L36.65,2276.82 L37.03,2276.43 L37.22,2275.88 L37.34,2276.23" fill="none" stroke="black" stroke-width="0.6" /><path d="M37.58,2276.21 L37.39,2276.77 L37.01,2277.16 L36.27,2277.21 L36.08,2277.76 L36.57,2277.73 L36.62,2278.27 L36.92,2278.79" fill="none" stroke="black" stroke-width="0.6" /><path d="M37.16,2278.77 L36.6,2278.99" fill="none" stroke="black" stroke-width="0.6" /><path d="M36.42,2278.82 L36.54,2279.17" fill="none" stroke="black" stroke-width="0.6" /><path d="M36.79,2279.16 L36.66,2279.53 L37.1,2278.95 L36.87,2278.25 L37.49,2277.84 L37.5,2277.12 L37.94,2276.55 L37.65,2276.03 L38.09,2275.45 L37.86,2274.75 L38.46,2275.07 L38.23,2274.36 L38.25,2273.64 L38.44,2273.08 L37.95,2273.12 L37.53,2272.97" fill="none" stroke="black" stroke-width="0.6" /><path d="M37.77,2272.95 L37.46,2273.15" fill="none" stroke="black" stroke-width="0.6" /><path d="M37.28,2272.99 L37.33,2273.52 L37.14,2274.08 L36.94,2274.63 L37.32,2274.25 L37.51,2273.69 L37.87,2274.03 L37.68,2274.58 L37.55,2274.95 L37.6,2275.49 L37.3,2274.97 L36.99,2275.17" fill="none" stroke="black" stroke-width="0.6" /><path d="M36.81,2275.0 L36.93,2275.36" fill="none" stroke="black" stroke-width="0.6" /><path d="M37.17,2275.34 L36.8,2275.73 L36.18,2276.13 L36.44,2275.39 L36.7,2274.65 L36.16,2274.15 L36.6,2273.58 L36.3,2273.06 L36.17,2273.43 L36.04,2273.8 L35.91,2274.17 L36.27,2274.5 L36.08,2275.06 L35.88,2275.61 L35.75,2275.98 L35.37,2276.37 L35.93,2276.15 L35.8,2276.52 L35.6,2277.08 L35.47,2277.45 L35.34,2277.82 L35.64,2278.34" fill="none" stroke="black" stroke-width="0.6" /><path d="M35.88,2278.32 L35.39,2278.35 L35.44,2278.89 L35.07,2279.28 L34.94,2279.65 L34.56,2280.04 L34.25,2280.24" fill="none" stroke="black" stroke-width="0.6" /><path d="M34.07,2280.07 L34.69,2279.67 L34.89,2279.11 L35.08,2278.56 L34.79,2278.04 L34.84,2278.57 L34.64,2279.13 L34.66,2278.41 L34.34,2278.61" fill="none" stroke="black" stroke-width="0.6" /><path d="M34.16,2278.44 L34.46,2278.96" fill="none" stroke="black" stroke-width="0.6" /><path d="M34.71,2278.94 L34.33,2279.33 L34.2,2279.7 L33.82,2280.09 L33.69,2280.46 L33.46,2279.75 L33.84,2279.37 L33.85,2278.64 L34.23,2278.26 L34.85,2277.85 L34.56,2277.33 L34.43,2277.7 L34.05,2278.09 L33.67,2278.48 L33.87,2277.92 L34.06,2277.37 L33.84,2276.66 L33.7,2277.03 L33.9,2276.48 L33.92,2275.75 L34.28,2276.09 L34.33,2276.63 L34.59,2275.89 L34.54,2275.35 L34.98,2274.77 L34.68,2274.25 L35.36,2274.39" fill="none" stroke="black" stroke-width="0.6" /><path d="M35.18,2274.22 L35.47,2274.74" fill="none" stroke="black" stroke-width="0.6" /><path d="M35.72,2274.72 L35.16,2274.94" fill="none" stroke="black" stroke-width="0.6" /><path d="M34.98,2274.77 L34.85,2275.15 L35.21,2275.48 L35.01,2276.04 L34.82,2276.59 L34.44,2276.98 L35.11,2277.11" fill="none" stroke="black" stroke-width="0.6" /><path d="M34.93,2276.94 L35.13,2276.39 L35.57,2275.82 L35.52,2275.28 L35.78,2274.54 L35.8,2273.81 L35.75,2273.28 L35.94,2272.72 L35.96,2272.0 L36.4,2271.42 L36.2,2271.98 L36.25,2272.52 L36.12,2272.89 L36.56,2272.32 L36.51,2271.78 L36.53,2271.05 L35.97,2271.27" fill="none" stroke="black" stroke-width="0.6" /><path d="M35.8,2271.11 L35.91,2271.46" fill="none" stroke="black" stroke-width="0.6" /><path d="M36.15,2271.44 L35.6,2271.66" fill="none" stroke="black" stroke-width="0.6" /><path d="M35.42,2271.5 L35.53,2271.85" fill="none" stroke="black" stroke-width="0.6" /><path d="M35.78,2271.83 L35.65,2272.2 L35.35,2271.68 L35.06,2271.16 L35.08,2270.44 L35.37,2270.96" fill="none" stroke="black" stroke-width="0.6" /><path d="M35.62,2270.94 L35.66,2271.48 L35.68,2270.75 L36.35,2270.89" fill="none" stroke="black" stroke-width="0.6" /><path d="M36.17,2270.72 L36.73,2270.5 L36.24,2270.53 L36.5,2269.79 L36.76,2269.05 L36.81,2269.59 L36.68,2269.96 L37.17,2269.93 L37.43,2269.18 L37.69,2268.44 L37.98,2268.96" fill="none" stroke="black" stroke-width="0.6" /><path d="M38.23,2268.95 L37.85,2269.33 L37.72,2269.71 L37.59,2270.08 L37.28,2270.28" fill="none" stroke="black" stroke-width="0.6" /><path d="M37.1,2270.11 L37.15,2270.65 L36.78,2271.04 L37.07,2271.56" fill="none" stroke="black" stroke-width="0.6" /><path d="M37.32,2271.54 L36.76,2271.76" fill="none" stroke="black" stroke-width="0.6" /><path d="M36.58,2271.59 L36.63,2272.13 L36.92,2272.65" fill="none" stroke="black" stroke-width="0.6" /><path d="M37.17,2272.63 L36.61,2272.85" fill="none" stroke="black" stroke-width="0.6" /><path d="M36.43,2272.69 L36.55,2273.04" fill="none" stroke="black" stroke-width="0.6" /><path d="M36.79,2273.02 L37.23,2272.45 L37.59,2272.78 L38.08,2272.75 L38.46,2272.36 L38.9,2271.79 L38.92,2271.06 L39.54,2270.66 L39.8,2269.91 L39.63,2269.02 L39.44,2269.58 L39.31,2269.95 L38.93,2270.34 L38.56,2270.73 L38.61,2271.27 L38.48,2271.64 L38.28,2272.19 L37.79,2272.23 L37.99,2271.67 L38.0,2270.95 L37.69,2271.15" fill="none" stroke="black" stroke-width="0.6" /><path d="M37.51,2270.98 L37.63,2271.34" fill="none" stroke="black" stroke-width="0.6" /><path d="M37.87,2271.32 L37.74,2271.69 L37.36,2272.08 L36.99,2272.47 L37.25,2271.72 L37.45,2271.17 L37.46,2270.45 L37.84,2270.06 L38.28,2269.48 L38.54,2268.74 L38.73,2268.19 L38.75,2267.46 L39.04,2267.98" fill="none" stroke="black" stroke-width="0.6" /><path d="M39.29,2267.97 L38.91,2268.36 L38.72,2268.91 L38.59,2269.28 L38.21,2269.67 L38.26,2270.21 L39.06,2269.97 L38.77,2269.45 L38.96,2268.89 L39.34,2268.5 L39.53,2267.95 L39.0,2267.45 L38.77,2266.74 L39.19,2266.89" fill="none" stroke="black" stroke-width="0.6" /><path d="M39.01,2266.72 L39.37,2267.06 L39.42,2267.6 L39.62,2267.04 L39.39,2266.34 L38.59,2266.57" fill="none" stroke="black" stroke-width="0.6" /><path d="M38.41,2266.41 L38.52,2266.76" fill="none" stroke="black" stroke-width="0.6" /><path d="M38.77,2266.74 L38.82,2267.28 L38.69,2267.65 L38.46,2266.94 L38.08,2267.33 L38.38,2267.85" fill="none" stroke="black" stroke-width="0.6" /><path d="M38.62,2267.84 L38.07,2268.06" fill="none" stroke="black" stroke-width="0.6" /><path d="M37.89,2267.89 L38.49,2268.21 L38.0,2268.24 L38.02,2267.52 L37.46,2267.74" fill="none" stroke="black" stroke-width="0.6" /><path d="M37.28,2267.57 L37.33,2268.11 L37.38,2268.65 L37.09,2268.13 L36.78,2268.33" fill="none" stroke="black" stroke-width="0.6" /><path d="M36.6,2268.16 L36.46,2268.53 L36.27,2269.09 L35.89,2269.48 L35.94,2270.01 L35.39,2270.23" fill="none" stroke="black" stroke-width="0.6" /><path d="M35.21,2270.07 L34.83,2270.45 L35.12,2270.97" fill="none" stroke="black" stroke-width="0.6" /><path d="M35.37,2270.96 L34.88,2270.99 L34.45,2270.84" fill="none" stroke="black" stroke-width="0.6" /><path d="M34.7,2270.82 L34.57,2271.19 L34.08,2271.23 L34.44,2271.57 L34.06,2271.95 L34.11,2272.49 L33.98,2272.86 L34.28,2273.38" fill="none" stroke="black" stroke-width="0.6" /><path d="M34.52,2273.36 L33.96,2273.58" fill="none" stroke="black" stroke-width="0.6" /><path d="M33.78,2273.42 L34.14,2273.75 L34.34,2273.2 L34.36,2272.47 L34.85,2272.44 L34.31,2271.94 L34.75,2271.36 L35.11,2271.7 L34.98,2272.07 L35.27,2272.59" fill="none" stroke="black" stroke-width="0.6" /><path d="M35.52,2272.57 L35.39,2272.94 L35.44,2273.48 L35.31,2273.85 L34.95,2273.51 L35.14,2272.96 L34.72,2272.81" fill="none" stroke="black" stroke-width="0.6" /><path d="M34.96,2272.79 L34.47,2272.83 L34.77,2273.35" fill="none" stroke="black" stroke-width="0.6" /><path d="M35.01,2273.33 L34.46,2273.55" fill="none" stroke="black" stroke-width="0.6" /><path d="M34.28,2273.38 L34.64,2273.72 L34.5,2274.09 L34.01,2274.12 L33.88,2274.49 L33.9,2273.77 L33.67,2273.06 L33.54,2273.43 L33.34,2273.99 L33.21,2274.36 L32.66,2274.58" fill="none" stroke="black" stroke-width="0.6" /><path d="M32.48,2274.41 L32.92,2273.84 L33.54,2273.43 L33.31,2272.73 L33.69,2272.34 L34.13,2271.77 L33.82,2271.97" fill="none" stroke="black" stroke-width="0.6" /><path d="M33.64,2271.8 L33.69,2272.34 L33.38,2272.54" fill="none" stroke="black" stroke-width="0.6" /><path d="M33.2,2272.38 L33.24,2272.91 L33.11,2273.28 L32.8,2273.49" fill="none" stroke="black" stroke-width="0.6" /><path d="M32.62,2273.32 L32.67,2273.86 L32.36,2274.06" fill="none" stroke="black" stroke-width="0.6" /><path d="M32.18,2273.89 L32.23,2274.43 L32.34,2274.78" fill="none" stroke="black" stroke-width="0.6" /><path d="M32.59,2274.76 L32.46,2275.13 L32.51,2275.67 L32.28,2274.97 L31.8,2274.28 L31.67,2274.65 L31.97,2275.17" fill="none" stroke="black" stroke-width="0.6" /><path d="M32.21,2275.15 L31.84,2275.54 L32.13,2276.06" fill="none" stroke="black" stroke-width="0.6" /><path d="M32.38,2276.04 L32.0,2276.43 L31.44,2276.65" fill="none" stroke="black" stroke-width="0.6" /><path d="M31.26,2276.48 L31.62,2276.82 L32.43,2276.58 L32.2,2275.87 L32.75,2275.65 L32.77,2274.93 L33.33,2274.71 L33.2,2275.08 L33.0,2275.64 L32.62,2276.02 L32.67,2276.56 L32.54,2276.93 L32.59,2277.47 L32.46,2277.84 L32.66,2277.29 L33.1,2276.71 L32.8,2276.19 L33.16,2276.53 L33.36,2275.97 L33.62,2275.23 L34.06,2274.66 L34.44,2274.27 L34.31,2274.64 L34.36,2275.18 L34.05,2275.38" fill="none" stroke="black" stroke-width="0.6" /><path d="M33.87,2275.21 L33.67,2275.77 L33.54,2276.14 L33.41,2276.51 L33.28,2276.88 L33.82,2277.38 L33.69,2277.75 L33.15,2277.25 L33.2,2277.79 L32.82,2278.18 L32.94,2278.53" fill="none" stroke="black" stroke-width="0.6" /><path d="M33.18,2278.51 L32.81,2278.9 L32.92,2279.25" fill="none" stroke="black" stroke-width="0.6" /><path d="M33.17,2279.23 L32.86,2279.44" fill="none" stroke="black" stroke-width="0.6" /><path d="M32.67,2279.27 L32.54,2279.64 L32.59,2280.18 L32.46,2280.55 L32.17,2280.03 L32.36,2279.47 L32.74,2279.08 L32.69,2278.55 L32.31,2278.93 L32.36,2279.47 L31.99,2279.86 L32.0,2279.14 L32.2,2278.58 L32.15,2278.04 L32.17,2277.32 L32.36,2276.76 L32.05,2276.97" fill="none" stroke="black" stroke-width="0.6" /><path d="M31.87,2276.8 L31.92,2277.34 L31.97,2277.87 L31.36,2277.56" fill="none" stroke="black" stroke-width="0.6" /><path d="M31.61,2277.54 L31.8,2276.98 L31.49,2277.19" fill="none" stroke="black" stroke-width="0.6" /><path d="M31.31,2277.02 L31.18,2277.39 L31.3,2277.74" fill="none" stroke="black" stroke-width="0.6" /><path d="M31.54,2277.72 L31.17,2278.11 L31.22,2278.65 L30.84,2279.04 L31.2,2279.37 L31.22,2278.65 L31.41,2278.09 L31.77,2278.43 L31.64,2278.8 L31.76,2279.15" fill="none" stroke="black" stroke-width="0.6" /><path d="M32.0,2279.14 L31.81,2279.69 L31.5,2279.89" fill="none" stroke="black" stroke-width="0.6" /><path d="M31.31,2279.72 L31.12,2280.28 L30.99,2280.65 L30.61,2281.04 L30.23,2281.42 L29.92,2281.63" fill="none" stroke="black" stroke-width="0.6" /><path d="M29.74,2281.46 L29.79,2282.0 L29.3,2282.03 L29.5,2281.47 L29.45,2280.94 L29.64,2280.38 L29.1,2279.88 L28.97,2280.25 L29.33,2280.58 L29.2,2280.95 L28.66,2280.45 L28.68,2279.73 L28.87,2279.17 L28.92,2279.71 L29.59,2279.84" fill="none" stroke="black" stroke-width="0.6" /><path d="M29.41,2279.68 L30.22,2279.44 L29.84,2279.83 L29.64,2280.38 L29.51,2280.75 L29.56,2281.29 L30.12,2281.07 L30.5,2280.68 L30.0,2280.72 L30.2,2280.16 L30.82,2279.76 L30.45,2280.15 L31.0,2279.93 L30.71,2279.41 L30.28,2279.26" fill="none" stroke="black" stroke-width="0.6" /><path d="M30.53,2279.24 L30.72,2278.68 L30.99,2277.94 L30.43,2278.16" fill="none" stroke="black" stroke-width="0.6" /><path d="M30.25,2277.99 L30.61,2278.33 L30.23,2278.72 L29.92,2278.92" fill="none" stroke="black" stroke-width="0.6" /><path d="M29.74,2278.75 L29.79,2279.29 L29.74,2278.75 L29.94,2278.2 L30.13,2277.64 L30.76,2277.24 L31.38,2276.83 L31.82,2276.26 L31.59,2275.56 L31.46,2275.93 L31.1,2275.59 L30.97,2275.96 L30.41,2276.18" fill="none" stroke="black" stroke-width="0.6" /><path d="M30.23,2276.01 L30.53,2276.53" fill="none" stroke="black" stroke-width="0.6" /><path d="M30.77,2276.51 L30.64,2276.88 L30.27,2277.27 L29.95,2277.47" fill="none" stroke="black" stroke-width="0.6" /><path d="M29.77,2277.31 L29.58,2277.86 L29.2,2278.25 L29.25,2278.79 L28.69,2279.0" fill="none" stroke="black" stroke-width="0.6" /><path d="M28.51,2278.84 L28.56,2279.37 L28.18,2279.76 L28.54,2280.1 L28.66,2280.45" fill="none" stroke="black" stroke-width="0.6" /><path d="M28.91,2280.43 L28.53,2280.82 L28.58,2281.36 L28.45,2281.73 L28.5,2282.27 L28.69,2281.71 L28.89,2281.16 L28.94,2281.69 L29.05,2282.05" fill="none" stroke="black" stroke-width="0.6" /><path d="M29.3,2282.03 L28.92,2282.42 L28.97,2282.95 L28.66,2283.16" fill="none" stroke="black" stroke-width="0.6" /><path d="M28.48,2282.99 L28.53,2283.53 L28.83,2284.05" fill="none" stroke="black" stroke-width="0.6" /><path d="M29.07,2284.03 L28.94,2284.4 L28.81,2284.77 L28.93,2285.12" fill="none" stroke="black" stroke-width="0.6" /><path d="M29.17,2285.11 L28.79,2285.49 L29.35,2285.27 L29.06,2284.75 L29.25,2284.2 L28.96,2283.68 L28.97,2282.95 L29.51,2283.46 L29.38,2283.83 L29.83,2283.26 L29.6,2282.55 L30.04,2281.98 L30.46,2282.13" fill="none" stroke="black" stroke-width="0.6" /><path d="M30.28,2281.96 L30.33,2282.5 L29.96,2282.89 L30.63,2283.02" fill="none" stroke="black" stroke-width="0.6" /><path d="M30.45,2282.85 L30.74,2283.37" fill="none" stroke="black" stroke-width="0.6" /><path d="M30.99,2283.36 L30.86,2283.73 L31.06,2283.17 L30.7,2282.84 L30.71,2282.11 L30.66,2281.57 L31.04,2281.19 L31.3,2280.45 L31.92,2280.04 L32.22,2280.56" fill="none" stroke="black" stroke-width="0.6" /><path d="M32.46,2280.55 L31.91,2280.77" fill="none" stroke="black" stroke-width="0.6" /><path d="M31.73,2280.6 L32.15,2280.75" fill="none" stroke="black" stroke-width="0.6" /><path d="M31.97,2280.58 L31.84,2280.95 L31.48,2280.62 L31.35,2280.99 L31.46,2281.34" fill="none" stroke="black" stroke-width="0.6" /><path d="M31.71,2281.32 L31.28,2281.17" fill="none" stroke="black" stroke-width="0.6" /><path d="M31.53,2281.15 L30.97,2281.37" fill="none" stroke="black" stroke-width="0.6" /><path d="M30.79,2281.2 L30.84,2281.74 L30.89,2282.28 L31.56,2282.41" fill="none" stroke="black" stroke-width="0.6" /><path d="M31.38,2282.25 L31.09,2281.73 L31.58,2281.69 L31.69,2282.04" fill="none" stroke="black" stroke-width="0.6" /><path d="M31.94,2282.03 L31.74,2282.58 L31.37,2282.97 L31.24,2283.34 L31.29,2283.88 L30.98,2284.08" fill="none" stroke="black" stroke-width="0.6" /><path d="M30.79,2283.91 L30.91,2284.26" fill="none" stroke="black" stroke-width="0.6" /><path d="M31.16,2284.25 L30.6,2284.47" fill="none" stroke="black" stroke-width="0.6" /><path d="M30.42,2284.3 L30.29,2284.67 L30.16,2285.04 L30.21,2285.58 L30.08,2285.95 L30.13,2286.48 L30.0,2286.85 L30.37,2286.47 L30.14,2285.76 L30.4,2285.02 L30.52,2285.37" fill="none" stroke="black" stroke-width="0.6" /><path d="M30.76,2285.36 L30.39,2285.74 L30.68,2286.26" fill="none" stroke="black" stroke-width="0.6" /><path d="M30.93,2286.25 L30.55,2286.63 L30.6,2287.17 L30.47,2287.54 L30.11,2287.21 L29.98,2287.58 L29.6,2287.96 L29.47,2288.33 L28.91,2288.55" fill="none" stroke="black" stroke-width="0.6" /><path d="M28.73,2288.38 L29.1,2288.72 L28.9,2289.27 L28.77,2289.64 L28.82,2290.18 L28.52,2289.66 L28.78,2288.92 L28.98,2288.37 L28.99,2287.64 L29.29,2288.16" fill="none" stroke="black" stroke-width="0.6" /><path d="M29.54,2288.15 L29.73,2287.59 L29.37,2287.26 L28.94,2287.11" fill="none" stroke="black" stroke-width="0.6" /><path d="M29.19,2287.09 L28.81,2287.48 L28.68,2287.85 L28.73,2288.38 L28.6,2288.75 L28.47,2289.12 L28.34,2289.49 L28.21,2289.86 L28.51,2290.38" fill="none" stroke="black" stroke-width="0.6" /><path d="M28.75,2290.37 L28.38,2290.75 L27.88,2290.79 L27.32,2291.01" fill="none" stroke="black" stroke-width="0.6" /><path d="M27.14,2290.84 L27.51,2291.17 L27.13,2291.56 L27.14,2290.84 L26.77,2291.22 L26.64,2291.59 L26.5,2291.96 L26.13,2292.35 L26.14,2291.63 L26.59,2291.06 L26.6,2290.33 L26.86,2289.59 L26.98,2289.95" fill="none" stroke="black" stroke-width="0.6" /><path d="M27.22,2289.93 L27.03,2290.48 L27.77,2290.43 L28.03,2289.69 L27.9,2290.06 L27.59,2290.27" fill="none" stroke="black" stroke-width="0.6" /><path d="M27.41,2290.1 L27.67,2289.36 L27.68,2288.64 L27.88,2288.08 L27.99,2288.43" fill="none" stroke="black" stroke-width="0.6" /><path d="M28.24,2288.42 L28.11,2288.79 L27.98,2289.16 L28.18,2288.6 L28.19,2287.88 L28.39,2287.32 L27.83,2287.54" fill="none" stroke="black" stroke-width="0.6" /><path d="M27.65,2287.38 L28.19,2287.88 L27.63,2288.1" fill="none" stroke="black" stroke-width="0.6" /><path d="M27.45,2287.93 L27.65,2287.38 L28.21,2287.16 L28.58,2286.77 L29.14,2286.55 L29.34,2286.0 L29.45,2286.35" fill="none" stroke="black" stroke-width="0.6" /><path d="M29.7,2286.33 L29.32,2286.72 L29.68,2287.06 L29.88,2286.5 L29.83,2285.96 L29.85,2285.24 L29.55,2284.72 L29.99,2284.15 L30.55,2283.93 L30.5,2283.39 L30.01,2283.42 L29.81,2283.98 L29.43,2284.37 L29.3,2284.74 L29.42,2285.09" fill="none" stroke="black" stroke-width="0.6" /><path d="M29.66,2285.07 L29.29,2285.46 L28.91,2285.85 L28.78,2286.22 L28.65,2286.59 L28.27,2286.97 L28.47,2286.42 L28.91,2285.85 L28.42,2285.88 L28.29,2286.25 L28.16,2286.62 L27.68,2285.93 L27.88,2285.38 L28.14,2284.64 L28.43,2285.16" fill="none" stroke="black" stroke-width="0.6" /><path d="M28.68,2285.14 L28.37,2285.34" fill="none" stroke="black" stroke-width="0.6" /><path d="M28.19,2285.17 L28.06,2285.54 L28.61,2285.32 L28.81,2284.77 L28.58,2284.06 L28.28,2283.54 L28.73,2282.97 L28.43,2282.45 L28.14,2281.93 L28.33,2281.37 L28.35,2280.65 L28.05,2280.13 L27.63,2279.98" fill="none" stroke="black" stroke-width="0.6" /><path d="M27.87,2279.96 L27.31,2280.18" fill="none" stroke="black" stroke-width="0.6" /><path d="M27.13,2280.01 L27.49,2280.35 L28.1,2280.67 L27.97,2281.04 L28.02,2281.58 L27.89,2281.95 L28.18,2282.47" fill="none" stroke="black" stroke-width="0.6" /><path d="M28.43,2282.45 L27.94,2282.48 L27.81,2282.85 L27.68,2283.22 L27.55,2283.59 L27.74,2283.04 L28.37,2282.64 L28.41,2283.17 L28.1,2283.37" fill="none" stroke="black" stroke-width="0.6" /><path d="M27.92,2283.21 L28.04,2283.56" fill="none" stroke="black" stroke-width="0.6" /><path d="M28.28,2283.54 L28.15,2283.91 L28.02,2284.28 L27.89,2284.65 L27.66,2283.95 L27.71,2284.48 L27.83,2284.84" fill="none" stroke="black" stroke-width="0.6" /><path d="M28.07,2284.82 L27.94,2285.19 L27.81,2285.56 L27.43,2285.95 L27.73,2286.47" fill="none" stroke="black" stroke-width="0.6" /><path d="M27.97,2286.45 L27.66,2286.65" fill="none" stroke="black" stroke-width="0.6" /><path d="M27.48,2286.48 L27.1,2286.87 L27.22,2287.22" fill="none" stroke="black" stroke-width="0.6" /><path d="M27.47,2287.21 L27.09,2287.59 L27.2,2287.95" fill="none" stroke="black" stroke-width="0.6" /><path d="M27.45,2287.93 L27.5,2288.47 L27.31,2289.02 L26.93,2289.41 L27.12,2288.85 L26.89,2288.15 L26.91,2287.43 L27.1,2286.87 L27.3,2286.32 L27.5,2285.76 L27.51,2285.04 L27.22,2284.52 L27.41,2283.96 L27.18,2283.26 L27.38,2282.7 L27.58,2282.15 L27.77,2281.59 L27.48,2281.07 L27.43,2280.53 L26.94,2280.57 L27.23,2281.09" fill="none" stroke="black" stroke-width="0.6" /><path d="M27.48,2281.07 L27.17,2281.27" fill="none" stroke="black" stroke-width="0.6" /><path d="M26.99,2281.11 L27.35,2281.44 L27.4,2281.98 L26.66,2282.03 L26.86,2281.48 L26.49,2281.14 L26.12,2281.53 L26.41,2282.05" fill="none" stroke="black" stroke-width="0.6" /><path d="M26.66,2282.03 L26.71,2282.57 L26.4,2282.77" fill="none" stroke="black" stroke-width="0.6" /><path d="M26.22,2282.6 L26.02,2283.16 L25.64,2283.54 L26.0,2283.88 L25.87,2284.25 L26.23,2284.58 L26.1,2284.95 L25.97,2285.32 L25.77,2285.88 L25.64,2286.25 L25.69,2286.79 L25.38,2286.99" fill="none" stroke="black" stroke-width="0.6" /><path d="M25.2,2286.82 L24.82,2287.21 L24.84,2286.48 L24.34,2286.52 L24.03,2286.72" fill="none" stroke="black" stroke-width="0.6" /><path d="M23.85,2286.55 L24.39,2287.05 L23.9,2287.09 L23.85,2286.55 L23.18,2286.41 L23.62,2285.84 L23.88,2285.1 L23.39,2285.14 L23.41,2284.41 L23.85,2283.84 L23.9,2284.38 L23.77,2284.75 L24.21,2284.18 L24.33,2284.53" fill="none" stroke="black" stroke-width="0.6" /><path d="M24.57,2284.52 L24.44,2284.89 L24.31,2285.26 L23.93,2285.64 L23.98,2286.18 L24.43,2285.61 L24.62,2285.05 L24.39,2284.35 L24.66,2283.61 L24.71,2284.15 L25.07,2284.48 L24.94,2284.85 L24.8,2285.22 L24.85,2285.76 L25.21,2286.1 L25.08,2286.47 L25.71,2286.06 L25.72,2285.34 L25.92,2284.79 L25.61,2284.99" fill="none" stroke="black" stroke-width="0.6" /><path d="M25.43,2284.82 L25.48,2285.36 L25.35,2285.73 L24.74,2285.41" fill="none" stroke="black" stroke-width="0.6" /><path d="M24.98,2285.39 L25.18,2284.84 L25.62,2284.26 L25.64,2283.54 L25.84,2282.99 L26.03,2282.43 L25.8,2281.73 L25.85,2282.26 L25.54,2282.47" fill="none" stroke="black" stroke-width="0.6" /><path d="M25.36,2282.3 L25.48,2282.65" fill="none" stroke="black" stroke-width="0.6" /><path d="M25.72,2282.63 L25.35,2283.02 L25.39,2283.56 L25.26,2283.93 L25.13,2284.3 L24.9,2283.59 L25.1,2283.04 L24.61,2283.07 L24.05,2283.29" fill="none" stroke="black" stroke-width="0.6" /><path d="M23.87,2283.12 L24.23,2283.46 L23.67,2283.67" fill="none" stroke="black" stroke-width="0.6" /><path d="M23.49,2283.51 L23.54,2284.04 L23.16,2284.43 L23.46,2284.95" fill="none" stroke="black" stroke-width="0.6" /><path d="M23.7,2284.93 L23.39,2285.14" fill="none" stroke="black" stroke-width="0.6" /><path d="M23.21,2284.97 L23.08,2285.34 L23.69,2285.66 L23.19,2285.69 L23.0,2286.24 L22.77,2285.54 L23.21,2284.97 L22.98,2284.26 L22.6,2284.65 L22.65,2285.19 L22.52,2285.55 L22.57,2286.09 L22.19,2286.48 L22.06,2286.85 L22.44,2286.46 L22.8,2286.8 L22.42,2287.18 L22.06,2286.85 L22.08,2286.13 L22.27,2285.57 L22.29,2284.85 L22.16,2285.22 L21.85,2285.42" fill="none" stroke="black" stroke-width="0.6" /><path d="M21.67,2285.25 L21.71,2285.79 L21.83,2286.14" fill="none" stroke="black" stroke-width="0.6" /><path d="M22.08,2286.13 L21.76,2286.33" fill="none" stroke="black" stroke-width="0.6" /><path d="M21.58,2286.16 L21.45,2286.53 L21.81,2286.86 L21.68,2287.23 L21.73,2287.77 L21.17,2287.99" fill="none" stroke="black" stroke-width="0.6" /><path d="M20.99,2287.82 L21.37,2287.43 L20.99,2287.82 L21.19,2287.27 L20.96,2286.56 L21.58,2286.16 L21.27,2286.36" fill="none" stroke="black" stroke-width="0.6" /><path d="M21.09,2286.19 L20.6,2286.22 L20.46,2286.59 L19.97,2286.62 L19.54,2286.47" fill="none" stroke="black" stroke-width="0.6" /><path d="M19.79,2286.46 L19.66,2286.82 L19.53,2287.19 L19.39,2287.56 L19.03,2287.23 L18.9,2287.6 L18.52,2287.98 L18.21,2288.18" fill="none" stroke="black" stroke-width="0.6" /><path d="M18.03,2288.01 L17.98,2287.47 L18.47,2287.44 L18.92,2286.87 L18.31,2286.55" fill="none" stroke="black" stroke-width="0.6" /><path d="M18.56,2286.54 L18.18,2286.92 L17.87,2287.12" fill="none" stroke="black" stroke-width="0.6" /><path d="M17.68,2286.95 L17.32,2286.62 L17.37,2287.15 L17.06,2287.35" fill="none" stroke="black" stroke-width="0.6" /><path d="M16.88,2287.18 L16.75,2287.55 L16.61,2287.92 L16.56,2287.39 L16.58,2286.66 L16.27,2286.86" fill="none" stroke="black" stroke-width="0.6" /><path d="M16.09,2286.69 L16.2,2287.05" fill="none" stroke="black" stroke-width="0.6" /><path d="M16.45,2287.03 L16.32,2287.4 L15.94,2287.79 L15.96,2287.06 L15.4,2287.28" fill="none" stroke="black" stroke-width="0.6" /><path d="M15.22,2287.11 L15.51,2287.63" fill="none" stroke="black" stroke-width="0.6" /><path d="M15.76,2287.62 L15.2,2287.83" fill="none" stroke="black" stroke-width="0.6" /><path d="M15.02,2287.66 L14.88,2288.03 L15.15,2287.29 L14.59,2287.51" fill="none" stroke="black" stroke-width="0.6" /><path d="M14.41,2287.34 L13.85,2287.56" fill="none" stroke="black" stroke-width="0.6" /><path d="M13.67,2287.39 L13.78,2287.74" fill="none" stroke="black" stroke-width="0.6" /><path d="M14.03,2287.73 L14.39,2288.06 L14.26,2288.43 L13.76,2288.46 L13.47,2287.94 L13.34,2288.31 L12.84,2288.34 L12.35,2288.37 L12.64,2288.9" fill="none" stroke="black" stroke-width="0.6" /><path d="M12.89,2288.88 L13.57,2289.02" fill="none" stroke="black" stroke-width="0.6" /><path d="M13.38,2288.85 L13.99,2289.17 L14.55,2288.96 L15.0,2288.39 L15.44,2287.82 L15.49,2288.36 L15.11,2288.74 L14.74,2289.12 L15.36,2288.72 L15.81,2288.15 L16.17,2288.49 L16.28,2288.85" fill="none" stroke="black" stroke-width="0.6" /><path d="M16.53,2288.83 L15.97,2289.05" fill="none" stroke="black" stroke-width="0.6" /><path d="M15.79,2288.88 L15.41,2289.26 L16.15,2289.22 L16.42,2288.48 L16.79,2288.09 L17.42,2287.69 L17.85,2287.84" fill="none" stroke="black" stroke-width="0.6" /><path d="M17.67,2287.68 L17.47,2288.23 L17.16,2288.43" fill="none" stroke="black" stroke-width="0.6" /><path d="M16.98,2288.26 L16.84,2288.63 L16.71,2289.0 L17.52,2288.77 L17.5,2289.49 L18.0,2289.46 L18.26,2288.72 L18.37,2289.07" fill="none" stroke="black" stroke-width="0.6" /><path d="M18.62,2289.06 L19.23,2289.38 L19.25,2288.66 L18.87,2289.04 L18.64,2288.33 L19.38,2288.29 L19.74,2288.62 L19.43,2288.82" fill="none" stroke="black" stroke-width="0.6" /><path d="M19.25,2288.66 L19.54,2289.18" fill="none" stroke="black" stroke-width="0.6" /><path d="M19.79,2289.16 L19.48,2289.36" fill="none" stroke="black" stroke-width="0.6" /><path d="M19.3,2289.19 L19.92,2288.79 L19.97,2289.33 L20.17,2288.78 L19.87,2288.25 L19.58,2287.73 L19.77,2287.18 L19.89,2287.53" fill="none" stroke="black" stroke-width="0.6" /><path d="M20.14,2287.52 L20.33,2286.96 L20.71,2286.58 L21.07,2286.91 L20.94,2287.28 L20.63,2287.48" fill="none" stroke="black" stroke-width="0.6" /><path d="M20.45,2287.31 L20.5,2287.85 L20.12,2288.24 L20.73,2288.56 L20.17,2288.78" fill="none" stroke="black" stroke-width="0.6" /><path d="M19.99,2288.61 L20.35,2288.94 L20.4,2289.48 L20.84,2288.91 L20.79,2288.37 L21.35,2288.16 L21.71,2288.49 L21.27,2289.06 L21.14,2289.43 L21.76,2289.03 L22.06,2289.55" fill="none" stroke="black" stroke-width="0.6" /><path d="M22.31,2289.54 L21.81,2289.57 L21.68,2289.94 L22.04,2290.28 L22.31,2289.54 L22.08,2288.83 L22.45,2288.45 L22.5,2288.98 L22.62,2289.34" fill="none" stroke="black" stroke-width="0.6" /><path d="M22.87,2289.32 L23.23,2289.66 L22.67,2289.87" fill="none" stroke="black" stroke-width="0.6" /><path d="M22.49,2289.71 L22.78,2290.23" fill="none" stroke="black" stroke-width="0.6" /><path d="M23.03,2290.21 L22.47,2290.43" fill="none" stroke="black" stroke-width="0.6" /><path d="M22.29,2290.26 L22.59,2290.78" fill="none" stroke="black" stroke-width="0.6" /><path d="M22.83,2290.77 L22.85,2290.04 L23.41,2289.83 L23.11,2289.3 L23.31,2288.75 L23.33,2288.03 L23.19,2288.4 L22.52,2288.26 L21.96,2288.48" fill="none" stroke="black" stroke-width="0.6" /><path d="M21.78,2288.31 L22.22,2287.74 L22.59,2288.08 L22.85,2287.34 L22.87,2286.61 L23.47,2286.93 L23.28,2287.49 L24.02,2287.44 L23.82,2287.99 L23.87,2288.53 L23.56,2288.73" fill="none" stroke="black" stroke-width="0.6" /><path d="M23.38,2288.56 L23.43,2289.1 L23.79,2289.44 L23.98,2288.89 L24.18,2288.33 L24.2,2287.61 L24.87,2287.74" fill="none" stroke="black" stroke-width="0.6" /><path d="M24.69,2287.58 L25.18,2287.54 L25.63,2286.97 L26.0,2286.58 L26.27,2285.85 L26.28,2285.12 L26.73,2284.55 L26.12,2284.23" fill="none" stroke="black" stroke-width="0.6" /><path d="M26.36,2284.21 L26.13,2283.51 L26.43,2284.03" fill="none" stroke="black" stroke-width="0.6" /><path d="M26.68,2284.01 L26.87,2283.46 L26.58,2282.94 L27.02,2282.37 L27.13,2282.72" fill="none" stroke="black" stroke-width="0.6" /><path d="M27.38,2282.7 L27.0,2283.09 L26.87,2283.46 L27.17,2283.98" fill="none" stroke="black" stroke-width="0.6" /><path d="M27.41,2283.96 L26.92,2284.0 L26.79,2284.37 L27.09,2284.89" fill="none" stroke="black" stroke-width="0.6" /><path d="M27.33,2284.87 L27.2,2285.24 L27.25,2285.78 L26.87,2286.16 L26.74,2286.53 L26.55,2287.09 L26.6,2287.63 L26.4,2288.18 L26.52,2288.53" fill="none" stroke="black" stroke-width="0.6" /><path d="M26.76,2288.52 L26.63,2288.89 L26.33,2288.37 L26.35,2287.64 L25.79,2287.86" fill="none" stroke="black" stroke-width="0.6" /><path d="M25.61,2287.69 L25.97,2288.03 L26.02,2288.57 L26.07,2289.11 L26.57,2289.07 L26.62,2289.61 L26.19,2289.46" fill="none" stroke="black" stroke-width="0.6" /><path d="M26.43,2289.44 L26.12,2289.64" fill="none" stroke="black" stroke-width="0.6" /><path d="M25.94,2289.48 L25.81,2289.85 L26.48,2289.98" fill="none" stroke="black" stroke-width="0.6" /><path d="M26.3,2289.81 L26.35,2290.35 L26.4,2290.89 L26.27,2291.26 L26.04,2290.55 L25.73,2290.75" fill="none" stroke="black" stroke-width="0.6" /><path d="M25.55,2290.58 L25.66,2290.94" fill="none" stroke="black" stroke-width="0.6" /><path d="M25.91,2290.92 L25.53,2291.31 L25.9,2291.64 L25.95,2292.18 L25.65,2291.66 L25.27,2292.05 L24.89,2292.43 L25.09,2291.88 L25.11,2291.16 L25.55,2290.58 L25.56,2289.86 L25.83,2289.12 L25.78,2288.58 L25.55,2287.88 L25.99,2287.31 L26.37,2286.92 L26.81,2286.35 L26.82,2285.63 L27.02,2285.07 L26.46,2285.29" fill="none" stroke="black" stroke-width="0.6" /><path d="M26.28,2285.12 L26.64,2285.46 L26.51,2285.83 L26.32,2286.38 L25.94,2286.77 L25.74,2287.32 L25.36,2287.71 L25.41,2288.25 L25.46,2288.79 L25.17,2288.26 L24.86,2288.47" fill="none" stroke="black" stroke-width="0.6" /><path d="M24.67,2288.3 L24.79,2288.65" fill="none" stroke="black" stroke-width="0.6" /><path d="M25.04,2288.63 L24.84,2289.19 L25.4,2288.97 L25.02,2289.36 L24.64,2289.74 L24.69,2290.28 L24.81,2290.63" fill="none" stroke="black" stroke-width="0.6" /><path d="M25.05,2290.62 L25.0,2290.08 L25.45,2289.51 L25.32,2289.88 L25.37,2290.42 L24.99,2290.8 L25.04,2291.34 L24.74,2290.82 L24.31,2290.67" fill="none" stroke="black" stroke-width="0.6" /><path d="M24.56,2290.65 L24.33,2289.94 L24.53,2289.39 L24.48,2288.85 L24.1,2289.24 L24.22,2289.59" fill="none" stroke="black" stroke-width="0.6" /><path d="M24.46,2289.57 L24.08,2289.96 L23.52,2290.18" fill="none" stroke="black" stroke-width="0.6" /><path d="M23.34,2290.01 L23.46,2290.36" fill="none" stroke="black" stroke-width="0.6" /><path d="M23.71,2290.35 L23.39,2290.55" fill="none" stroke="black" stroke-width="0.6" /><path d="M23.21,2290.38 L23.02,2290.93 L23.69,2291.07" fill="none" stroke="black" stroke-width="0.6" /><path d="M23.51,2290.9 L23.56,2291.44 L23.61,2291.98 L23.72,2292.33" fill="none" stroke="black" stroke-width="0.6" /><path d="M23.97,2292.31 L23.74,2291.61 L23.69,2291.07 L23.71,2290.35 L24.07,2290.68 L24.43,2291.02 L24.79,2291.36 L24.66,2291.73 L24.53,2292.1 L24.48,2291.56 L23.94,2291.05 L23.99,2291.59 L24.1,2291.94" fill="none" stroke="black" stroke-width="0.6" /><path d="M24.35,2291.93 L23.97,2292.31 L24.09,2292.67" fill="none" stroke="black" stroke-width="0.6" /><path d="M24.33,2292.65 L24.38,2293.19 L24.4,2292.47 L24.76,2292.8 L25.06,2293.32" fill="none" stroke="black" stroke-width="0.6" /><path d="M25.31,2293.31 L24.81,2293.34 L25.11,2293.86" fill="none" stroke="black" stroke-width="0.6" /><path d="M25.36,2293.84 L25.12,2293.14 L25.32,2292.58 L25.44,2292.94" fill="none" stroke="black" stroke-width="0.6" /><path d="M25.68,2292.92 L25.98,2293.44" fill="none" stroke="black" stroke-width="0.6" /><path d="M26.23,2293.43 L25.93,2292.9 L26.37,2292.33 L26.42,2292.87 L26.62,2292.32 L26.82,2291.76 L26.87,2292.3 L26.74,2292.67 L26.54,2293.22 L26.16,2293.61 L25.6,2293.83" fill="none" stroke="black" stroke-width="0.6" /><path d="M25.42,2293.66 L25.47,2294.2 L26.28,2293.96 L26.33,2294.5 L25.95,2294.89 L26.56,2295.21 L26.94,2294.82 L27.56,2294.42 L27.68,2294.77" fill="none" stroke="black" stroke-width="0.6" /><path d="M27.93,2294.75 L27.37,2294.97" fill="none" stroke="black" stroke-width="0.6" /><path d="M27.19,2294.8 L26.99,2295.36 L27.22,2296.06 L27.52,2296.59" fill="none" stroke="black" stroke-width="0.6" /><path d="M27.77,2296.57 L27.57,2297.12 L27.87,2297.64" fill="none" stroke="black" stroke-width="0.6" /><path d="M28.12,2297.63 L28.1,2298.35 L28.4,2298.87" fill="none" stroke="black" stroke-width="0.6" /><path d="M28.65,2298.85 L28.66,2298.13 L29.02,2298.47 L29.08,2299.0 L28.88,2299.56 L28.93,2300.1 L29.37,2299.53 L29.57,2298.97 L29.52,2298.43 L29.28,2297.73 L29.23,2297.19 L29.49,2296.45 L29.12,2296.84 L28.74,2297.22 L28.86,2297.58" fill="none" stroke="black" stroke-width="0.6" /><path d="M29.1,2297.56 L28.97,2297.93 L28.41,2298.15" fill="none" stroke="black" stroke-width="0.6" /><path d="M28.23,2297.98 L28.49,2297.24 L28.94,2296.67 L28.95,2295.95 L29.33,2295.56 L29.7,2295.17 L29.39,2295.37" fill="none" stroke="black" stroke-width="0.6" /><path d="M29.21,2295.21 L29.08,2295.58 L28.7,2295.96 L28.57,2296.33 L28.01,2296.55" fill="none" stroke="black" stroke-width="0.6" /><path d="M27.83,2296.38 L27.95,2296.74" fill="none" stroke="black" stroke-width="0.6" /><path d="M28.19,2296.72 L28.06,2297.09 L27.77,2296.57 L28.14,2296.18 L28.22,2295.27 L27.85,2295.66 L27.86,2294.94 L28.54,2295.07" fill="none" stroke="black" stroke-width="0.6" /><path d="M28.35,2294.9 L28.55,2294.35 L28.93,2293.96 L28.94,2293.24 L28.81,2293.61 L28.68,2293.98 L28.55,2294.35 L28.56,2293.63 L28.51,2293.09 L28.38,2293.46 L28.25,2293.83 L27.76,2293.86 L27.2,2294.08" fill="none" stroke="black" stroke-width="0.6" /><path d="M27.02,2293.91 L27.13,2294.27" fill="none" stroke="black" stroke-width="0.6" /><path d="M27.38,2294.25 L26.89,2294.28 L26.69,2294.84 L26.46,2294.13 L26.66,2293.58 L27.03,2293.19 L27.05,2292.47 L27.31,2291.73 L27.43,2292.08" fill="none" stroke="black" stroke-width="0.6" /><path d="M27.67,2292.06 L27.29,2292.45 L27.35,2292.99 L26.97,2293.38 L26.84,2293.74 L27.51,2293.88" fill="none" stroke="black" stroke-width="0.6" /><path d="M27.33,2293.71 L27.53,2293.16 L27.54,2292.43 L27.98,2291.86 L28.0,2291.14 L28.74,2291.09 L29.0,2290.35 L29.05,2290.89 L28.67,2291.27 L28.12,2291.49" fill="none" stroke="black" stroke-width="0.6" /><path d="M27.93,2291.32 L28.3,2291.66 L27.92,2292.05 L27.97,2292.59 L27.84,2292.96 L27.71,2293.32 L28.15,2292.75 L28.17,2292.03 L28.59,2292.18" fill="none" stroke="black" stroke-width="0.6" /><path d="M28.41,2292.01 L28.53,2292.37" fill="none" stroke="black" stroke-width="0.6" /><path d="M28.77,2292.35 L28.4,2292.74 L29.02,2292.33 L28.79,2291.63 L29.41,2291.22 L29.61,2290.67 L29.66,2291.21 L30.22,2290.99 L30.59,2290.6 L30.79,2290.05 L30.99,2289.49 L30.49,2289.53 L29.94,2289.74" fill="none" stroke="black" stroke-width="0.6" /><path d="M29.75,2289.58 L30.12,2289.91 L30.48,2290.25 L30.35,2290.62 L29.87,2289.93 L29.92,2290.47 L29.25,2290.33 L29.2,2289.8 L29.21,2289.07 L29.65,2288.5 L30.03,2288.11 L29.83,2288.67 L29.46,2289.06 L29.51,2289.59 L29.38,2289.96 L30.0,2289.56 L30.02,2288.84 L30.07,2289.37 L30.44,2288.99 L30.7,2288.25 L30.75,2288.79 L31.38,2288.38 L31.08,2287.86 L30.77,2288.06" fill="none" stroke="black" stroke-width="0.6" /><path d="M30.59,2287.89 L30.85,2287.16 L31.21,2287.49 L31.57,2287.83 L31.62,2288.36 L31.49,2288.73 L31.36,2289.1 L30.99,2289.49 L31.1,2289.84" fill="none" stroke="black" stroke-width="0.6" /><path d="M31.35,2289.83 L31.04,2290.03" fill="none" stroke="black" stroke-width="0.6" /><path d="M30.86,2289.86 L31.22,2290.2 L31.09,2290.57 L30.96,2290.94 L31.4,2290.36 L31.41,2289.64 L31.61,2289.09 L32.05,2288.51 L32.0,2287.98 L31.77,2287.27 L31.72,2286.73 L31.42,2286.21 L31.44,2285.49 L31.7,2284.75 L31.99,2285.27" fill="none" stroke="black" stroke-width="0.6" /><path d="M32.24,2285.25 L31.75,2285.29 L31.8,2285.83 L32.1,2286.35" fill="none" stroke="black" stroke-width="0.6" /><path d="M32.34,2286.33 L32.36,2285.61 L32.31,2285.07 L32.32,2284.35 L31.83,2284.38 L31.45,2284.77 L31.08,2285.15 L31.13,2285.69 L31.18,2286.23 L31.47,2286.75" fill="none" stroke="black" stroke-width="0.6" /><path d="M31.72,2286.73 L31.23,2286.77 L30.93,2286.25 L30.7,2285.54 L30.89,2284.99 L31.16,2284.25 L31.78,2283.84 L32.22,2283.27 L31.73,2283.3 L32.17,2282.73 L31.94,2282.03 L31.89,2281.49 L32.51,2281.08 L32.77,2280.34 L33.22,2279.77 L33.41,2279.22 L33.36,2278.68 L33.07,2278.16 L33.62,2277.94 L33.43,2278.49 L33.79,2278.83 L33.84,2279.37 L33.46,2279.75 L33.09,2280.14 L33.38,2280.66" fill="none" stroke="black" stroke-width="0.6" /><path d="M33.63,2280.65 L33.5,2281.02 L32.94,2281.24" fill="none" stroke="black" stroke-width="0.6" /><path d="M32.76,2281.07 L32.2,2281.29" fill="none" stroke="black" stroke-width="0.6" /><path d="M32.02,2281.12 L32.14,2281.47" fill="none" stroke="black" stroke-width="0.6" /><path d="M32.38,2281.45 L32.43,2281.99 L32.55,2282.35" fill="none" stroke="black" stroke-width="0.6" /><path d="M32.79,2282.33 L32.48,2282.53" fill="none" stroke="black" stroke-width="0.6" /><path d="M32.3,2282.36 L32.35,2282.9 L32.73,2282.51 L32.84,2282.87" fill="none" stroke="black" stroke-width="0.6" /><path d="M33.09,2282.85 L32.78,2283.05" fill="none" stroke="black" stroke-width="0.6" /><path d="M32.6,2282.88 L32.47,2283.25 L32.03,2283.83 L32.76,2283.77 L33.2,2283.2 L32.83,2283.59 L32.94,2283.94" fill="none" stroke="black" stroke-width="0.6" /><path d="M33.19,2283.92 L32.7,2283.96 L33.31,2284.28 L33.32,2283.55 L33.7,2283.17 L33.27,2283.02" fill="none" stroke="black" stroke-width="0.6" /><path d="M33.52,2283.0 L33.15,2282.66 L33.17,2281.94 L32.68,2281.98 L33.3,2281.57 L33.6,2282.09" fill="none" stroke="black" stroke-width="0.6" /><path d="M33.84,2282.07 L33.47,2282.46 L34.07,2282.78 L33.94,2283.15 L33.99,2283.69 L33.86,2284.06 L33.63,2283.35 L33.25,2283.74 L33.55,2284.26" fill="none" stroke="black" stroke-width="0.6" /><path d="M33.8,2284.24 L33.49,2284.44" fill="none" stroke="black" stroke-width="0.6" /><path d="M33.31,2284.28 L33.36,2284.81 L32.99,2284.48 L32.68,2284.68" fill="none" stroke="black" stroke-width="0.6" /><path d="M32.5,2284.51 L32.62,2284.87" fill="none" stroke="black" stroke-width="0.6" /><path d="M32.86,2284.85 L32.49,2285.24 L32.78,2285.76" fill="none" stroke="black" stroke-width="0.6" /><path d="M33.03,2285.74 L32.8,2285.03 L33.09,2285.55" fill="none" stroke="black" stroke-width="0.6" /><path d="M33.34,2285.54 L33.15,2286.09 L32.65,2286.13 L32.34,2286.33" fill="none" stroke="black" stroke-width="0.6" /><path d="M32.16,2286.16 L32.21,2286.7 L32.08,2287.07 L32.13,2287.61 L32.18,2288.14 L32.3,2288.5" fill="none" stroke="black" stroke-width="0.6" /><path d="M32.54,2288.48 L32.31,2287.77 L32.57,2287.03 L32.95,2286.65 L33.0,2287.19 L32.87,2287.56 L32.74,2287.93 L32.86,2288.28" fill="none" stroke="black" stroke-width="0.6" /><path d="M33.1,2288.26 L32.72,2288.65 L32.78,2289.19 L32.97,2288.63 L33.27,2289.15" fill="none" stroke="black" stroke-width="0.6" /><path d="M33.51,2289.13 L32.96,2289.35" fill="none" stroke="black" stroke-width="0.6" /><path d="M32.78,2289.19 L32.65,2289.56 L32.7,2290.09 L32.4,2289.57 L32.27,2289.94 L32.63,2290.28 L33.01,2289.89 L33.45,2289.32 L34.19,2289.27 L34.14,2288.73 L34.33,2288.17 L33.96,2288.56 L33.58,2288.95 L33.59,2288.23 L34.15,2288.01 L34.1,2287.47 L34.71,2287.79 L34.58,2288.16 L34.63,2288.69 L34.32,2288.9" fill="none" stroke="black" stroke-width="0.6" /><path d="M34.14,2288.73 L34.43,2289.25" fill="none" stroke="black" stroke-width="0.6" /><path d="M34.68,2289.23 L35.12,2288.66 L34.58,2288.16 L35.14,2287.94 L35.33,2287.38 L35.34,2286.66 L35.71,2286.99 L35.58,2287.36 L35.45,2287.73 L35.25,2288.29 L35.12,2288.66 L34.75,2289.05 L34.61,2289.42 L34.24,2289.8 L34.73,2289.77 L35.11,2289.38 L35.16,2289.92 L34.85,2290.12" fill="none" stroke="black" stroke-width="0.6" /><path d="M34.67,2289.96 L34.72,2290.49 L34.29,2290.34" fill="none" stroke="black" stroke-width="0.6" /><path d="M34.54,2290.33 L33.98,2290.55" fill="none" stroke="black" stroke-width="0.6" /><path d="M33.8,2290.38 L33.67,2290.75 L33.96,2291.27" fill="none" stroke="black" stroke-width="0.6" /><path d="M34.21,2291.25 L34.65,2290.68 L34.28,2291.07 L34.82,2291.57 L34.51,2291.77" fill="none" stroke="black" stroke-width="0.6" /><path d="M34.33,2291.6 L34.38,2292.14 L34.25,2292.51 L34.3,2293.05 L33.99,2293.25" fill="none" stroke="black" stroke-width="0.6" /><path d="M33.81,2293.08 L33.61,2293.64 L33.91,2294.16" fill="none" stroke="black" stroke-width="0.6" /><path d="M34.16,2294.14 L33.84,2294.34" fill="none" stroke="black" stroke-width="0.6" /><path d="M33.66,2294.18 L33.29,2294.56 L32.97,2294.77" fill="none" stroke="black" stroke-width="0.6" /><path d="M32.79,2294.6 L32.66,2294.97 L32.53,2295.34 L32.83,2295.86" fill="none" stroke="black" stroke-width="0.6" /><path d="M33.08,2295.84 L32.58,2295.88 L32.7,2296.23" fill="none" stroke="black" stroke-width="0.6" /><path d="M32.95,2296.21 L32.82,2296.58 L32.69,2296.95 L32.31,2297.34 L32.36,2297.88 L31.99,2298.26 L32.28,2298.78" fill="none" stroke="black" stroke-width="0.6" /><path d="M32.53,2298.77 L32.48,2298.23 L32.43,2297.69 L32.87,2297.12 L33.06,2296.56 L32.77,2296.04 L33.21,2295.47 L33.4,2294.92 L33.78,2294.53 L33.97,2293.97 L33.99,2293.25 L34.55,2293.03 L34.81,2292.29 L34.75,2291.75 L35.12,2292.09 L34.74,2292.48 L34.61,2292.85 L34.66,2293.38 L34.1,2293.6" fill="none" stroke="black" stroke-width="0.6" /><path d="M33.92,2293.44 L34.29,2293.77 L34.4,2294.12" fill="none" stroke="black" stroke-width="0.6" /><path d="M34.65,2294.11 L34.27,2294.49 L34.14,2294.86 L34.52,2294.48 L34.53,2293.75 L34.97,2293.18 L34.84,2293.55 L34.89,2294.09 L34.76,2294.46 L34.39,2294.85 L34.44,2295.38 L34.06,2295.77 L33.93,2296.14 L33.99,2296.68 L33.61,2297.07 L34.22,2297.39 L34.09,2297.76 L33.96,2298.13 L33.83,2298.5 L33.88,2299.03 L34.26,2298.65 L34.87,2298.96 L34.74,2299.33 L34.36,2299.72 L35.04,2299.85" fill="none" stroke="black" stroke-width="0.6" /><path d="M34.85,2299.69 L35.05,2299.13 L35.49,2298.56 L35.0,2298.59 L35.26,2297.85 L35.45,2297.3 L34.96,2297.33 L34.76,2297.89 L34.57,2298.44 L34.34,2297.74 L34.6,2297.0 L35.09,2296.96 L35.65,2296.74 L35.7,2297.28 L35.81,2297.63" fill="none" stroke="black" stroke-width="0.6" /><path d="M36.06,2297.62 L35.5,2297.84" fill="none" stroke="black" stroke-width="0.6" /><path d="M35.32,2297.67 L35.44,2298.02" fill="none" stroke="black" stroke-width="0.6" /><path d="M35.69,2298.0 L35.56,2298.37 L35.67,2298.73" fill="none" stroke="black" stroke-width="0.6" /><path d="M35.92,2298.71 L35.54,2299.1 L35.17,2299.48 L35.04,2299.85 L34.91,2300.22 L34.41,2300.26 L34.71,2300.78" fill="none" stroke="black" stroke-width="0.6" /><path d="M34.96,2300.76 L34.83,2301.13 L34.88,2301.67 L34.75,2302.04 L34.44,2302.24" fill="none" stroke="black" stroke-width="0.6" /><path d="M34.26,2302.07 L34.06,2302.63 L33.87,2303.18 L33.99,2303.54" fill="none" stroke="black" stroke-width="0.6" /><path d="M34.23,2303.52 L34.04,2304.07 L33.73,2304.28" fill="none" stroke="black" stroke-width="0.6" /><path d="M33.55,2304.11 L33.8,2303.37 L33.82,2302.65 L33.83,2301.92 L34.57,2301.87 L34.27,2301.35 L34.14,2301.72 L33.84,2301.2 L34.28,2300.63 L34.05,2299.92 L34.49,2299.35 L33.82,2299.22 L33.62,2299.77 L33.63,2299.05 L33.4,2298.34 L33.84,2297.77 L33.17,2297.64 L33.22,2298.18 L33.09,2298.55 L32.86,2297.84 L33.48,2297.44 L33.67,2296.88 L33.44,2296.18 L33.82,2295.79 L34.01,2295.23 L33.64,2295.62 L33.51,2295.99 L33.38,2296.36 L33.25,2296.73 L33.05,2297.29 L32.67,2297.67 L32.54,2298.04 L32.84,2298.56" fill="none" stroke="black" stroke-width="0.6" /><path d="M33.09,2298.55 L32.89,2299.1 L33.01,2299.45" fill="none" stroke="black" stroke-width="0.6" /><path d="M33.26,2299.44 L32.76,2299.47 L32.39,2299.86 L32.83,2299.29 L32.4,2299.14" fill="none" stroke="black" stroke-width="0.6" /><path d="M32.65,2299.12 L32.34,2299.32" fill="none" stroke="black" stroke-width="0.6" /><path d="M32.15,2299.15 L32.21,2299.69 L32.15,2299.15 L31.86,2298.63 L32.05,2298.08 L31.82,2297.37 L32.19,2296.99 L32.39,2296.43 L32.34,2295.89 L32.6,2295.15 L32.61,2294.43 L32.87,2293.69 L33.17,2294.21" fill="none" stroke="black" stroke-width="0.6" /><path d="M33.42,2294.19 L33.36,2293.66 L33.81,2293.08 L33.57,2292.38 L34.2,2291.97 L33.89,2292.18" fill="none" stroke="black" stroke-width="0.6" /><path d="M33.7,2292.01 L33.28,2291.86" fill="none" stroke="black" stroke-width="0.6" /><path d="M33.52,2291.84 L34.33,2291.6 L33.9,2291.45" fill="none" stroke="black" stroke-width="0.6" /><path d="M34.15,2291.44 L33.6,2290.93 L34.04,2290.36 L33.75,2289.84 L34.37,2289.43 L33.81,2289.65" fill="none" stroke="black" stroke-width="0.6" /><path d="M33.63,2289.49 L33.5,2289.86 L33.37,2290.23 L33.06,2290.43" fill="none" stroke="black" stroke-width="0.6" /><path d="M32.88,2290.26 L32.93,2290.8 L33.37,2290.23 L33.42,2290.76 L33.54,2291.12" fill="none" stroke="black" stroke-width="0.6" /><path d="M33.78,2291.1 L33.23,2291.32" fill="none" stroke="black" stroke-width="0.6" /><path d="M33.04,2291.15 L33.1,2291.69 L32.96,2292.06 L33.33,2292.4 L33.2,2292.77 L33.07,2293.14 L33.08,2292.41 L32.7,2292.8 L32.65,2292.26 L32.67,2291.54 L33.29,2291.13 L32.8,2291.17 L32.42,2291.56 L32.37,2291.02 L32.57,2290.46 L32.01,2290.68" fill="none" stroke="black" stroke-width="0.6" /><path d="M31.83,2290.52 L31.94,2290.87" fill="none" stroke="black" stroke-width="0.6" /><path d="M32.19,2290.85 L31.58,2290.53" fill="none" stroke="black" stroke-width="0.6" /><path d="M31.83,2290.52 L32.02,2289.96 L32.04,2289.24 L32.4,2289.57 L32.41,2288.85 L32.1,2289.05" fill="none" stroke="black" stroke-width="0.6" /><path d="M31.92,2288.88 L31.79,2289.25 L31.84,2289.79 L31.71,2290.16 L31.58,2290.53 L31.63,2291.07 L31.32,2291.27" fill="none" stroke="black" stroke-width="0.6" /><path d="M31.14,2291.1 L31.25,2291.46" fill="none" stroke="black" stroke-width="0.6" /><path d="M31.5,2291.44 L31.99,2291.41 L31.62,2291.79 L32.04,2291.94" fill="none" stroke="black" stroke-width="0.6" /><path d="M31.86,2291.78 L32.36,2291.74 L32.41,2292.28 L32.03,2292.67 L32.57,2293.17 L32.15,2293.02" fill="none" stroke="black" stroke-width="0.6" /><path d="M32.39,2293.0 L31.97,2292.85" fill="none" stroke="black" stroke-width="0.6" /><path d="M32.21,2292.83 L31.98,2292.13 L31.6,2292.52 L31.65,2293.05 L31.95,2293.57" fill="none" stroke="black" stroke-width="0.6" /><path d="M32.2,2293.56 L31.7,2293.59 L31.41,2293.07 L31.28,2293.44 L30.9,2293.83 L30.95,2294.37 L31.0,2294.9 L30.63,2295.29 L31.37,2295.24 L31.13,2294.53 L31.33,2293.98 L31.69,2294.31 L31.5,2294.87 L31.37,2295.24 L31.23,2295.61 L30.92,2295.81" fill="none" stroke="black" stroke-width="0.6" /><path d="M30.74,2295.64 L31.1,2295.98 L31.73,2295.57 L31.74,2294.85 L31.94,2294.3 L32.13,2293.74 L32.51,2293.35 L32.38,2293.72 L32.25,2294.09 L32.3,2294.63 L32.1,2295.19 L31.73,2295.57 L31.6,2295.94 L31.29,2296.15" fill="none" stroke="black" stroke-width="0.6" /><path d="M31.1,2295.98 L30.97,2296.35 L30.84,2296.72 L30.71,2297.09 L30.66,2296.55 L30.68,2295.83 L30.44,2295.12 L30.64,2294.57 L30.65,2293.84 L30.91,2293.1 L31.17,2292.37 L31.19,2291.64 L31.24,2292.18 L30.86,2292.57 L30.88,2291.84 L30.57,2292.05" fill="none" stroke="black" stroke-width="0.6" /><path d="M30.38,2291.88 L30.5,2292.23" fill="none" stroke="black" stroke-width="0.6" /><path d="M30.75,2292.21 L30.55,2292.77 L30.42,2293.14 L30.47,2293.68 L29.99,2292.99 L30.25,2292.25 L30.7,2291.68 L30.33,2291.34 L29.96,2291.73 L30.01,2292.27 L29.64,2291.93 L29.09,2292.15" fill="none" stroke="black" stroke-width="0.6" /><path d="M28.91,2291.98 L29.51,2292.3 L29.14,2292.69 L29.7,2292.47 L29.81,2292.82" fill="none" stroke="black" stroke-width="0.6" /><path d="M30.06,2292.8 L30.11,2293.34 L29.73,2293.73 L29.68,2293.19 L29.12,2293.41" fill="none" stroke="black" stroke-width="0.6" /><path d="M28.94,2293.24 L29.3,2293.58 L29.17,2293.95 L29.22,2294.48 L28.91,2294.69" fill="none" stroke="black" stroke-width="0.6" /><path d="M28.73,2294.52 L28.85,2294.87" fill="none" stroke="black" stroke-width="0.6" /><path d="M29.09,2294.85 L28.78,2295.06" fill="none" stroke="black" stroke-width="0.6" /><path d="M28.6,2294.89 L28.47,2295.26 L28.52,2295.8 L28.96,2295.22 L29.41,2294.65 L29.85,2294.08 L29.96,2294.43" fill="none" stroke="black" stroke-width="0.6" /><path d="M30.21,2294.42 L29.65,2294.64" fill="none" stroke="black" stroke-width="0.6" /><path d="M29.47,2294.47 L30.02,2294.97 L29.64,2295.36 L29.51,2295.73 L29.87,2296.06 L29.74,2296.43 L29.79,2296.97 L29.48,2297.17" fill="none" stroke="black" stroke-width="0.6" /><path d="M29.3,2297.01 L29.41,2297.36" fill="none" stroke="black" stroke-width="0.6" /><path d="M29.66,2297.34 L30.1,2296.77 L30.12,2296.05 L29.89,2295.34 L30.25,2295.68 L30.36,2296.03" fill="none" stroke="black" stroke-width="0.6" /><path d="M30.61,2296.01 L30.23,2296.4 L30.1,2296.77 L30.47,2297.11 L30.09,2297.49 L29.53,2297.71" fill="none" stroke="black" stroke-width="0.6" /><path d="M29.35,2297.54 L29.71,2297.88 L30.27,2297.66 L30.9,2297.26 L31.34,2296.68 L31.6,2295.94 L32.09,2295.91 L32.14,2296.45 L32.19,2296.99 L31.88,2297.19" fill="none" stroke="black" stroke-width="0.6" /><path d="M31.7,2297.02 L31.75,2297.56 L31.38,2297.94 L31.67,2298.47" fill="none" stroke="black" stroke-width="0.6" /><path d="M31.92,2298.45 L31.54,2298.84 L31.6,2299.37 L31.47,2299.74 L31.83,2300.08 L32.32,2300.04 L32.19,2300.41 L32.06,2300.78 L31.93,2301.15 L31.8,2301.52 L31.5,2301.0 L31.7,2300.45 L31.4,2299.93 L31.27,2300.3 L30.89,2300.68 L30.76,2301.05 L30.39,2301.44 L30.44,2301.98 L30.39,2301.44 L30.58,2300.89 L31.02,2300.31 L30.72,2299.79 L30.67,2299.26 L30.3,2299.64 L30.06,2298.94 L30.74,2299.07" fill="none" stroke="black" stroke-width="0.6" /><path d="M30.56,2298.9 L30.92,2299.24 L31.36,2298.67 L31.38,2297.94 L31.39,2297.22 L31.83,2296.65 L31.45,2297.04 L31.14,2297.24" fill="none" stroke="black" stroke-width="0.6" /><path d="M30.96,2297.07 L31.08,2297.42" fill="none" stroke="black" stroke-width="0.6" /><path d="M31.32,2297.41 L30.95,2297.79 L31.06,2298.15" fill="none" stroke="black" stroke-width="0.6" /><path d="M31.31,2298.13 L30.75,2298.35" fill="none" stroke="black" stroke-width="0.6" /><path d="M30.57,2298.18 L30.69,2298.53" fill="none" stroke="black" stroke-width="0.6" /><path d="M30.93,2298.52 L30.37,2298.74" fill="none" stroke="black" stroke-width="0.6" /><path d="M30.19,2298.57 L30.82,2298.16 L30.83,2297.44 L30.45,2297.83 L30.32,2298.2 L29.83,2298.23 L29.88,2298.77 L29.69,2299.32 L29.74,2299.86 L29.36,2300.25 L29.92,2300.03 L29.97,2300.57 L29.41,2300.79" fill="none" stroke="black" stroke-width="0.6" /><path d="M29.23,2300.62 L29.59,2300.95 L29.64,2301.49 L29.84,2300.94 L30.28,2300.37 L30.15,2300.74 L30.2,2301.27 L29.83,2301.66 L30.19,2302.0 L30.24,2302.53 L30.68,2301.96 L30.55,2302.33 L30.42,2302.7 L31.05,2302.3 L31.0,2301.76 L31.01,2301.04 L31.45,2300.47 L31.32,2300.84 L31.37,2301.37 L31.24,2301.74 L31.3,2302.28 L31.17,2302.65 L30.61,2302.87" fill="none" stroke="black" stroke-width="0.6" /><path d="M30.42,2302.7 L30.79,2303.04 L31.41,2302.63 L31.61,2302.08 L32.23,2301.67 L32.24,2300.95 L32.54,2301.47" fill="none" stroke="black" stroke-width="0.6" /><path d="M32.79,2301.45 L32.31,2300.77 L32.75,2300.19 L32.95,2299.64 L33.0,2300.18 L33.56,2299.96 L33.92,2300.29 L33.54,2300.68 L33.11,2300.53" fill="none" stroke="black" stroke-width="0.6" /><path d="M33.36,2300.51 L32.69,2300.38 L32.8,2300.73" fill="none" stroke="black" stroke-width="0.6" /><path d="M33.05,2300.72 L33.1,2301.25 L32.73,2301.64 L32.78,2302.18 L32.65,2302.55 L32.95,2303.07" fill="none" stroke="black" stroke-width="0.6" /><path d="M33.19,2303.05 L32.7,2303.09 L32.75,2303.62 L32.62,2303.99 L32.31,2304.19" fill="none" stroke="black" stroke-width="0.6" /><path d="M32.13,2304.03 L32.57,2303.46 L32.58,2302.73 L32.35,2302.03 L32.4,2302.56 L31.91,2302.6 L31.53,2302.99 L31.15,2303.37 L31.27,2303.73" fill="none" stroke="black" stroke-width="0.6" /><path d="M31.52,2303.71 L31.96,2303.14 L32.26,2303.66" fill="none" stroke="black" stroke-width="0.6" /><path d="M32.5,2303.64 L31.95,2303.86" fill="none" stroke="black" stroke-width="0.6" /><path d="M31.76,2303.69 L31.82,2304.23 L32.43,2304.55 L32.48,2305.09 L33.22,2305.03 L32.74,2304.35 L33.0,2303.61 L33.19,2303.05 L32.96,2302.35 L33.22,2301.61 L33.41,2301.05 L33.47,2301.59 L33.58,2301.94" fill="none" stroke="black" stroke-width="0.6" /><path d="M33.83,2301.92 L33.34,2301.96 L33.63,2302.48" fill="none" stroke="black" stroke-width="0.6" /><path d="M33.88,2302.46 L33.57,2302.66" fill="none" stroke="black" stroke-width="0.6" /><path d="M33.39,2302.5 L33.44,2303.03 L33.49,2303.57 L33.36,2303.94 L33.42,2304.48 L33.84,2304.63" fill="none" stroke="black" stroke-width="0.6" /><path d="M33.66,2304.46 L33.96,2304.98" fill="none" stroke="black" stroke-width="0.6" /><path d="M34.21,2304.96 L33.65,2305.18" fill="none" stroke="black" stroke-width="0.6" /><path d="M33.47,2305.02 L33.16,2305.22" fill="none" stroke="black" stroke-width="0.6" /><path d="M32.97,2305.05 L33.27,2305.57" fill="none" stroke="black" stroke-width="0.6" /><path d="M33.52,2305.55 L33.9,2305.17 L34.09,2304.61 L34.29,2304.06 L34.91,2303.65 L34.71,2304.21 L34.52,2304.76 L34.88,2305.1 L34.51,2305.48 L34.38,2305.85 L34.14,2305.15 L33.95,2305.7 L34.0,2306.24 L34.61,2306.56 L34.63,2305.84 L35.0,2305.45 L35.26,2304.71 L34.95,2304.91" fill="none" stroke="black" stroke-width="0.6" /><path d="M34.77,2304.74 L35.21,2304.17 L35.59,2303.78 L36.14,2303.56 L36.01,2303.93 L36.07,2304.47 L35.94,2304.84 L35.64,2304.32 L35.33,2304.52" fill="none" stroke="black" stroke-width="0.6" /><path d="M35.14,2304.36 L35.51,2304.69 L35.38,2305.06 L35.25,2305.43 L35.06,2305.99 L34.86,2306.54 L35.3,2305.97 L35.17,2306.34 L35.23,2306.88 L35.6,2306.49 L36.04,2305.92 L36.1,2306.46" fill="none" stroke="black" stroke-width="0.6" /></svg>