<?xml version="1.0" encoding="utf-8" ?>
<svg baseProfile="full" height="310" version="1.1" width="300" xmlns="http://www.w3.org/2000/svg" xmlns:ev="http://www.w3.org/2001/xml-events" xmlns:xlink="http://www.w3.org/1999/xlink"><defs /><path d="M0,0 L70.33,135.89 L68.33,135.85 L73.46,150.76 L75.69,150.69" fill="none" stroke="black" stroke-width="0.6" /><path d="M75.51,150.78 L80.85,135.91 L78.67,135.99" fill="none" stroke="black" stroke-width="0.6" /><path d="M78.85,135.91 L77.16,140.57 L75.16,146.35 L74.51,149.06 L72.27,142.15 L83.01,150.73 L85.05,150.72 L89.81,143.25 L92.42,138.43 L92.17,150.74 L94.03,150.79 L94.13,135.89 L92.14,135.93 L87.44,143.46 L84.43,148.41 L84.67,135.98" fill="none" stroke="black" stroke-width="0.6" /><path d="M84.49,136.07 L114.74,142.16 L110.07,150.78 L112.26,150.8" fill="none" stroke="black" stroke-width="0.6" /><path d="M112.09,150.69 L114.33,146.75 L115.83,143.62 L119.48,150.86" fill="none" stroke="black" stroke-width="0.6" /><path d="M119.32,150.74 L121.67,150.85" fill="none" stroke="black" stroke-width="0.6" /><path d="M121.33,150.83 L116.73,142.27 L116.71,136.03" fill="none" stroke="black" stroke-width="0.6" /><path d="M116.54,136.13 L129.85,135.92 L128.05,135.97 L127.88,150.76 L140.32,148.71" fill="none" stroke="black" stroke-width="0.6" /><path d="M140.15,148.6 L149.67,135.91 L147.71,135.91 L152.68,150.7 L155.02,150.69" fill="none" stroke="black" stroke-width="0.6" /><path d="M154.69,150.69 L159.99,135.94 L158.02,135.97 L156.43,140.5 L154.66,146.42" fill="none" stroke="black" stroke-width="0.6" /><path d="M154.49,146.31 L153.84,149.09 L151.65,142.14 L177.4,148.64" fill="none" stroke="black" stroke-width="0.6" /><path d="M177.24,148.76 L176.3,142.16 L173.16,142.17 L173.38,143.77 L178.19,143.69 L182.97,142.93 L183.03,137.55 L189.46,137.52" fill="none" stroke="black" stroke-width="0.6" /><path d="M189.13,137.54 L189.53,135.9 L180.98,135.93 L181.01,150.73 L189.09,150.73 L189.16,149.12 L182.95,149.14 L183.05,144.42 L188.88,144.43 L191.78,150.77 L193.97,150.74" fill="none" stroke="black" stroke-width="0.6" /><path d="M193.64,150.76 L198.82,143.33 L201.44,138.41 L201.23,150.75 L203.09,150.71 L203.07,136.01 L201.08,135.96 L196.49,143.5 L193.48,148.42 L193.65,135.96 L208.36,135.99 L206.37,135.95 L206.31,150.76 L213.59,141.96 L220.74,150.76 L222.45,150.79 L222.67,142.09 L211.56,150.83" fill="none" stroke="black" stroke-width="0.6" /><path d="M211.39,150.74 L232.97,148.8" fill="none" stroke="black" stroke-width="0.6" /></svg>