<?xml version="1.0" encoding="utf-8" ?>
<svg baseProfile="full" height="310" version="1.1" width="300" xmlns="http://www.w3.org/2000/svg" xmlns:ev="http://www.w3.org/2001/xml-events" xmlns:xlink="http://www.w3.org/1999/xlink"><defs /><path d="M0,0 L0.74,299.85 L0.82,300.58 L0.93,301.1 L0.86,301.49 L0.97,302.02 L0.86,302.6 L0.97,302.02 L0.9,301.3 L0.82,300.58 L0.93,301.1 L0.86,301.49 L0.97,302.02 L0.9,302.41 L0.78,302.99 L0.9,303.52 L0.78,304.1 L0.71,304.49 L0.82,303.91 L0.74,303.19 L0.86,302.6 L0.97,303.13 L0.9,302.41 L1.01,301.83 L0.93,301.1 L0.9,300.19 L0.78,300.77 L0.9,301.3 L1.01,301.83 L0.94,302.21 L0.78,302.99 L0.86,303.71 L0.78,304.1 L0.9,304.63 L0.83,305.02 L0.94,305.55 L0.86,304.83 L0.78,304.1 L0.71,303.38 L0.86,303.71" fill="none" stroke="black" stroke-width="0.6" /><path d="M1.09,303.66 L1.02,304.05 L0.94,304.44 L0.83,305.02 L0.75,304.3 L0.86,303.71 L0.97,303.13 L0.9,302.41 L1.01,302.94 L0.71,303.38 L0.82,302.8 L1.01,301.83 L0.9,302.41 L1.01,302.94 L0.71,303.38 L0.86,303.71" fill="none" stroke="black" stroke-width="0.6" /><path d="M1.09,303.66 L1.02,304.05 L0.94,304.44 L0.86,304.83 L0.98,305.35 L0.9,305.74 L0.79,305.21 L0.71,305.6 L0.87,305.94" fill="none" stroke="black" stroke-width="0.6" /><path d="M1.1,305.88 L0.79,306.32 L0.71,306.71 L0.83,306.13 L0.75,306.52 L0.68,306.91 L1.03,307.38" fill="none" stroke="black" stroke-width="0.6" /><path d="M1.26,307.32 L0.87,307.05 L0.98,306.46 L0.87,305.94 L0.79,305.21 L0.71,305.6 L0.87,305.94" fill="none" stroke="black" stroke-width="0.6" /><path d="M1.1,305.88 L0.79,306.32 L0.9,305.74 L0.83,306.13 L0.75,306.52 L0.68,306.91 L0.83,307.24" fill="none" stroke="black" stroke-width="0.6" /><path d="M1.06,307.18 L0.99,307.57 L0.91,307.96 L0.79,307.43 L0.91,306.85 L1.02,306.27 L0.95,306.66 L0.87,307.05 L0.79,307.43 L0.91,306.85 L0.83,307.24 L0.76,307.63 L0.68,308.02 L0.84,308.35" fill="none" stroke="black" stroke-width="0.6" /><path d="M1.07,308.29 L0.8,308.54" fill="none" stroke="black" stroke-width="0.6" /><path d="M0.6,308.4 L0.72,307.82 L0.87,308.16" fill="none" stroke="black" stroke-width="0.6" /><path d="M1.11,308.1 L0.84,308.35" fill="none" stroke="black" stroke-width="0.6" /><path d="M0.64,308.21 L0.8,308.54" fill="none" stroke="black" stroke-width="0.6" /><path d="M1.03,308.49 L0.76,308.74" fill="none" stroke="black" stroke-width="0.6" /><path d="M0.57,308.6 L0.72,308.93" fill="none" stroke="black" stroke-width="0.6" /><path d="M0.95,308.88 L0.68,309.13" fill="none" stroke="black" stroke-width="0.6" /><path d="M0.49,308.99 L0.8,308.54 L0.72,308.93 L1.03,308.49 L0.95,308.88 L1.46,308.57 L2.11,308.6" fill="none" stroke="black" stroke-width="0.6" /><path d="M1.92,308.46 L2.34,308.54" fill="none" stroke="black" stroke-width="0.6" /><path d="M2.15,308.4 L1.69,308.51 L1.22,308.63 L1.34,308.04 L1.22,307.52 L0.91,306.85 L1.06,307.18" fill="none" stroke="black" stroke-width="0.6" /><path d="M1.29,307.13 L1.03,307.38" fill="none" stroke="black" stroke-width="0.6" /><path d="M0.83,307.24 L0.99,307.57" fill="none" stroke="black" stroke-width="0.6" /><path d="M1.22,307.52 L1.14,307.91 L1.07,308.29 L0.99,308.68 L0.87,308.16 L0.99,307.57 L0.91,307.96 L1.03,307.38 L0.91,306.85 L1.02,306.27 L0.9,305.74 L1.02,305.16 L0.9,304.63 L1.02,305.16 L0.94,305.55 L0.87,305.94 L0.79,306.32 L0.71,306.71 L0.87,307.05" fill="none" stroke="black" stroke-width="0.6" /><path d="M1.1,306.99 L1.03,307.38 L0.95,307.77 L1.06,307.18 L0.99,307.57 L0.91,307.96 L0.84,308.35 L0.95,307.77 L0.87,308.16 L0.99,307.57 L1.1,306.99 L0.98,306.46 L0.91,306.85 L1.02,306.27 L0.95,306.66 L0.87,307.05 L1.03,307.38" fill="none" stroke="black" stroke-width="0.6" /><path d="M1.26,307.32 L0.99,307.57" fill="none" stroke="black" stroke-width="0.6" /><path d="M0.79,307.43 L0.91,306.85 L1.02,306.27 L0.94,305.55 L0.87,305.94 L1.02,306.27" fill="none" stroke="black" stroke-width="0.6" /><path d="M1.25,306.21 L0.98,306.46" fill="none" stroke="black" stroke-width="0.6" /><path d="M0.79,306.32 L0.95,306.66" fill="none" stroke="black" stroke-width="0.6" /><path d="M1.18,306.6 L1.06,306.07 L0.98,305.35 L0.9,305.74 L0.83,306.13 L0.95,306.66 L0.87,305.94 L0.98,305.35 L0.9,304.63 L1.02,305.16 L0.94,305.55 L0.87,305.94 L0.98,305.35 L0.9,304.63 L1.02,304.05 L0.94,304.44 L0.83,305.02 L0.98,305.35" fill="none" stroke="black" stroke-width="0.6" /><path d="M1.21,305.3 L0.9,305.74 L1.02,306.27 L0.9,305.74 L1.02,305.16 L0.94,304.44 L0.86,303.71 L0.97,303.13 L0.86,303.71 L0.98,304.24 L0.9,304.63 L1.02,305.16 L0.9,304.63 L0.82,303.91 L0.74,303.19 L0.86,302.6 L0.97,303.13 L0.9,302.41 L1.01,301.83 L0.93,301.1 L0.86,301.49 L0.97,302.02 L0.86,302.6 L0.97,303.13 L0.86,303.71 L0.78,304.1 L0.9,304.63 L0.83,305.02 L0.75,304.3 L0.67,304.69 L1.02,304.05 L0.94,303.33 L0.86,302.6 L1.01,301.83 L0.93,301.1 L0.86,301.49 L0.97,302.02 L0.9,301.3 L0.82,300.58 L0.93,301.1 L0.9,300.19 L0.78,300.77 L0.9,301.3 L1.01,301.83 L0.94,302.21 L0.86,301.49 L0.82,300.58" fill="none" stroke="black" stroke-width="0.6" /></svg>