<?xml version="1.0" encoding="utf-8" ?>
<svg baseProfile="full" height="310" version="1.1" width="300" xmlns="http://www.w3.org/2000/svg" xmlns:ev="http://www.w3.org/2001/xml-events" xmlns:xlink="http://www.w3.org/1999/xlink"><defs /><path d="M0,0 L114.99,39.01 L112.5,31.45 L109.28,31.6 L117.38,55.29 L121.14,55.25 L129.19,31.54 L126.0,31.54 L123.45,38.97 L122.77,41.52 L120.47,48.17 L119.25,52.62 L117.89,48.27" fill="none" stroke="black" stroke-width="0.6" /><path d="M117.74,48.38 L115.71,41.4 L132.66,31.53" fill="none" stroke="black" stroke-width="0.6" /><path d="M132.53,31.41 L132.7,55.22 L136.02,55.19 L143.64,43.26 L147.91,35.55 L147.59,45.39 L147.55,55.35 L150.43,55.35 L150.42,31.54 L147.37,31.54 L139.82,43.56 L135.38,51.6 L135.47,41.72 L135.58,31.49" fill="none" stroke="black" stroke-width="0.6" /><path d="M135.44,31.61 L183.47,31.57 L183.6,41.55 L176.11,55.26 L179.58,55.33 L182.99,48.69 L185.29,43.91 L187.72,48.76 L191.18,55.36 L194.66,55.34 L186.71,41.6 L186.67,31.5 L207.91,55.27 L207.81,31.62 L204.85,31.54 L204.84,55.21 L225.42,54.51 L224.54,52.08" fill="none" stroke="black" stroke-width="0.6" /><path d="M224.41,52.21 L241.99,38.99 L239.28,31.54 L236.13,31.53 L244.22,55.33 L247.96,55.31 L256.15,31.49 L252.81,31.48 L250.3,38.95 L249.53,41.41" fill="none" stroke="black" stroke-width="0.6" /><path d="M249.37,41.32 L247.41,48.25 L246.03,52.63 L244.91,48.31 L242.5,41.36 L284.32,54.49 L283.61,52.0 L282.11,34.47 L282.05,41.6 L277.19,41.5 L277.26,43.92 L285.18,44.03 L302.1,42.68" fill="none" stroke="black" stroke-width="0.6" /><path d="M299.95,42.77 L292.83,42.69 L292.87,34.06 L303.12,34.15" fill="none" stroke="black" stroke-width="0.6" /><path d="M299.9,34.17 L303.12,34.15" fill="none" stroke="black" stroke-width="0.6" /><path d="M299.9,34.17 L303.06,31.59" fill="none" stroke="black" stroke-width="0.6" /><path d="M299.86,31.6 L303.06,31.59" fill="none" stroke="black" stroke-width="0.6" /><path d="M299.86,31.6 L289.83,31.51 L289.8,55.3 L302.53,55.26" fill="none" stroke="black" stroke-width="0.6" /><path d="M299.86,55.37 L302.53,55.26" fill="none" stroke="black" stroke-width="0.6" /><path d="M299.86,55.37 L302.51,52.74" fill="none" stroke="black" stroke-width="0.6" /><path d="M299.98,52.7 L302.51,52.74" fill="none" stroke="black" stroke-width="0.6" /><path d="M299.98,52.7 L292.93,52.71 L292.83,45.24 L302.14,45.22" fill="none" stroke="black" stroke-width="0.6" /><path d="M299.98,45.32 L307.02,31.47" fill="none" stroke="black" stroke-width="0.6" /><path d="M299.97,31.46 L307.15,55.31" fill="none" stroke="black" stroke-width="0.6" /><path d="M299.98,55.22 L307.15,55.31" fill="none" stroke="black" stroke-width="0.6" /><path d="M299.98,55.22 L310.48,55.22" fill="none" stroke="black" stroke-width="0.6" /><path d="M299.98,55.22 L310.48,55.22" fill="none" stroke="black" stroke-width="0.6" /><path d="M299.98,55.22 L317.97,43.21" fill="none" stroke="black" stroke-width="0.6" /><path d="M299.94,43.35 L322.23,35.56" fill="none" stroke="black" stroke-width="0.6" /><path d="M299.95,35.56 L322.41,35.62" fill="none" stroke="black" stroke-width="0.6" /><path d="M299.95,35.56 L321.96,45.4" fill="none" stroke="black" stroke-width="0.6" /><path d="M299.98,45.32 L321.97,55.3" fill="none" stroke="black" stroke-width="0.6" /><path d="M299.98,55.22 L321.97,55.3" fill="none" stroke="black" stroke-width="0.6" /><path d="M299.98,55.22 L324.92,55.35" fill="none" stroke="black" stroke-width="0.6" /><path d="M299.98,55.22 L324.92,55.35" fill="none" stroke="black" stroke-width="0.6" /><path d="M299.98,55.22 L324.8,31.51" fill="none" stroke="black" stroke-width="0.6" /><path d="M299.97,31.46 L324.8,31.51" fill="none" stroke="black" stroke-width="0.6" /><path d="M299.97,31.46 L321.83,31.59" fill="none" stroke="black" stroke-width="0.6" /><path d="M299.97,31.46 L321.83,31.59" fill="none" stroke="black" stroke-width="0.6" /><path d="M299.97,31.46 L314.26,43.57" fill="none" stroke="black" stroke-width="0.6" /><path d="M300.0,43.57 L309.79,51.5" fill="none" stroke="black" stroke-width="0.6" /><path d="M300.0,51.54 L309.79,51.5" fill="none" stroke="black" stroke-width="0.6" /><path d="M300.0,51.54 L309.97,41.74" fill="none" stroke="black" stroke-width="0.6" /><path d="M299.85,41.76 L309.84,31.64" fill="none" stroke="black" stroke-width="0.6" /><path d="M300.03,31.68 L333.27,55.2" fill="none" stroke="black" stroke-width="0.6" /><path d="M299.98,55.22 L333.25,31.56" fill="none" stroke="black" stroke-width="0.6" /><path d="M299.97,31.46 L333.25,31.56" fill="none" stroke="black" stroke-width="0.6" /><path d="M299.97,31.46 L330.19,31.48" fill="none" stroke="black" stroke-width="0.6" /><path d="M299.97,31.46 L330.19,31.48" fill="none" stroke="black" stroke-width="0.6" /><path d="M299.97,31.46 L330.18,55.36" fill="none" stroke="black" stroke-width="0.6" /><path d="M299.98,55.22 L341.62,55.26" fill="none" stroke="black" stroke-width="0.6" /><path d="M299.98,55.22 L341.78,41.24" fill="none" stroke="black" stroke-width="0.6" /><path d="M300.03,41.25 L352.92,41.22" fill="none" stroke="black" stroke-width="0.6" /><path d="M300.03,41.25 L353.14,55.24" fill="none" stroke="black" stroke-width="0.6" /><path d="M299.98,55.22 L353.14,55.24" fill="none" stroke="black" stroke-width="0.6" /><path d="M299.98,55.22 L356.06,55.24" fill="none" stroke="black" stroke-width="0.6" /><path d="M299.98,55.22 L356.06,55.24" fill="none" stroke="black" stroke-width="0.6" /><path d="M299.98,55.22 L356.05,41.49" fill="none" stroke="black" stroke-width="0.6" /><path d="M299.91,41.39 L338.55,41.38" fill="none" stroke="black" stroke-width="0.6" /><path d="M299.91,41.39 L338.63,55.33" fill="none" stroke="black" stroke-width="0.6" /><path d="M299.98,55.22 L373.58,54.42" fill="none" stroke="black" stroke-width="0.6" /><path d="M299.94,54.43 L372.83,52.06" fill="none" stroke="black" stroke-width="0.6" /></svg>