<?xml version="1.0" encoding="utf-8" ?>
<svg baseProfile="full" height="310" version="1.1" width="300" xmlns="http://www.w3.org/2000/svg" xmlns:ev="http://www.w3.org/2001/xml-events" xmlns:xlink="http://www.w3.org/1999/xlink"><defs /><path d="M150.0,-0.07 L150.0,394.95" fill="none" stroke="black" stroke-width="0.6" /><path d="M150.0,310.0 L179.49,-78.63" fill="none" stroke="black" stroke-width="0.6" /><path d="M179.51,-0.02 L120.4,388.41" fill="none" stroke="black" stroke-width="0.6" /><path d="M120.41,309.89 L207.33,-68.61" fill="none" stroke="black" stroke-width="0.6" /><path d="M207.34,-0.21 L92.66,378.26" fill="none" stroke="black" stroke-width="0.6" /><path d="M92.46,309.89 L233.21,-55.36" fill="none" stroke="black" stroke-width="0.6" /><path d="M233.32,0.0 L66.98,365.05" fill="none" stroke="black" stroke-width="0.6" /><path d="M66.98,309.9 L256.59,-39.16" fill="none" stroke="black" stroke-width="0.6" /><path d="M256.87,-0.03 L43.32,348.82" fill="none" stroke="black" stroke-width="0.6" /><path d="M43.49,309.91 L277.29,-20.39" fill="none" stroke="black" stroke-width="0.6" /><path d="M277.46,0.15 L22.7,330.25" fill="none" stroke="black" stroke-width="0.6" /><path d="M22.69,309.93 L295.03,0.3 L4.76,309.44 L309.76,22.79" fill="none" stroke="black" stroke-width="0.6" /><path d="M299.87,22.71 L-9.66,287.14" fill="none" stroke="black" stroke-width="0.6" /><path d="M0.06,287.07 L321.16,46.35" fill="none" stroke="black" stroke-width="0.6" /><path d="M299.98,46.27 L-21.08,263.6" fill="none" stroke="black" stroke-width="0.6" /><path d="M-0.08,263.56 L329.12,70.62" fill="none" stroke="black" stroke-width="0.6" /><path d="M300.05,70.59 L-29.18,239.25" fill="none" stroke="black" stroke-width="0.6" /><path d="M0.05,239.22 L333.8,95.17" fill="none" stroke="black" stroke-width="0.6" /><path d="M300.1,95.13 L-33.81,214.65" fill="none" stroke="black" stroke-width="0.6" /><path d="M0.12,214.65 L335.36,119.59" fill="none" stroke="black" stroke-width="0.6" /><path d="M300.03,119.5 L-35.29,190.26" fill="none" stroke="black" stroke-width="0.6" /><path d="M0.26,190.37 L333.7,143.3" fill="none" stroke="black" stroke-width="0.6" /><path d="M299.99,143.41 L-33.75,166.39" fill="none" stroke="black" stroke-width="0.6" /><path d="M0.21,166.62 L329.01,166.22" fill="none" stroke="black" stroke-width="0.6" /><path d="M300.06,166.14 L-29.06,143.66" fill="none" stroke="black" stroke-width="0.6" /><path d="M-0.04,143.61 L321.58,187.69" fill="none" stroke="black" stroke-width="0.6" /><path d="M299.73,187.77 L-21.62,122.13" fill="none" stroke="black" stroke-width="0.6" /><path d="M0.03,122.11 L311.79,207.53" fill="none" stroke="black" stroke-width="0.6" /><path d="M300.09,207.49 L-11.78,102.4" fill="none" stroke="black" stroke-width="0.6" /><path d="M0.11,102.4 L299.81,225.35 L0.31,84.45 L285.71,241.04 L14.23,68.73 L270.43,254.38 L29.75,55.29 L253.68,265.36 L46.39,44.41 L236.45,273.63 L63.74,36.1" fill="none" stroke="black" stroke-width="0.6" /><path d="M63.57,36.19 L218.51,279.4 L81.64,30.32" fill="none" stroke="black" stroke-width="0.6" /><path d="M81.61,30.55 L200.65,282.7 L99.46,27.03 L183.04,283.54 L116.91,26.26 L166.04,282.05 L133.86,27.72" fill="none" stroke="black" stroke-width="0.6" /><path d="M133.85,27.95 L150.0,278.36 L150.0,31.45 L135.22,272.84 L164.98,37.03 L121.57,265.44 L178.33,44.31" fill="none" stroke="black" stroke-width="0.6" /><path d="M178.34,44.54 L109.71,256.75 L190.25,53.02 L99.45,246.74 L200.42,63.02 L91.17,235.9 L208.88,73.8" fill="none" stroke="black" stroke-width="0.6" /><path d="M208.73,73.92 L84.59,224.55 L215.5,85.22" fill="none" stroke="black" stroke-width="0.6" /><path d="M215.67,85.31 L80.06,212.8 L220.12,96.93 L77.25,201.14 L222.72,108.65 L76.08,189.6 L223.81,120.13 L76.79,178.62 L223.11,131.11 L79.07,168.5 L220.85,141.35" fill="none" stroke="black" stroke-width="0.6" /><path d="M220.68,141.47 L82.48,159.18 L217.48,150.69 L87.12,150.97" fill="none" stroke="black" stroke-width="0.6" /><path d="M87.29,151.09 L212.79,158.84 L92.76,143.95 L207.32,165.85" fill="none" stroke="black" stroke-width="0.6" /><path d="M207.15,165.97 L99.03,138.28 L201.06,171.49 L105.75,134.04 L194.42,175.73" fill="none" stroke="black" stroke-width="0.6" /><path d="M194.24,175.84 L112.62,131.22 L187.43,178.56 L119.51,129.7 L180.52,180.17 L126.14,129.47 L173.9,180.46 L132.21,130.31 L167.79,179.32 L137.59,132.36 L162.25,177.38 L142.31,135.41" fill="none" stroke="black" stroke-width="0.6" /><path d="M142.14,135.51 L157.64,174.45 L145.88,139.15 L153.98,170.76 L148.62,143.38 L151.44,166.4" fill="none" stroke="black" stroke-width="0.6" /></svg>