<?xml version="1.0" encoding="utf-8" ?>
<svg baseProfile="full" height="310" version="1.1" width="300" xmlns="http://www.w3.org/2000/svg" xmlns:ev="http://www.w3.org/2001/xml-events" xmlns:xlink="http://www.w3.org/1999/xlink"><defs /><path d="M0,0 L35.96,306.94 L36.61,306.94" fill="none" stroke="black" stroke-width="0.6" /><path d="M36.41,306.81 L37.12,306.41 L36.78,305.76 L36.73,306.15 L36.67,306.54 L36.56,305.82 L37.26,305.43 L37.35,304.84 L37.66,304.18 L37.6,304.57 L37.55,304.97 L37.49,305.36 L37.01,305.69" fill="none" stroke="black" stroke-width="0.6" /><path d="M36.81,305.56 L37.18,306.02" fill="none" stroke="black" stroke-width="0.6" /><path d="M37.4,305.95 L37.68,305.49 L37.63,305.88 L37.34,306.34 L37.06,306.8 L37.71,306.8" fill="none" stroke="black" stroke-width="0.6" /><path d="M37.51,306.67 L37.99,306.34 L37.74,306.6" fill="none" stroke="black" stroke-width="0.6" /><path d="M37.54,306.47 L38.05,305.94 L37.97,305.03 L38.05,304.44 L37.94,303.72 L38.03,303.13 L37.55,303.46" fill="none" stroke="black" stroke-width="0.6" /><path d="M37.36,303.33 L37.49,303.85 L37.21,304.31 L36.93,304.78 L36.87,305.17 L36.76,304.45 L37.07,303.79 L36.6,304.12" fill="none" stroke="black" stroke-width="0.6" /><path d="M36.4,303.99 L36.76,304.45" fill="none" stroke="black" stroke-width="0.6" /><path d="M36.99,304.38 L36.54,304.52 L36.48,304.91 L36.62,305.43 L36.14,305.76" fill="none" stroke="black" stroke-width="0.6" /><path d="M35.94,305.63 L35.88,306.03 L35.49,305.77 L35.81,305.11 L36.09,304.65 L36.6,304.12 L36.68,303.53 L36.1,303.14 L35.62,303.48" fill="none" stroke="black" stroke-width="0.6" /><path d="M35.43,303.35 L35.93,302.82 L36.61,302.62 L36.74,303.14 L36.88,303.66 L37.19,303.01 L37.5,302.35 L37.78,301.89 L37.9,301.1 L38.21,300.44 L37.76,300.58 L37.68,301.17 L37.42,301.43" fill="none" stroke="black" stroke-width="0.6" /><path d="M37.23,301.3 L37.59,301.76" fill="none" stroke="black" stroke-width="0.6" /><path d="M37.81,301.69 L37.34,302.02" fill="none" stroke="black" stroke-width="0.6" /><path d="M37.14,301.89 L37.31,302.22" fill="none" stroke="black" stroke-width="0.6" /><path d="M37.53,302.15 L37.08,302.29 L37.03,302.68 L36.92,301.96 L37.2,301.5 L37.32,300.71 L37.4,300.12 L37.49,299.53 L37.66,299.86" fill="none" stroke="black" stroke-width="0.6" /><path d="M37.88,299.79 L37.97,299.2 L38.05,298.61 L37.8,298.87" fill="none" stroke="black" stroke-width="0.6" /><path d="M37.61,298.74 L37.13,299.08" fill="none" stroke="black" stroke-width="0.6" /><path d="M36.94,298.95 L37.33,299.2 L37.27,299.6 L37.21,299.99 L37.15,300.39 L36.7,300.52 L37.06,300.98" fill="none" stroke="black" stroke-width="0.6" /><path d="M37.29,300.91 L36.81,301.24" fill="none" stroke="black" stroke-width="0.6" /><path d="M36.62,301.11 L36.98,301.57" fill="none" stroke="black" stroke-width="0.6" /><path d="M37.2,301.5 L36.75,301.63 L36.66,302.22 L36.19,302.55" fill="none" stroke="black" stroke-width="0.6" /><path d="M35.99,302.43 L35.51,302.76" fill="none" stroke="black" stroke-width="0.6" /><path d="M35.32,302.63 L35.45,303.15 L35.2,303.41" fill="none" stroke="black" stroke-width="0.6" /><path d="M35.01,303.28 L35.09,302.69 L35.57,302.36 L36.05,302.03 L35.44,301.84" fill="none" stroke="black" stroke-width="0.6" /><path d="M35.66,301.77 L35.41,302.04" fill="none" stroke="black" stroke-width="0.6" /><path d="M35.21,301.91 L35.15,302.3 L34.87,302.76 L34.59,303.22 L34.67,302.63 L34.99,301.97 L34.88,301.25 L34.55,300.6 L35.23,300.4 L35.54,299.74 L35.82,299.28 L36.13,298.62 L36.03,297.9 L36.12,297.31 L36.01,296.59 L36.52,296.06 L36.8,295.6 L37.27,295.27 L37.77,294.74 L38.13,295.2" fill="none" stroke="black" stroke-width="0.6" /><path d="M38.35,295.13 L37.72,295.14 L37.24,295.47" fill="none" stroke="black" stroke-width="0.6" /><path d="M37.05,295.34 L37.6,295.92" fill="none" stroke="black" stroke-width="0.6" /><path d="M37.82,295.86 L37.18,295.86 L36.93,296.13" fill="none" stroke="black" stroke-width="0.6" /><path d="M36.74,296.0 L36.46,296.46 L36.56,297.18 L36.5,297.57 L36.25,297.84" fill="none" stroke="black" stroke-width="0.6" /><path d="M36.06,297.71 L36.41,298.16" fill="none" stroke="black" stroke-width="0.6" /><path d="M36.64,298.1 L36.16,298.43" fill="none" stroke="black" stroke-width="0.6" /><path d="M35.97,298.3 L36.36,298.56 L36.3,298.95 L36.04,299.22" fill="none" stroke="black" stroke-width="0.6" /><path d="M35.85,299.09 L35.79,299.48 L35.73,299.87 L35.45,300.33 L35.39,300.73 L35.56,301.05" fill="none" stroke="black" stroke-width="0.6" /><path d="M35.78,300.99 L35.33,301.12 L35.47,301.64 L35.75,301.18 L35.42,300.53 L35.7,300.07 L36.09,300.33 L36.23,300.85 L36.17,301.25 L36.45,300.78 L36.31,300.26 L36.18,299.74 L36.49,299.08 L36.39,298.36 L36.7,297.7 L36.86,298.03" fill="none" stroke="black" stroke-width="0.6" /><path d="M37.08,297.96 L36.8,298.42 L36.94,298.95 L36.46,299.28" fill="none" stroke="black" stroke-width="0.6" /><path d="M36.27,299.15 L36.21,299.54 L36.6,299.8 L36.54,300.19 L37.01,299.86 L36.91,299.14 L37.19,298.68 L37.08,297.96 L36.76,297.31 L36.87,296.52 L37.51,296.52" fill="none" stroke="black" stroke-width="0.6" /><path d="M37.32,296.39 L37.26,296.78 L37.2,297.17 L37.56,297.63" fill="none" stroke="black" stroke-width="0.6" /><path d="M37.78,297.56 L37.53,297.83" fill="none" stroke="black" stroke-width="0.6" /><path d="M37.34,297.7 L37.5,298.02" fill="none" stroke="black" stroke-width="0.6" /><path d="M37.72,297.96 L37.62,297.24 L37.51,296.52 L37.9,296.77 L37.84,297.17 L38.0,297.49" fill="none" stroke="black" stroke-width="0.6" /><path d="M38.23,297.43 L37.75,297.76" fill="none" stroke="black" stroke-width="0.6" /><path d="M37.56,297.63 L37.95,297.89 L37.67,298.35 L38.36,297.95 L38.26,297.23 L38.34,296.64 L38.43,296.05 L37.76,296.25 L38.07,295.59 L38.38,294.93 L38.25,294.41 L38.14,293.69 L37.86,294.15 L37.54,293.5 L38.01,293.16 L38.12,292.37 L38.63,291.84 L38.3,291.19 L37.86,291.33 L37.39,291.66" fill="none" stroke="black" stroke-width="0.6" /><path d="M37.19,291.53 L37.36,291.86" fill="none" stroke="black" stroke-width="0.6" /><path d="M37.58,291.79 L37.14,291.93 L37.25,291.14 L37.72,290.8 L37.37,290.35 L37.46,289.75 L38.12,289.55 L38.7,289.94 L39.08,290.2 L38.95,289.67 L38.15,289.35" fill="none" stroke="black" stroke-width="0.6" /><path d="M38.37,289.29 L37.93,289.42 L37.61,288.77 L37.92,288.11 L38.61,287.71 L38.55,288.1 L39.15,288.29 L38.8,287.83 L38.66,287.31 L38.78,286.52 L38.53,286.79" fill="none" stroke="black" stroke-width="0.6" /><path d="M38.34,286.66 L38.62,286.19 L39.25,286.18" fill="none" stroke="black" stroke-width="0.6" /><path d="M39.06,286.06 L39.53,285.72 L39.88,286.18" fill="none" stroke="black" stroke-width="0.6" /><path d="M40.1,286.11 L39.66,286.25 L40.13,285.91 L40.43,285.25 L40.35,285.84 L40.07,286.31 L40.7,286.3" fill="none" stroke="black" stroke-width="0.6" /><path d="M40.51,286.17 L40.79,285.7 L40.92,286.23 L41.42,285.69 L42.29,285.42 L43.14,285.33" fill="none" stroke="black" stroke-width="0.6" /><path d="M42.95,285.21 L43.58,285.2" fill="none" stroke="black" stroke-width="0.6" /><path d="M43.39,285.07 L42.98,285.01" fill="none" stroke="black" stroke-width="0.6" /><path d="M43.2,284.94 L42.54,285.15 L42.19,284.69 L41.91,285.16 L41.44,285.5" fill="none" stroke="black" stroke-width="0.6" /><path d="M41.25,285.37 L41.75,284.83 L41.31,284.97 L41.03,285.44 L41.12,284.84 L40.49,284.85 L40.24,285.12" fill="none" stroke="black" stroke-width="0.6" /><path d="M40.05,284.99 L40.0,285.39 L39.89,284.66 L39.64,284.93" fill="none" stroke="black" stroke-width="0.6" /><path d="M39.45,284.8 L39.81,285.26" fill="none" stroke="black" stroke-width="0.6" /><path d="M40.03,285.19 L39.59,285.33 L39.15,285.46 L39.09,285.86 L38.46,285.87 L37.83,285.87 L37.58,286.14" fill="none" stroke="black" stroke-width="0.6" /><path d="M37.39,286.01 L37.08,286.67 L37.46,286.93 L37.96,286.4 L37.9,286.79 L37.84,287.19 L38.22,287.45 L37.78,287.58 L37.72,287.98 L37.67,288.37 L37.39,288.84 L37.52,289.36 L37.05,289.69" fill="none" stroke="black" stroke-width="0.6" /><path d="M36.86,289.56 L37.02,289.89" fill="none" stroke="black" stroke-width="0.6" /><path d="M37.24,289.82 L36.96,290.29 L36.68,290.75 L36.84,291.07" fill="none" stroke="black" stroke-width="0.6" /><path d="M37.06,291.01 L36.78,291.47 L36.91,291.99 L36.85,292.39 L36.77,292.98 L37.27,292.45 L37.55,291.99 L38.05,291.46 L38.18,291.98 L37.9,292.44 L37.43,292.78" fill="none" stroke="black" stroke-width="0.6" /><path d="M37.24,292.65 L37.62,292.91 L37.15,293.24" fill="none" stroke="black" stroke-width="0.6" /><path d="M36.96,293.11 L37.09,293.63 L36.62,293.96" fill="none" stroke="black" stroke-width="0.6" /><path d="M36.43,293.83 L36.32,293.11 L36.07,293.38" fill="none" stroke="black" stroke-width="0.6" /><path d="M35.88,293.25 L35.82,293.64 L35.76,294.04 L35.29,294.37" fill="none" stroke="black" stroke-width="0.6" /><path d="M35.09,294.24 L35.48,294.5 L35.2,294.96 L35.67,294.63 L35.95,294.17 L36.59,294.16" fill="none" stroke="black" stroke-width="0.6" /><path d="M36.4,294.03 L36.34,294.43 L35.86,294.76" fill="none" stroke="black" stroke-width="0.6" /><path d="M35.67,294.63 L35.8,295.15 L35.52,295.61 L35.66,296.14" fill="none" stroke="black" stroke-width="0.6" /><path d="M35.65,296.14 L35.94,295.68 L36.03,295.08 L36.53,294.56 L37.0,294.22 L37.58,294.61 L37.11,294.94" fill="none" stroke="black" stroke-width="0.6" /><path d="M36.92,294.81 L36.63,295.28 L36.58,295.67 L36.89,295.01 L36.97,294.42 L36.5,294.75" fill="none" stroke="black" stroke-width="0.6" /><path d="M36.31,294.62 L36.44,295.15 L36.38,295.54 L36.1,296.0 L35.82,296.46 L35.18,296.47 L35.27,295.88 L34.94,295.22 L35.08,295.75 L35.21,296.27 L34.85,295.81 L34.57,296.27 L34.51,296.67 L34.23,297.13 L34.32,296.54 L34.41,295.95 L34.5,295.36 L35.0,294.83 L35.31,294.17 L35.18,293.65 L35.27,293.06 L35.4,293.58 L35.54,294.1 L35.63,293.51 L35.94,292.85 L35.84,292.13 L35.36,292.46" fill="none" stroke="black" stroke-width="0.6" /><path d="M35.17,292.33 L35.26,291.74 L34.94,291.09 L34.88,291.48 L34.78,290.76 L34.87,290.17 L35.5,290.17" fill="none" stroke="black" stroke-width="0.6" /><path d="M35.31,290.04 L35.78,289.7 L35.87,289.11 L35.62,289.38" fill="none" stroke="black" stroke-width="0.6" /><path d="M35.43,289.25 L35.33,288.52 L35.8,288.19 L35.89,287.6 L35.79,286.88 L36.13,286.02 L36.03,285.3 L35.9,284.77 L35.8,284.05 L36.11,283.39 L36.24,283.92 L36.33,283.32 L36.96,283.32" fill="none" stroke="black" stroke-width="0.6" /><path d="M36.77,283.19 L36.71,283.58 L36.43,284.05 L35.96,284.38" fill="none" stroke="black" stroke-width="0.6" /><path d="M35.77,284.25 L36.15,284.51 L36.28,285.03 L36.37,284.44 L36.97,284.63 L36.91,285.03 L36.47,285.16 L36.41,285.56 L37.07,285.35 L36.79,285.82 L36.51,286.28 L36.23,286.74 L36.17,287.14 L36.11,287.53 L36.05,287.93 L35.96,288.52 L36.59,288.51" fill="none" stroke="black" stroke-width="0.6" /><path d="M36.4,288.38 L36.34,288.78 L36.28,289.17 L36.92,289.17" fill="none" stroke="black" stroke-width="0.6" /><path d="M36.72,289.04 L36.86,289.56 L36.38,289.9" fill="none" stroke="black" stroke-width="0.6" /><path d="M36.19,289.77 L36.35,290.09" fill="none" stroke="black" stroke-width="0.6" /><path d="M36.58,290.03 L36.0,289.64 L35.53,289.97" fill="none" stroke="black" stroke-width="0.6" /><path d="M35.34,289.84 L35.94,290.03 L35.47,290.36" fill="none" stroke="black" stroke-width="0.6" /><path d="M35.28,290.23 L35.0,290.69 L35.38,290.95 L35.51,291.48 L35.45,291.87 L35.92,291.54 L36.06,292.07 L36.41,292.52" fill="none" stroke="black" stroke-width="0.6" /><path d="M36.63,292.45 L36.53,291.73 L36.43,291.01 L36.04,290.75 L36.71,290.55 L36.8,289.96 L36.89,289.37 L36.97,288.77 L37.28,288.11 L37.37,287.52 L37.02,287.06 L36.96,287.46 L36.9,287.85 L37.03,288.38 L36.97,288.77 L36.84,288.25 L36.74,287.53 L36.68,287.92 L36.4,288.38 L36.3,287.66 L36.8,287.13 L36.7,286.41 L37.17,286.08 L37.48,285.42 L37.86,285.68 L37.98,284.88 L37.35,284.89 L37.66,284.23 L37.78,283.44 L37.91,283.96 L38.04,284.49 L38.39,284.95" fill="none" stroke="black" stroke-width="0.6" /><path d="M38.61,284.88 L38.36,285.14" fill="none" stroke="black" stroke-width="0.6" /><path d="M38.17,285.01 L38.3,285.54 L38.96,285.33 L39.24,284.87 L39.13,284.15 L38.81,283.49 L38.49,282.84 L38.43,283.23 L38.56,283.76 L39.13,284.15 L39.07,284.54 L38.8,285.01 L38.52,285.47 L38.42,284.75 L38.1,284.09 L38.18,283.5 L37.83,283.04 L38.11,282.58 L38.52,282.64" fill="none" stroke="black" stroke-width="0.6" /><path d="M38.33,282.51 L38.77,282.37 L39.37,282.56 L39.75,282.82 L39.43,282.17 L38.8,282.18 L38.7,281.45 L38.64,281.85 L38.58,282.25 L38.45,281.72 L38.07,281.46 L38.01,281.86 L37.95,282.25 L37.7,282.52" fill="none" stroke="black" stroke-width="0.6" /><path d="M37.52,282.39 L37.46,282.78 L37.59,283.31 L37.31,283.77 L37.25,284.17 L36.59,284.37 L37.09,283.84 L36.99,283.12 L37.49,282.59 L37.79,281.93 L37.88,281.33 L38.16,280.87 L38.25,280.27 L38.53,279.81 L38.28,280.08" fill="none" stroke="black" stroke-width="0.6" /><path d="M38.09,279.95 L38.03,280.34 L37.97,280.74 L37.72,281.0" fill="none" stroke="black" stroke-width="0.6" /><path d="M37.53,280.87 L37.47,281.27 L37.42,281.67 L37.32,280.94 L37.78,280.61 L38.09,279.95 L38.4,279.28 L38.52,278.49 L38.08,278.63 L38.17,278.04 L38.76,278.23 L39.26,277.69 L39.63,277.95 L39.2,278.09 L38.92,278.55 L38.86,278.95 L38.59,279.41 L38.75,279.74" fill="none" stroke="black" stroke-width="0.6" /><path d="M38.96,279.67 L38.9,280.07 L38.85,280.46 L38.79,280.86 L39.06,280.4 L39.37,279.73 L39.24,279.21 L39.33,278.61 L39.46,279.14 L39.4,279.53 L39.34,279.93 L39.47,280.46 L39.41,280.85 L40.04,280.84" fill="none" stroke="black" stroke-width="0.6" /><path d="M39.85,280.71 L40.2,281.17" fill="none" stroke="black" stroke-width="0.6" /><path d="M40.42,281.1 L39.47,280.46 L39.97,279.92 L39.65,279.27 L39.73,278.67 L40.04,278.01 L39.72,277.36 L40.19,277.02 L40.49,276.35 L39.87,276.36 L40.0,276.89 L39.56,277.03 L39.0,276.64 L39.44,276.5" fill="none" stroke="black" stroke-width="0.6" /><path d="M39.43,276.5 L39.93,275.97 L40.02,275.37 L39.45,274.99 L38.99,275.32" fill="none" stroke="black" stroke-width="0.6" /><path d="M38.8,275.19 L39.11,274.53 L39.79,274.12 L39.51,274.59 L39.98,274.25 L40.1,274.78 L40.23,275.3 L40.36,275.83 L40.64,275.36 L40.94,274.7 L41.03,274.1 L41.12,273.51 L41.06,273.9 L40.81,274.17" fill="none" stroke="black" stroke-width="0.6" /><path d="M40.63,274.04 L40.97,274.5" fill="none" stroke="black" stroke-width="0.6" /><path d="M41.19,274.43 L40.75,274.57 L40.48,275.04 L40.57,274.44 L40.65,273.85 L41.15,273.31 L40.37,272.99" fill="none" stroke="black" stroke-width="0.6" /><path d="M40.58,272.92 L40.27,272.27 L40.39,271.47 L40.73,271.93" fill="none" stroke="black" stroke-width="0.6" /><path d="M40.95,271.86 L40.67,272.33 L40.98,271.66 L41.32,272.12" fill="none" stroke="black" stroke-width="0.6" /><path d="M41.54,272.05 L41.08,272.39" fill="none" stroke="black" stroke-width="0.6" /><path d="M40.89,272.26 L40.83,272.65 L41.17,273.11" fill="none" stroke="black" stroke-width="0.6" /><path d="M41.39,273.04 L41.51,272.25 L41.81,271.58 L41.19,271.59 L41.65,271.25 L41.77,270.46 L41.5,270.93 L41.04,271.26" fill="none" stroke="black" stroke-width="0.6" /><path d="M40.85,271.14 L40.57,271.6 L40.85,271.14 L41.12,270.67 L41.21,270.07 L41.51,269.41 L41.67,269.73" fill="none" stroke="black" stroke-width="0.6" /><path d="M41.89,269.66 L41.61,270.13 L42.1,269.59 L42.0,268.87 L42.49,268.33 L42.58,267.73 L42.26,267.08 L42.21,267.48 L41.75,267.82" fill="none" stroke="black" stroke-width="0.6" /><path d="M41.56,267.69 L41.9,268.14" fill="none" stroke="black" stroke-width="0.6" /><path d="M42.12,268.07 L42.06,268.47 L41.6,268.81" fill="none" stroke="black" stroke-width="0.6" /><path d="M41.42,268.68 L41.14,269.15 L40.87,269.62 L40.78,270.21 L40.72,270.61 L40.26,270.95" fill="none" stroke="black" stroke-width="0.6" /><path d="M40.07,270.82 L40.48,270.88" fill="none" stroke="black" stroke-width="0.6" /><path d="M40.29,270.75 L40.23,271.15 L39.8,271.28 L39.89,270.69 L40.35,270.35 L40.44,269.76 L40.74,269.09 L41.04,268.42 L41.5,268.08 L41.59,267.49 L41.68,266.89 L42.17,266.35 L42.11,266.75 L42.69,266.94 L42.81,266.14 L43.08,265.67 L42.84,265.94" fill="none" stroke="black" stroke-width="0.6" /><path d="M42.65,265.81 L43.14,265.28 L43.23,264.68 L43.17,265.08 L42.74,265.22 L42.68,265.62 L42.62,266.01 L42.35,266.48 L42.22,265.96 L42.53,265.29 L42.16,265.03 L42.07,265.63 L41.64,265.77 L41.94,265.1 L41.54,265.04" fill="none" stroke="black" stroke-width="0.6" /><path d="M41.76,264.97 L41.49,265.44 L40.9,265.25" fill="none" stroke="black" stroke-width="0.6" /><path d="M41.12,265.18 L40.69,265.32 L40.23,265.66" fill="none" stroke="black" stroke-width="0.6" /><path d="M40.04,265.53 L39.95,266.13 L39.71,266.4" fill="none" stroke="black" stroke-width="0.6" /><path d="M39.53,266.27 L39.87,266.72" fill="none" stroke="black" stroke-width="0.6" /><path d="M40.08,266.65 L39.84,266.92" fill="none" stroke="black" stroke-width="0.6" /><path d="M39.65,266.79 L39.99,267.25" fill="none" stroke="black" stroke-width="0.6" /><path d="M40.21,267.18 L39.93,267.65 L40.21,267.18 L40.29,266.59 L40.38,265.99 L40.84,265.65 L41.43,265.84 L41.37,266.24 L41.03,265.78 L40.57,266.12" fill="none" stroke="black" stroke-width="0.6" /><path d="M40.38,265.99 L40.72,266.45" fill="none" stroke="black" stroke-width="0.6" /><path d="M40.94,266.38 L40.48,266.71" fill="none" stroke="black" stroke-width="0.6" /><path d="M40.29,266.59 L40.64,267.04" fill="none" stroke="black" stroke-width="0.6" /><path d="M40.85,266.97 L40.42,267.11 L40.55,267.64 L40.82,267.17 L40.91,266.57 L41.55,266.36 L42.04,265.83 L41.77,266.29 L41.31,266.63" fill="none" stroke="black" stroke-width="0.6" /><path d="M41.12,266.5 L41.46,266.96" fill="none" stroke="black" stroke-width="0.6" /><path d="M41.68,266.89 L41.25,267.03 L41.19,267.43 L41.13,267.83 L40.7,267.97 L40.12,267.78" fill="none" stroke="black" stroke-width="0.6" /><path d="M40.33,267.71 L40.09,267.98" fill="none" stroke="black" stroke-width="0.6" /><path d="M39.9,267.85 L39.63,268.31 L40.0,268.57 L40.67,268.17 L40.4,268.63 L40.53,269.16 L40.07,269.5" fill="none" stroke="black" stroke-width="0.6" /><path d="M39.88,269.37 L40.25,269.63 L39.98,270.09 L39.92,270.49 L39.64,270.96 L39.18,271.29" fill="none" stroke="black" stroke-width="0.6" /><path d="M39.0,271.16 L39.09,271.89 L39.55,271.55 L40.14,271.74 L39.87,272.21 L40.24,272.47 L40.18,272.86 L40.56,273.12 L40.28,273.59 L39.85,273.73 L39.47,273.47 L39.38,272.74 L39.75,273.0 L39.69,273.4 L40.06,273.66 L39.97,272.93 L39.84,272.41 L39.49,271.95 L39.22,272.42 L38.79,272.55 L38.54,272.82" fill="none" stroke="black" stroke-width="0.6" /><path d="M38.35,272.69 L38.7,273.15" fill="none" stroke="black" stroke-width="0.6" /><path d="M38.91,273.08 L39.26,273.54" fill="none" stroke="black" stroke-width="0.6" /><path d="M39.47,273.47 L38.82,273.67 L39.41,273.86 L38.95,274.2" fill="none" stroke="black" stroke-width="0.6" /><path d="M38.76,274.07 L38.71,274.47 L38.82,273.67 L38.58,273.94" fill="none" stroke="black" stroke-width="0.6" /><path d="M38.39,273.81 L38.52,274.34 L38.68,274.67" fill="none" stroke="black" stroke-width="0.6" /><path d="M38.89,274.6 L38.62,275.06 L38.56,275.46 L38.09,275.79" fill="none" stroke="black" stroke-width="0.6" /><path d="M37.9,275.67 L38.06,275.99" fill="none" stroke="black" stroke-width="0.6" /><path d="M38.28,275.92 L38.68,275.99" fill="none" stroke="black" stroke-width="0.6" /><path d="M38.5,275.86 L39.15,275.65 L39.64,275.11 L39.77,275.64 L39.52,275.91" fill="none" stroke="black" stroke-width="0.6" /><path d="M39.34,275.78 L39.46,276.3 L38.84,276.31 L38.97,276.84 L38.69,277.3 L38.23,277.64" fill="none" stroke="black" stroke-width="0.6" /><path d="M38.04,277.51 L38.54,276.98 L38.16,276.72 L37.88,277.18 L37.82,277.58 L37.73,278.17 L37.67,278.57 L37.61,278.96 L38.21,279.15 L37.74,279.49" fill="none" stroke="black" stroke-width="0.6" /><path d="M37.55,279.36 L37.49,279.76 L37.84,280.21" fill="none" stroke="black" stroke-width="0.6" /><path d="M38.06,280.14 L37.62,280.28 L37.35,280.75 L37.07,281.21 L37.23,281.54" fill="none" stroke="black" stroke-width="0.6" /><path d="M37.44,281.47 L37.39,281.86 L37.14,282.13" fill="none" stroke="black" stroke-width="0.6" /><path d="M36.95,282.0 L37.3,282.46" fill="none" stroke="black" stroke-width="0.6" /><path d="M37.52,282.39 L37.05,282.72" fill="none" stroke="black" stroke-width="0.6" /><path d="M36.86,282.59 L36.98,281.8 L36.51,282.14" fill="none" stroke="black" stroke-width="0.6" /><path d="M36.32,282.01 L36.45,282.53 L36.39,282.93 L36.14,283.19" fill="none" stroke="black" stroke-width="0.6" /><path d="M35.95,283.06 L35.7,283.33" fill="none" stroke="black" stroke-width="0.6" /><path d="M35.51,283.2 L35.86,283.66" fill="none" stroke="black" stroke-width="0.6" /><path d="M36.08,283.59 L35.8,284.05 L35.55,284.32" fill="none" stroke="black" stroke-width="0.6" /><path d="M35.36,284.19 L35.71,284.64" fill="none" stroke="black" stroke-width="0.6" /><path d="M35.93,284.58 L35.46,284.91" fill="none" stroke="black" stroke-width="0.6" /><path d="M35.27,284.78 L34.99,285.24 L35.37,285.5 L35.65,285.04 L35.78,285.56 L35.53,285.83" fill="none" stroke="black" stroke-width="0.6" /><path d="M35.34,285.7 L35.28,286.09 L34.84,286.23 L34.97,286.75 L34.91,287.15 L35.04,287.67 L34.69,287.21 L34.78,286.62 L34.18,286.43" fill="none" stroke="black" stroke-width="0.6" /><path d="M34.4,286.36 L34.27,285.84 L33.8,286.17" fill="none" stroke="black" stroke-width="0.6" /><path d="M33.61,286.04 L34.18,286.43 L34.31,286.95 L33.7,286.76" fill="none" stroke="black" stroke-width="0.6" /><path d="M33.92,286.69 L33.83,287.29 L34.18,287.74" fill="none" stroke="black" stroke-width="0.6" /><path d="M34.4,287.68 L33.96,287.81 L33.49,288.14" fill="none" stroke="black" stroke-width="0.6" /><path d="M33.3,288.01 L33.61,287.35 L33.32,286.5 L33.64,285.84 L33.29,285.38 L33.38,284.79 L33.85,284.46 L33.98,284.98 L33.92,285.38 L34.23,284.72 L34.32,284.13 L34.41,283.53 L34.32,282.81 L33.97,282.35 L34.06,281.76 L33.49,281.37 L33.93,281.23 L34.02,280.64 L34.52,280.11 L34.99,279.78 L34.93,280.17 L35.28,280.63" fill="none" stroke="black" stroke-width="0.6" /><path d="M35.5,280.57 L35.03,280.9" fill="none" stroke="black" stroke-width="0.6" /><path d="M34.84,280.77 L34.78,281.16 L34.5,281.63 L34.81,280.97 L34.43,280.7 L34.15,281.17 L34.09,281.56 L34.03,281.96 L34.19,282.29" fill="none" stroke="black" stroke-width="0.6" /><path d="M34.41,282.22 L34.53,282.74 L34.47,283.14 L34.6,283.66 L34.54,284.06 L34.48,284.45 L34.42,284.85 L34.55,285.38 L34.49,285.77 L35.09,285.96 L34.55,285.38 L34.86,284.72 L35.14,284.25 L35.42,283.79 L35.51,283.2 L35.98,282.86 L35.35,282.87 L34.78,282.48 L34.91,283.0 L35.07,283.33" fill="none" stroke="black" stroke-width="0.6" /><path d="M35.29,283.27 L35.01,283.73 L35.14,284.25 L35.01,283.73 L34.66,283.27 L34.75,282.68 L34.63,282.15 L35.28,281.95 L35.16,281.42 L35.47,280.76 L35.37,280.04 L35.87,279.51 L35.81,279.9 L35.53,280.37 L36.18,280.16 L36.56,280.42 L37.03,280.09 L36.97,280.49 L36.69,280.95 L36.22,281.28" fill="none" stroke="black" stroke-width="0.6" /><path d="M36.03,281.15 L36.34,280.49 L35.69,280.7 L35.81,281.22 L35.94,281.75 L35.66,282.21 L35.41,282.47" fill="none" stroke="black" stroke-width="0.6" /><path d="M35.22,282.34 L35.63,282.41" fill="none" stroke="black" stroke-width="0.6" /><path d="M35.44,282.28 L36.07,282.27" fill="none" stroke="black" stroke-width="0.6" /><path d="M35.88,282.14 L36.0,281.35 L36.57,281.74 L36.66,281.15 L36.94,280.68 L37.44,280.15 L37.52,279.56 L37.61,278.96 L37.3,278.31 L37.02,278.77 L37.37,279.23" fill="none" stroke="black" stroke-width="0.6" /><path d="M37.58,279.16 L37.15,279.3 L37.09,279.69 L36.62,280.03" fill="none" stroke="black" stroke-width="0.6" /><path d="M36.43,279.9 L36.3,279.37 L36.61,278.71 L36.02,278.52" fill="none" stroke="black" stroke-width="0.6" /><path d="M36.24,278.45 L35.77,278.78" fill="none" stroke="black" stroke-width="0.6" /><path d="M35.58,278.65 L35.96,278.91 L35.68,279.38 L35.21,279.71" fill="none" stroke="black" stroke-width="0.6" /><path d="M35.02,279.58 L35.49,279.25 L35.58,278.65 L35.89,277.99 L35.76,277.47 L36.26,276.94 L36.35,276.34 L36.48,276.87 L36.91,276.73 L37.22,276.07 L37.6,276.33 L37.32,276.79 L37.07,277.06" fill="none" stroke="black" stroke-width="0.6" /><path d="M36.88,276.93 L37.01,277.46 L36.23,277.13" fill="none" stroke="black" stroke-width="0.6" /><path d="M36.45,277.07 L36.2,277.33" fill="none" stroke="black" stroke-width="0.6" /><path d="M36.01,277.2 L36.39,277.46 L36.14,277.73" fill="none" stroke="black" stroke-width="0.6" /><path d="M35.95,277.6 L36.08,278.12 L36.76,277.72 L36.49,278.19 L36.83,278.64" fill="none" stroke="black" stroke-width="0.6" /><path d="M37.05,278.57 L36.77,279.04 L36.71,279.43 L36.99,278.97 L36.89,278.25 L37.58,277.84 L37.48,277.12 L37.79,276.46 L37.87,275.86 L38.37,275.33 L37.75,275.34 L37.84,274.74 L38.21,275.0 L38.3,274.41 L38.2,273.68 L38.29,273.09 L37.83,273.42" fill="none" stroke="black" stroke-width="0.6" /><path d="M37.64,273.29 L37.18,273.63" fill="none" stroke="black" stroke-width="0.6" /><path d="M36.99,273.5 L37.12,274.03 L37.06,274.42 L37.55,273.89 L37.68,274.41 L37.4,274.88 L37.72,275.54 L37.31,275.47" fill="none" stroke="black" stroke-width="0.6" /><path d="M37.53,275.41 L37.0,274.82 L36.91,275.41 L36.82,276.01 L36.2,276.01" fill="none" stroke="black" stroke-width="0.6" /><path d="M36.19,276.01 L36.29,275.42 L36.56,274.95 L36.47,274.23 L36.56,273.64 L36.25,272.98 L36.16,273.57 L36.09,273.97 L36.03,274.37 L36.19,274.69" fill="none" stroke="black" stroke-width="0.6" /><path d="M36.41,274.63 L35.94,274.96" fill="none" stroke="black" stroke-width="0.6" /><path d="M35.76,274.83 L35.91,275.16" fill="none" stroke="black" stroke-width="0.6" /><path d="M36.13,275.09 L35.85,275.55 L35.79,275.95 L35.32,276.28" fill="none" stroke="black" stroke-width="0.6" /><path d="M35.14,276.15 L35.73,276.35 L35.67,276.74 L35.39,277.21 L35.52,277.73 L35.24,278.2 L35.39,278.52" fill="none" stroke="black" stroke-width="0.6" /><path d="M35.61,278.46 L35.33,278.92 L35.27,279.32 L34.8,279.65" fill="none" stroke="black" stroke-width="0.6" /><path d="M34.62,279.52 L34.74,280.04 L34.27,280.38" fill="none" stroke="black" stroke-width="0.6" /><path d="M34.09,280.25 L34.37,279.78 L34.87,279.25 L35.36,278.72 L35.02,278.26 L34.96,278.66 L34.68,279.12 L34.58,278.4 L34.3,278.86 L34.24,279.26 L33.99,279.52" fill="none" stroke="black" stroke-width="0.6" /><path d="M33.8,279.39 L34.18,279.65 L33.93,279.92" fill="none" stroke="black" stroke-width="0.6" /><path d="M33.74,279.79 L33.9,280.12" fill="none" stroke="black" stroke-width="0.6" /><path d="M34.12,280.05 L34.06,280.44 L33.81,280.71" fill="none" stroke="black" stroke-width="0.6" /><path d="M33.62,280.58 L33.71,279.98 L33.8,279.39 L33.89,278.8 L34.39,278.27 L34.89,277.74 L34.33,277.35 L34.05,277.81 L34.17,278.34 L33.74,278.47 L33.83,277.88 L33.92,277.28 L33.61,276.63 L33.89,276.16 L33.98,275.57 L34.11,276.1 L34.23,276.62 L34.54,275.96 L34.45,275.24 L34.95,274.71 L34.63,274.05 L34.79,274.38" fill="none" stroke="black" stroke-width="0.6" /><path d="M35.01,274.31 L35.35,274.77" fill="none" stroke="black" stroke-width="0.6" /><path d="M35.57,274.7 L35.1,275.03" fill="none" stroke="black" stroke-width="0.6" /><path d="M34.92,274.9 L35.04,275.43 L34.95,276.02 L34.67,276.49 L34.39,276.95 L34.8,277.01" fill="none" stroke="black" stroke-width="0.6" /><path d="M34.61,276.88 L35.2,277.08 L35.11,276.35 L35.6,275.82 L35.29,275.16 L35.79,274.63 L35.88,274.04 L35.57,273.38 L35.84,272.92 L35.94,272.32 L36.03,271.73 L36.15,272.25 L36.09,272.65 L36.59,272.12 L36.68,271.52 L36.3,271.26 L36.06,271.53" fill="none" stroke="black" stroke-width="0.6" /><path d="M35.87,271.4 L35.81,271.8 L35.75,272.19 L35.41,271.73 L35.07,271.27 L35.16,270.68 L35.31,271.01" fill="none" stroke="black" stroke-width="0.6" /><path d="M35.53,270.94 L35.65,271.47 L35.56,270.74 L36.15,270.93 L36.83,270.53 L36.21,270.54 L36.33,269.74 L36.64,269.08 L36.58,269.48 L36.7,270.0 L37.32,270.0" fill="none" stroke="black" stroke-width="0.6" /><path d="M37.14,269.87 L37.44,269.2 L37.75,268.54 L37.9,268.87" fill="none" stroke="black" stroke-width="0.6" /><path d="M38.12,268.8 L37.87,269.07" fill="none" stroke="black" stroke-width="0.6" /><path d="M37.69,268.94 L37.6,269.53 L37.51,270.13 L37.26,270.39" fill="none" stroke="black" stroke-width="0.6" /><path d="M37.08,270.26 L37.01,270.66 L36.92,271.26 L36.65,271.72 L36.55,272.32 L36.93,272.58 L36.68,272.84" fill="none" stroke="black" stroke-width="0.6" /><path d="M36.49,272.71 L36.65,273.04" fill="none" stroke="black" stroke-width="0.6" /><path d="M36.87,272.97 L36.81,273.37 L37.11,272.71 L37.58,272.37 L37.52,272.77 L37.89,273.03 L37.98,272.43 L38.41,272.29 L38.91,271.76 L39.0,271.16 L39.08,270.57 L39.76,270.16 L39.66,269.44 L39.75,268.84 L39.51,269.11" fill="none" stroke="black" stroke-width="0.6" /><path d="M39.32,268.98 L39.45,269.51 L39.58,270.03 L38.93,270.24 L38.47,270.58" fill="none" stroke="black" stroke-width="0.6" /><path d="M38.28,270.45 L38.44,270.78" fill="none" stroke="black" stroke-width="0.6" /><path d="M38.65,270.71 L38.38,271.17 L38.32,271.57 L38.23,272.16 L37.61,272.17 L37.91,271.51 L38.22,270.84 L37.6,270.85 L37.73,271.38 L37.45,271.84 L37.17,272.31 L37.3,271.52 L37.39,270.92 L37.66,270.46 L37.78,269.66 L38.28,269.13 L38.37,268.53 L38.86,268.0 L39.01,268.32" fill="none" stroke="black" stroke-width="0.6" /><path d="M39.23,268.25 L38.77,268.59" fill="none" stroke="black" stroke-width="0.6" /><path d="M38.58,268.46 L38.71,268.99 L38.22,269.52 L38.34,270.05 L38.99,269.84 L38.89,269.12 L39.38,268.58 L39.29,267.86 L39.19,267.13 L39.35,267.46" fill="none" stroke="black" stroke-width="0.6" /><path d="M39.56,267.39 L39.69,267.92 L39.78,267.32 L39.44,266.86 L39.13,266.21 L38.67,266.54" fill="none" stroke="black" stroke-width="0.6" /><path d="M38.48,266.41 L38.64,266.74" fill="none" stroke="black" stroke-width="0.6" /><path d="M38.85,266.67 L38.79,267.07 L38.52,267.54 L38.42,266.81 L38.36,267.21 L38.09,267.68 L38.03,268.07 L37.47,267.68 L37.41,268.08 L37.13,268.55 L36.52,268.55 L36.42,269.15 L35.78,269.35 L36.15,269.61 L36.09,270.01 L35.62,270.35" fill="none" stroke="black" stroke-width="0.6" /><path d="M35.44,270.21 L34.85,270.02" fill="none" stroke="black" stroke-width="0.6" /><path d="M35.07,269.95 L35.0,270.35 L34.73,270.81 L34.66,271.21 L34.04,271.22 L34.42,271.48 L34.14,271.94 L34.04,272.54 L33.98,272.93 L34.14,273.26" fill="none" stroke="black" stroke-width="0.6" /><path d="M34.35,273.19 L34.07,273.66 L34.17,273.06 L34.26,272.47 L34.88,272.46" fill="none" stroke="black" stroke-width="0.6" /><path d="M34.7,272.33 L34.79,271.74 L34.91,272.27 L35.25,272.72" fill="none" stroke="black" stroke-width="0.6" /><path d="M35.47,272.66 L35.6,273.18 L35.53,273.58 L35.26,274.04 L34.73,273.45 L35.01,272.99 L34.6,272.93" fill="none" stroke="black" stroke-width="0.6" /><path d="M34.82,272.86 L34.76,273.26 L34.7,273.65 L34.42,274.12 L33.95,274.45" fill="none" stroke="black" stroke-width="0.6" /><path d="M33.76,274.32 L33.86,273.72 L33.95,273.13 L33.48,273.46" fill="none" stroke="black" stroke-width="0.6" /><path d="M33.3,273.33 L33.45,273.66" fill="none" stroke="black" stroke-width="0.6" /><path d="M33.67,273.59 L33.24,273.73 L33.17,274.12 L32.71,274.46" fill="none" stroke="black" stroke-width="0.6" /><path d="M32.52,274.32 L33.2,273.93 L33.33,273.13 L33.83,272.6 L33.92,272.01 L33.45,272.34" fill="none" stroke="black" stroke-width="0.6" /><path d="M33.27,272.21 L32.99,272.67 L33.11,273.2 L32.68,273.34 L32.4,273.8 L32.33,274.19 L32.27,274.59 L32.61,275.05" fill="none" stroke="black" stroke-width="0.6" /><path d="M32.83,274.98 L32.55,275.45 L32.21,274.99 L31.9,274.33 L31.83,274.72 L31.99,275.05" fill="none" stroke="black" stroke-width="0.6" /><path d="M32.21,274.99 L31.93,275.45 L32.05,275.97 L31.99,276.37 L31.52,276.7" fill="none" stroke="black" stroke-width="0.6" /><path d="M31.33,276.57 L31.74,276.63" fill="none" stroke="black" stroke-width="0.6" /><path d="M31.55,276.5 L31.96,276.57" fill="none" stroke="black" stroke-width="0.6" /><path d="M31.77,276.44 L32.39,276.43" fill="none" stroke="black" stroke-width="0.6" /><path d="M32.21,276.3 L32.71,275.77 L32.83,274.98 L33.3,274.65 L33.24,275.05 L33.17,275.44 L32.89,275.91 L32.42,276.24" fill="none" stroke="black" stroke-width="0.6" /><path d="M32.24,276.11 L32.58,276.57" fill="none" stroke="black" stroke-width="0.6" /><path d="M32.8,276.5 L32.74,276.89 L32.46,277.36 L32.39,277.75 L32.33,278.15 L32.8,277.82 L32.89,277.22 L32.99,276.63 L33.08,276.04 L33.2,276.56 L33.3,275.97 L33.39,275.38 L33.86,275.04 L34.36,274.51 L34.08,274.98 L33.58,275.51 L33.7,276.03 L33.64,276.43 L33.39,276.69" fill="none" stroke="black" stroke-width="0.6" /><path d="M33.2,276.56 L33.33,277.09 L33.67,277.55" fill="none" stroke="black" stroke-width="0.6" /><path d="M33.89,277.48 L33.64,277.75" fill="none" stroke="black" stroke-width="0.6" /><path d="M33.46,277.62 L33.08,277.35 L33.02,277.75 L32.96,278.15 L32.89,278.54 L32.83,278.94 L32.96,279.46 L32.49,279.79" fill="none" stroke="black" stroke-width="0.6" /><path d="M32.3,279.66 L32.64,280.12" fill="none" stroke="black" stroke-width="0.6" /><path d="M32.86,280.06 L32.43,280.19 L32.14,280.65 L32.24,280.06 L32.33,279.46 L32.8,279.13 L32.49,278.48 L32.42,278.87 L32.36,279.27 L32.08,279.73 L32.17,279.14 L31.86,278.48 L31.96,277.89 L32.05,277.29 L32.55,276.76 L32.11,276.9 L31.83,277.36 L31.77,277.75 L31.46,277.1 L31.21,277.36" fill="none" stroke="black" stroke-width="0.6" /><path d="M31.02,277.23 L31.17,277.56" fill="none" stroke="black" stroke-width="0.6" /><path d="M31.39,277.49 L31.33,277.89 L31.27,278.28 L30.98,278.74 L30.7,279.21 L31.11,279.27" fill="none" stroke="black" stroke-width="0.6" /><path d="M30.92,279.14 L31.08,279.47" fill="none" stroke="black" stroke-width="0.6" /><path d="M31.3,279.4 L31.17,278.88 L31.49,278.22 L31.83,278.68" fill="none" stroke="black" stroke-width="0.6" /><path d="M32.05,278.61 L31.61,278.74 L31.95,279.2" fill="none" stroke="black" stroke-width="0.6" /><path d="M32.17,279.14 L31.74,279.27 L31.67,279.66 L31.2,279.99" fill="none" stroke="black" stroke-width="0.6" /><path d="M31.01,279.86 L30.95,280.26 L30.89,280.65 L30.61,281.11 L30.13,281.44" fill="none" stroke="black" stroke-width="0.6" /><path d="M29.95,281.31 L29.66,281.77 L29.41,282.04" fill="none" stroke="black" stroke-width="0.6" /><path d="M29.22,281.9 L29.32,281.31 L29.44,280.52 L29.13,279.86 L29.07,280.26 L29.0,280.65 L28.69,280.0 L28.82,279.21 L28.95,279.73 L29.54,279.93 L30.04,279.4 L29.76,279.86 L29.7,280.26 L29.63,280.65 L29.57,281.05 L29.69,281.58 L30.2,281.05 L29.66,280.46 L30.14,280.13 L30.83,279.73 L30.36,280.06" fill="none" stroke="black" stroke-width="0.6" /><path d="M30.17,279.93 L30.32,280.26" fill="none" stroke="black" stroke-width="0.6" /><path d="M30.54,280.19 L31.01,279.86 L30.45,279.47 L30.77,278.81 L30.86,278.22 L30.77,277.49 L30.49,277.95 L30.42,278.35 L29.95,278.68" fill="none" stroke="black" stroke-width="0.6" /><path d="M29.76,278.55 L29.89,279.07 L29.6,279.54 L29.51,278.81 L30.2,278.42 L29.89,277.76 L30.55,277.56 L31.05,277.03 L31.55,276.5 L31.86,275.84 L31.55,275.19 L31.49,275.58 L31.43,275.98 L30.87,275.58 L31.02,275.91" fill="none" stroke="black" stroke-width="0.6" /><path d="M31.24,275.85 L30.77,276.18" fill="none" stroke="black" stroke-width="0.6" /><path d="M30.58,276.04 L30.52,276.44 L31.18,276.24 L30.93,276.51" fill="none" stroke="black" stroke-width="0.6" /><path d="M30.74,276.37 L30.68,276.77 L30.02,276.97 L30.17,277.3" fill="none" stroke="black" stroke-width="0.6" /><path d="M30.39,277.23 L29.74,277.43 L29.86,277.96 L29.39,278.28" fill="none" stroke="black" stroke-width="0.6" /><path d="M29.2,278.15 L29.14,278.55 L29.26,279.07 L28.7,278.68 L28.41,279.14 L28.13,279.6 L28.29,279.93" fill="none" stroke="black" stroke-width="0.6" /><path d="M28.51,279.86 L28.44,280.26 L28.78,280.72" fill="none" stroke="black" stroke-width="0.6" /><path d="M29.0,280.65 L28.56,280.79 L28.5,281.18 L28.62,281.71 L28.56,282.1 L28.88,281.44 L29.0,281.97 L28.94,282.36 L28.87,282.76 L28.59,283.22 L28.49,283.81 L28.84,284.27" fill="none" stroke="black" stroke-width="0.6" /><path d="M29.06,284.21 L28.77,284.67 L28.9,285.19 L28.84,285.59 L29.12,285.13 L29.22,284.53 L28.9,283.88 L28.81,283.15 L29.09,282.69 L29.22,283.22 L29.12,283.81 L29.56,283.68 L29.47,282.96 L29.79,282.3 L30.29,281.77 L30.64,282.23" fill="none" stroke="black" stroke-width="0.6" /><path d="M30.86,282.17 L30.42,282.3 L29.98,282.43 L29.88,283.02 L30.54,282.83 L30.67,283.35 L30.83,283.68" fill="none" stroke="black" stroke-width="0.6" /><path d="M31.05,283.61 L30.95,282.89 L30.6,282.43 L30.51,281.71 L31.01,281.18 L31.33,280.52 L31.83,279.99 L31.77,280.39 L32.11,280.85" fill="none" stroke="black" stroke-width="0.6" /><path d="M32.33,280.78 L31.67,280.98 L31.61,281.38 L30.98,281.38 L30.92,281.77 L31.05,282.3 L31.14,281.71 L31.74,281.9 L31.64,282.49 L31.36,282.96 L31.3,283.35 L31.23,283.74 L31.17,284.14 L30.92,284.4" fill="none" stroke="black" stroke-width="0.6" /><path d="M30.73,284.27 L30.1,284.27 L30.04,284.67 L29.97,285.06 L30.1,285.59 L30.04,285.98 L29.97,286.38 L29.91,286.77 L30.29,287.03 L30.39,286.44 L30.07,285.78 L30.35,285.32 L30.67,284.67 L30.61,285.06 L30.54,285.46 L30.48,285.85 L30.61,286.38 L30.54,286.77 L30.48,287.16 L30.42,287.56 L29.88,286.97 L29.82,287.36 L29.94,287.89 L29.69,288.15" fill="none" stroke="black" stroke-width="0.6" /><path d="M29.5,288.02 L29.21,288.48 L28.93,288.94 L28.87,289.33 L28.99,289.86 L28.52,290.18" fill="none" stroke="black" stroke-width="0.6" /><path d="M28.33,290.05 L28.64,289.39 L28.96,288.74 L29.47,288.21 L28.83,288.21 L29.15,287.56 L29.28,288.08 L29.75,287.75 L29.21,287.16 L28.55,287.36 L28.9,287.82" fill="none" stroke="black" stroke-width="0.6" /><path d="M29.12,287.75 L28.87,288.02" fill="none" stroke="black" stroke-width="0.6" /><path d="M28.68,287.88 L28.61,288.28 L28.55,288.67 L28.49,289.07 L28.2,289.53 L28.1,290.12 L28.45,290.58" fill="none" stroke="black" stroke-width="0.6" /><path d="M28.68,290.51 L28.2,290.84" fill="none" stroke="black" stroke-width="0.6" /><path d="M28.01,290.71 L27.72,291.16 L27.05,291.36 L26.8,291.62" fill="none" stroke="black" stroke-width="0.6" /><path d="M26.61,291.49 L26.32,291.95 L26.25,292.34 L26.16,291.62 L26.45,291.16 L26.77,290.5 L26.64,289.98 L27.12,289.65 L27.02,290.24 L26.96,290.64 L27.63,290.44 L28.14,289.92 L27.66,290.25" fill="none" stroke="black" stroke-width="0.6" /><path d="M27.47,290.11 L27.6,289.33 L27.69,288.74 L28.01,288.08 L27.95,288.47 L28.07,289.0 L28.01,289.39 L28.33,288.74 L28.42,288.15 L28.52,287.56 L27.88,287.55 L27.82,287.95 L27.5,287.29 L27.95,287.16 L28.58,287.16" fill="none" stroke="black" stroke-width="0.6" /><path d="M28.39,287.03 L29.06,286.83 L29.15,286.24 L29.28,286.77 L29.66,287.03 L29.75,286.44 L29.44,285.78 L29.75,285.13 L29.85,284.53 L30.35,284.01 L30.48,283.22 L30.04,283.35 L29.97,283.75 L29.72,284.01" fill="none" stroke="black" stroke-width="0.6" /><path d="M29.53,283.88 L29.47,284.27 L29.41,284.67 L29.34,285.06 L29.28,285.45 L28.99,285.91 L28.93,286.31 L28.68,286.57" fill="none" stroke="black" stroke-width="0.6" /><path d="M28.49,286.44 L28.2,286.9 L28.3,286.31 L28.58,285.85 L28.11,286.18" fill="none" stroke="black" stroke-width="0.6" /><path d="M27.92,286.04 L28.08,286.37" fill="none" stroke="black" stroke-width="0.6" /><path d="M28.3,286.31 L27.82,286.63" fill="none" stroke="black" stroke-width="0.6" /><path d="M27.63,286.5 L28.14,285.98 L28.05,285.26 L28.39,285.72" fill="none" stroke="black" stroke-width="0.6" /><path d="M28.62,285.65 L28.52,284.93 L28.62,284.34 L28.3,283.68 L28.62,283.02 L28.31,282.36 L28.22,281.64 L28.31,281.05 L28.0,280.39 L27.91,279.67 L27.85,280.06 L27.41,280.19 L27.81,280.26" fill="none" stroke="black" stroke-width="0.6" /><path d="M27.63,280.13 L27.78,280.45" fill="none" stroke="black" stroke-width="0.6" /><path d="M28.0,280.39 L27.94,280.78 L27.87,281.18 L28.03,281.51" fill="none" stroke="black" stroke-width="0.6" /><path d="M28.25,281.44 L27.77,281.77" fill="none" stroke="black" stroke-width="0.6" /><path d="M27.59,281.64 L27.74,281.97" fill="none" stroke="black" stroke-width="0.6" /><path d="M27.96,281.9 L27.9,282.3 L27.83,282.69 L27.55,283.15 L27.48,283.54 L27.77,283.09 L28.28,282.56 L28.18,283.15 L28.11,283.55 L27.83,284.01 L28.24,284.07" fill="none" stroke="black" stroke-width="0.6" /><path d="M28.05,283.94 L28.18,284.47 L27.8,284.2 L27.32,284.53" fill="none" stroke="black" stroke-width="0.6" /><path d="M27.13,284.4 L27.73,284.6 L27.67,284.99 L27.6,285.39 L27.54,285.78 L27.48,286.17 L27.41,286.57 L27.31,287.16 L27.03,287.62 L27.19,287.95" fill="none" stroke="black" stroke-width="0.6" /><path d="M27.41,287.88 L27.34,288.27 L27.47,288.8 L27.41,289.19 L27.15,289.46" fill="none" stroke="black" stroke-width="0.6" /><path d="M26.96,289.32 L26.87,288.6 L26.96,288.01 L27.06,287.42 L26.75,286.76 L27.22,286.44 L27.54,285.78 L27.64,285.19 L27.1,284.59 L27.2,284.0 L27.3,283.41 L27.39,282.82 L27.49,282.23 L27.59,281.64 L27.28,280.98 L27.72,280.85 L27.15,280.45 L27.09,280.85 L27.02,281.24 L27.4,281.51 L27.33,281.9 L26.67,282.09 L26.77,281.5 L26.87,280.91 L26.43,281.04 L26.36,281.44 L26.48,281.96 L26.61,282.49 L26.35,282.75" fill="none" stroke="black" stroke-width="0.6" /><path d="M26.16,282.62 L25.88,283.08 L25.78,283.67 L25.9,284.19 L26.28,284.46 L25.99,284.92 L25.93,285.31 L25.83,285.9 L25.77,286.3 L25.48,286.75 L24.84,286.75 L25.0,287.08" fill="none" stroke="black" stroke-width="0.6" /><path d="M25.22,287.02 L24.94,287.47 L24.59,287.01 L24.72,286.22 L24.24,286.55" fill="none" stroke="black" stroke-width="0.6" /><path d="M24.05,286.42 L24.18,286.94 L23.54,286.94 L23.64,286.35 L23.74,285.76 L24.06,285.1 L23.62,285.23 L23.53,284.51 L23.85,283.85 L23.97,284.38 L23.91,284.77 L24.01,284.18 L24.38,284.45 L24.32,284.84 L24.25,285.23 L23.78,285.56" fill="none" stroke="black" stroke-width="0.6" /><path d="M23.59,285.43 L24.15,285.83 L24.09,286.22 L24.41,285.56 L24.51,284.97 L24.42,284.25 L24.52,283.66 L24.86,284.12" fill="none" stroke="black" stroke-width="0.6" /><path d="M25.08,284.06 L24.83,284.32" fill="none" stroke="black" stroke-width="0.6" /><path d="M24.64,284.19 L25.02,284.45 L24.95,284.85 L24.89,285.24 L24.79,285.83 L25.16,286.1 L25.1,286.49 L25.58,286.16 L25.67,285.57 L25.8,284.79 L25.33,285.11" fill="none" stroke="black" stroke-width="0.6" /><path d="M25.14,284.98 L25.52,285.24 L25.45,285.64 L24.85,285.44" fill="none" stroke="black" stroke-width="0.6" /><path d="M25.07,285.37 L25.39,284.72 L25.49,284.13 L25.62,283.34 L25.72,282.75 L26.01,282.29 L25.38,282.29 L25.31,282.68 L25.25,283.07 L25.37,283.6 L25.3,283.99 L25.05,284.26" fill="none" stroke="black" stroke-width="0.6" /><path d="M24.86,284.12 L24.99,283.33 L24.9,282.61 L24.84,283.0 L24.36,283.33" fill="none" stroke="black" stroke-width="0.6" /><path d="M24.17,283.2 L24.3,283.72 L23.66,283.72 L23.37,284.18 L23.31,284.57 L23.24,284.96 L23.18,285.36 L23.52,285.82" fill="none" stroke="black" stroke-width="0.6" /><path d="M23.74,285.76 L23.33,285.69" fill="none" stroke="black" stroke-width="0.6" /><path d="M23.55,285.62 L23.11,285.75 L23.04,286.14 L22.92,285.62 L23.02,285.03 L22.93,284.3 L22.64,284.76 L22.58,285.15 L22.51,285.55 L22.44,285.94 L22.37,286.33 L22.31,286.73 L22.63,286.07 L22.56,286.47 L22.88,287.13 L22.62,287.39" fill="none" stroke="black" stroke-width="0.6" /><path d="M22.43,287.25 L21.86,286.85 L22.19,286.2 L22.06,285.67 L22.39,285.02 L21.91,285.34" fill="none" stroke="black" stroke-width="0.6" /><path d="M21.72,285.21 L21.43,285.67 L21.58,286.0" fill="none" stroke="black" stroke-width="0.6" /><path d="M21.81,285.93 L21.74,286.33 L21.45,286.78 L21.83,287.05 L21.95,287.58 L21.5,287.7 L21.25,287.96" fill="none" stroke="black" stroke-width="0.6" /><path d="M21.06,287.83 L21.57,287.31 L21.13,287.44 L21.02,288.03 L20.71,287.36 L21.19,287.04 L21.52,286.39 L21.21,285.73 L21.33,286.26 L20.69,286.25 L20.44,286.51" fill="none" stroke="black" stroke-width="0.6" /><path d="M20.25,286.37 L19.96,286.83 L19.39,286.43 L19.73,286.89" fill="none" stroke="black" stroke-width="0.6" /><path d="M19.96,286.83 L19.51,286.95 L19.44,287.35 L19.37,287.74 L19.25,287.21 L18.77,287.53" fill="none" stroke="black" stroke-width="0.6" /><path d="M18.58,287.4 L18.7,287.93 L18.44,288.18" fill="none" stroke="black" stroke-width="0.6" /><path d="M18.26,288.05 L17.95,287.39 L18.36,287.46" fill="none" stroke="black" stroke-width="0.6" /><path d="M18.17,287.33 L18.58,287.4" fill="none" stroke="black" stroke-width="0.6" /><path d="M18.39,287.26 L18.87,286.94 L18.31,286.54 L17.83,286.86" fill="none" stroke="black" stroke-width="0.6" /><path d="M17.64,286.73 L18.2,287.13 L17.76,287.25 L17.67,286.53 L17.23,286.65 L17.34,287.18 L17.0,286.72 L16.71,287.17 L17.05,287.64" fill="none" stroke="black" stroke-width="0.6" /><path d="M17.28,287.57 L16.79,287.89" fill="none" stroke="black" stroke-width="0.6" /><path d="M16.6,287.76 L16.34,288.02" fill="none" stroke="black" stroke-width="0.6" /><path d="M16.16,287.88 L16.26,287.29 L16.55,286.84 L16.07,287.16" fill="none" stroke="black" stroke-width="0.6" /><path d="M15.88,287.02 L16.23,287.49" fill="none" stroke="black" stroke-width="0.6" /><path d="M16.45,287.43 L16.0,287.55 L15.92,286.83 L15.62,287.28 L15.33,287.73 L14.85,288.05" fill="none" stroke="black" stroke-width="0.6" /><path d="M14.66,287.92 L14.95,287.46 L15.47,286.95 L15.02,287.07 L14.73,287.52 L14.13,287.31" fill="none" stroke="black" stroke-width="0.6" /><path d="M14.35,287.25 L13.87,287.57" fill="none" stroke="black" stroke-width="0.6" /><path d="M13.68,287.43 L13.79,287.96 L14.5,287.58 L14.43,287.98 L14.33,288.56 L13.76,288.16 L13.5,288.41" fill="none" stroke="black" stroke-width="0.6" /><path d="M13.31,288.28 L13.42,287.69 L13.16,287.95" fill="none" stroke="black" stroke-width="0.6" /><path d="M12.97,287.81 L13.31,288.28" fill="none" stroke="black" stroke-width="0.6" /><path d="M13.53,288.22 L13.09,288.34 L12.74,287.87 L12.26,288.19" fill="none" stroke="black" stroke-width="0.6" /><path d="M12.07,288.05 L12.22,288.38" fill="none" stroke="black" stroke-width="0.6" /><path d="M12.45,288.32 L12.56,288.85 L13.24,288.67 L13.81,289.08 L14.29,288.76 L15.0,288.38 L15.52,287.87 L15.45,288.26 L15.19,288.52" fill="none" stroke="black" stroke-width="0.6" /><path d="M15.0,288.38 L14.93,288.77 L15.27,289.24" fill="none" stroke="black" stroke-width="0.6" /><path d="M15.5,289.18 L15.6,288.59 L15.93,287.94 L16.09,288.27" fill="none" stroke="black" stroke-width="0.6" /><path d="M16.31,288.21 L16.02,288.67 L15.53,288.98" fill="none" stroke="black" stroke-width="0.6" /><path d="M15.34,288.85 L15.46,289.38 L16.14,289.19 L16.46,288.54 L16.76,288.09 L17.46,287.71 L17.58,288.24 L17.1,288.55" fill="none" stroke="black" stroke-width="0.6" /><path d="M16.91,288.42 L16.84,288.81 L17.55,288.43 L17.67,288.96 L17.57,289.55 L17.89,288.9 L18.38,288.58 L18.5,289.1 L18.88,289.37 L19.2,288.72 L18.72,289.04" fill="none" stroke="black" stroke-width="0.6" /><path d="M18.53,288.91 L18.86,288.26 L19.34,287.94 L19.68,288.4" fill="none" stroke="black" stroke-width="0.6" /><path d="M19.91,288.34 L19.62,288.79 L19.32,289.25 L19.84,288.73 L19.74,289.32 L20.06,288.67 L19.98,287.95 L19.67,287.28 L20.01,287.75" fill="none" stroke="black" stroke-width="0.6" /><path d="M20.23,287.69 L20.15,286.96 L20.78,286.97" fill="none" stroke="black" stroke-width="0.6" /><path d="M20.59,286.84 L20.71,287.36 L20.42,287.82 L20.13,288.28 L20.73,288.48 L20.25,288.8" fill="none" stroke="black" stroke-width="0.6" /><path d="M20.06,288.67 L20.41,289.13" fill="none" stroke="black" stroke-width="0.6" /><path d="M20.63,289.07 L21.11,288.75 L20.54,288.35 L21.18,288.36" fill="none" stroke="black" stroke-width="0.6" /><path d="M20.99,288.22 L21.63,288.23" fill="none" stroke="black" stroke-width="0.6" /><path d="M21.44,288.1 L21.78,288.56" fill="none" stroke="black" stroke-width="0.6" /><path d="M22.01,288.5 L21.37,288.49 L21.49,289.02 L21.01,289.34" fill="none" stroke="black" stroke-width="0.6" /><path d="M20.82,289.2 L21.2,289.47 L21.49,289.02 L21.87,289.28 L21.58,289.74 L22.12,290.33" fill="none" stroke="black" stroke-width="0.6" /><path d="M22.34,290.27 L22.25,289.55 L21.94,288.89 L22.42,288.57 L22.77,289.03" fill="none" stroke="black" stroke-width="0.6" /><path d="M22.99,288.97 L22.73,289.23" fill="none" stroke="black" stroke-width="0.6" /><path d="M22.54,289.09 L22.67,289.62 L23.08,289.69" fill="none" stroke="black" stroke-width="0.6" /><path d="M22.89,289.56 L22.57,290.21 L22.28,290.66 L22.76,290.34 L23.24,290.02 L23.37,289.23 L23.24,288.71 L23.38,287.92 L23.09,288.38 L22.49,288.17" fill="none" stroke="black" stroke-width="0.6" /><path d="M22.71,288.11 L22.3,288.04" fill="none" stroke="black" stroke-width="0.6" /><path d="M22.52,287.98 L22.23,288.43 L21.66,288.03 L22.33,287.84 L22.71,288.11 L22.84,287.32 L22.98,286.54 L23.13,286.87" fill="none" stroke="black" stroke-width="0.6" /><path d="M23.35,286.8 L23.48,287.33 L23.19,287.79 L23.7,287.27 L24.05,287.73" fill="none" stroke="black" stroke-width="0.6" /><path d="M24.27,287.67 L23.79,287.99" fill="none" stroke="black" stroke-width="0.6" /><path d="M23.6,287.86 L23.95,288.32" fill="none" stroke="black" stroke-width="0.6" /><path d="M24.17,288.26 L23.69,288.58" fill="none" stroke="black" stroke-width="0.6" /><path d="M23.5,288.45 L23.21,288.9 L23.59,289.17 L23.72,289.7 L23.81,289.11 L24.33,288.58 L23.98,288.12 L24.3,287.47 L24.68,287.73 L25.35,287.54 L25.45,286.95 L25.92,286.63 L26.21,286.17 L26.31,285.58 L26.22,284.85 L26.69,284.53 L26.12,284.13 L26.22,283.54 L26.57,284.0" fill="none" stroke="black" stroke-width="0.6" /><path d="M26.79,283.94 L26.7,283.21 L26.83,282.42 L26.98,282.75" fill="none" stroke="black" stroke-width="0.6" /><path d="M27.2,282.69 L26.92,283.15 L26.85,283.54 L26.98,284.07 L26.91,284.46 L27.26,284.92" fill="none" stroke="black" stroke-width="0.6" /><path d="M27.48,284.86 L27.19,285.32 L27.13,285.71 L26.84,286.17 L26.78,286.56 L26.68,287.16 L26.39,287.61 L26.55,287.94" fill="none" stroke="black" stroke-width="0.6" /><path d="M26.77,287.88 L26.52,288.14" fill="none" stroke="black" stroke-width="0.6" /><path d="M26.33,288.01 L26.68,288.47" fill="none" stroke="black" stroke-width="0.6" /><path d="M26.9,288.4 L26.83,288.8 L26.2,288.79 L26.33,288.01 L26.43,287.42 L25.95,287.74" fill="none" stroke="black" stroke-width="0.6" /><path d="M25.76,287.61 L25.88,288.14 L26.01,288.66 L25.94,289.06 L26.55,289.26 L26.48,289.65 L26.1,289.38 L25.81,289.84 L26.23,289.91" fill="none" stroke="black" stroke-width="0.6" /><path d="M26.04,289.78 L26.39,290.24" fill="none" stroke="black" stroke-width="0.6" /><path d="M26.61,290.18 L26.32,290.63 L26.22,291.22 L26.1,290.7 L25.46,290.69 L25.84,290.96 L25.59,291.22" fill="none" stroke="black" stroke-width="0.6" /><path d="M25.4,291.09 L25.75,291.55" fill="none" stroke="black" stroke-width="0.6" /><path d="M25.97,291.48 L25.9,291.88 L25.84,292.27 L25.52,291.61 L25.46,292.01 L25.01,292.13 L24.92,291.41 L25.4,291.09 L25.3,290.36 L25.62,289.71 L25.72,289.12 L25.82,288.53 L25.5,287.87 L26.01,287.35 L26.3,286.89 L26.62,286.24 L26.91,285.78 L27.0,285.19 L26.56,285.32 L26.27,285.77 L26.62,286.24" fill="none" stroke="black" stroke-width="0.6" /><path d="M26.84,286.17 L26.4,286.3 L26.11,286.76 L25.64,287.08" fill="none" stroke="black" stroke-width="0.6" /><path d="M25.45,286.95 L25.57,287.48 L25.28,287.94 L25.41,288.46 L24.8,288.26" fill="none" stroke="black" stroke-width="0.6" /><path d="M25.03,288.2 L24.36,288.39 L24.74,288.65 L24.86,289.18 L25.53,288.99 L25.28,289.25" fill="none" stroke="black" stroke-width="0.6" /><path d="M25.09,289.12 L24.8,289.57 L24.51,290.03 L24.63,290.56 L25.15,290.03 L25.43,289.58 L25.15,290.03 L25.08,290.43 L25.21,290.95 L24.73,291.28" fill="none" stroke="black" stroke-width="0.6" /><path d="M24.54,291.15 L24.22,290.49 L24.32,289.9 L24.42,289.31 L24.35,289.7 L24.1,289.96" fill="none" stroke="black" stroke-width="0.6" /><path d="M23.91,289.83 L24.06,290.16" fill="none" stroke="black" stroke-width="0.6" /><path d="M24.29,290.09 L23.84,290.22 L23.39,290.35 L22.91,290.67" fill="none" stroke="black" stroke-width="0.6" /><path d="M22.72,290.54 L22.62,291.13 L23.04,291.2" fill="none" stroke="black" stroke-width="0.6" /><path d="M22.85,291.06 L23.33,290.74 L23.45,291.27 L23.39,291.66 L23.51,292.19 L23.61,291.6 L23.71,291.01 L23.81,290.42 L24.38,290.82 L24.5,291.34 L24.63,291.87 L24.31,291.21 L23.87,291.34 L24.02,291.67" fill="none" stroke="black" stroke-width="0.6" /><path d="M24.25,291.6 L24.18,292.0 L23.89,292.45 L24.24,292.91" fill="none" stroke="black" stroke-width="0.6" /><path d="M24.47,292.85 L24.88,292.92" fill="none" stroke="black" stroke-width="0.6" /><path d="M24.69,292.79 L24.82,293.31 L25.13,293.97 L25.04,293.25 L25.14,292.66 L25.52,292.92 L25.68,293.25" fill="none" stroke="black" stroke-width="0.6" /><path d="M25.9,293.19 L26.22,292.53 L26.35,293.06 L26.45,292.47 L26.54,291.88 L26.96,291.95" fill="none" stroke="black" stroke-width="0.6" /><path d="M26.77,291.82 L26.89,292.34 L26.6,292.8 L26.54,293.19 L26.25,293.65 L25.61,293.65 L25.52,294.24 L26.22,293.85 L26.12,294.44 L26.06,294.83 L26.41,295.29" fill="none" stroke="black" stroke-width="0.6" /><path d="M26.64,295.23 L26.96,294.57 L27.4,294.44 L28.07,294.25 L27.82,294.51" fill="none" stroke="black" stroke-width="0.6" /><path d="M27.63,294.38 L27.56,294.77 L27.28,295.23 L26.83,295.36 L26.99,295.69" fill="none" stroke="black" stroke-width="0.6" /><path d="M27.21,295.62 L27.15,296.01 L27.5,296.47" fill="none" stroke="black" stroke-width="0.6" /><path d="M27.72,296.41 L27.44,296.87 L27.79,297.33" fill="none" stroke="black" stroke-width="0.6" /><path d="M28.02,297.26 L27.76,297.52" fill="none" stroke="black" stroke-width="0.6" /><path d="M27.57,297.39 L28.37,297.72 L28.11,297.98" fill="none" stroke="black" stroke-width="0.6" /><path d="M27.92,297.85 L28.05,298.38 L28.18,298.9 L28.85,298.71 L29.17,298.05 L29.11,298.45 L29.02,299.04 L28.95,299.43 L28.86,300.02 L29.15,299.56 L29.47,298.91 L29.37,298.18 L29.07,297.33 L29.58,296.81 L29.68,296.22 L29.23,296.35 L29.17,296.74 L28.69,297.07" fill="none" stroke="black" stroke-width="0.6" /><path d="M28.5,296.94 L28.85,297.4" fill="none" stroke="black" stroke-width="0.6" /><path d="M29.07,297.33 L29.01,297.73 L28.5,298.25 L28.4,297.53 L28.53,296.74 L29.04,296.22 L29.36,295.56 L29.64,295.1 L29.19,295.23 L28.91,295.69 L28.81,296.28 L28.14,296.48 L28.05,297.07 L27.72,296.41 L28.2,296.08 L28.33,295.3 L27.88,295.43 L28.01,295.95 L27.44,295.56 L27.98,294.84 L28.59,295.04 L28.68,294.45 L29.19,293.92 L29.06,293.4 L29.16,292.81 L28.68,293.14" fill="none" stroke="black" stroke-width="0.6" /><path d="M28.49,293.0 L28.65,293.33" fill="none" stroke="black" stroke-width="0.6" /><path d="M28.87,293.27 L28.81,293.66 L28.52,294.12 L28.46,294.51 L28.55,293.92 L28.23,293.27 L28.17,293.66 L27.91,293.92" fill="none" stroke="black" stroke-width="0.6" /><path d="M27.72,293.79 L27.24,294.11" fill="none" stroke="black" stroke-width="0.6" /><path d="M27.05,293.98 L26.99,294.38 L26.7,294.83 L26.38,294.18 L26.7,293.52 L27.21,293.0 L27.12,292.28 L27.43,291.62 L27.56,292.15 L27.27,292.61 L27.4,293.13 L26.92,293.46" fill="none" stroke="black" stroke-width="0.6" /><path d="M26.73,293.32 L26.86,293.85 L27.5,293.85" fill="none" stroke="black" stroke-width="0.6" /><path d="M27.31,293.72 L27.4,293.13 L27.72,292.48 L27.82,291.89 L28.14,291.23 L28.42,290.77 L28.71,290.31 L29.06,290.77" fill="none" stroke="black" stroke-width="0.6" /><path d="M29.28,290.71 L28.99,291.17 L28.74,291.43" fill="none" stroke="black" stroke-width="0.6" /><path d="M28.55,291.3 L28.26,291.76 L28.01,292.02" fill="none" stroke="black" stroke-width="0.6" /><path d="M27.82,291.89 L27.94,292.41 L27.66,292.87 L27.59,293.26 L28.1,292.74 L28.42,292.09 L28.36,292.48 L28.71,292.94" fill="none" stroke="black" stroke-width="0.6" /><path d="M28.93,292.87 L28.84,292.15 L29.15,291.5 L29.25,290.91 L29.92,290.71 L29.66,290.97" fill="none" stroke="black" stroke-width="0.6" /><path d="M29.47,290.84 L29.63,291.17" fill="none" stroke="black" stroke-width="0.6" /><path d="M29.85,291.1 L30.3,290.97 L30.81,290.45 L30.71,289.72 L30.99,289.26 L30.52,289.59" fill="none" stroke="black" stroke-width="0.6" /><path d="M30.33,289.46 L29.85,289.79" fill="none" stroke="black" stroke-width="0.6" /><path d="M29.66,289.66 L30.04,289.92 L30.65,290.12 L30.36,290.58 L29.82,289.99 L29.76,290.38 L29.12,290.38 L29.22,289.79 L29.12,289.07 L29.41,288.61 L29.88,288.28 L30.39,287.75 L30.32,288.15 L29.85,288.48" fill="none" stroke="black" stroke-width="0.6" /><path d="M29.66,288.35 L29.82,288.67" fill="none" stroke="black" stroke-width="0.6" /><path d="M30.04,288.61 L29.6,288.74 L29.53,289.13 L29.25,289.59 L29.41,289.92" fill="none" stroke="black" stroke-width="0.6" /><path d="M29.63,289.86 L29.15,290.18" fill="none" stroke="black" stroke-width="0.6" /><path d="M28.96,290.05 L29.57,290.25 L29.66,289.66 L29.98,289.0 L30.26,288.54 L30.2,288.94 L29.72,289.27" fill="none" stroke="black" stroke-width="0.6" /><path d="M29.53,289.13 L30.14,289.33 L30.42,288.87 L30.74,288.21 L30.86,288.74 L31.18,288.08 L30.77,288.02" fill="none" stroke="black" stroke-width="0.6" /><path d="M30.99,287.95 L30.86,287.43 L31.24,287.69 L31.59,288.15" fill="none" stroke="black" stroke-width="0.6" /><path d="M31.81,288.08 L31.56,288.34" fill="none" stroke="black" stroke-width="0.6" /><path d="M31.37,288.21 L31.53,288.54" fill="none" stroke="black" stroke-width="0.6" /><path d="M31.75,288.48 L31.47,288.94 L31.4,289.33 L31.15,289.59" fill="none" stroke="black" stroke-width="0.6" /><path d="M30.96,289.46 L31.31,289.92" fill="none" stroke="black" stroke-width="0.6" /><path d="M31.53,289.86 L31.09,289.99 L31.03,290.38 L30.93,290.97 L31.22,290.51 L31.31,289.92 L31.4,289.33 L31.91,288.8 L31.81,288.08 L31.94,287.29 L31.52,287.23" fill="none" stroke="black" stroke-width="0.6" /><path d="M31.75,287.16 L31.65,286.44 L31.33,285.78 L31.43,285.19 L31.93,284.66 L32.06,285.19 L31.99,285.58 L31.93,285.98 L32.25,285.32 L32.15,284.6 L31.77,284.34 L31.49,284.8 L31.02,285.13" fill="none" stroke="black" stroke-width="0.6" /><path d="M30.83,284.99 L31.17,285.45" fill="none" stroke="black" stroke-width="0.6" /><path d="M31.39,285.39 L31.11,285.85 L31.24,286.37 L31.18,286.77 L30.64,286.18 L30.73,285.59 L31.05,284.93 L31.36,284.27 L31.83,283.94 L31.93,283.35 L32.02,282.76 L31.93,282.03 L31.83,281.31 L32.3,280.98 L32.8,280.45 L32.89,279.86 L33.4,279.33 L33.49,278.74 L33.14,278.28 L33.61,277.94 L33.33,278.41 L33.71,278.67 L34.05,279.13" fill="none" stroke="black" stroke-width="0.6" /><path d="M34.27,279.06 L33.83,279.19 L33.58,279.46" fill="none" stroke="black" stroke-width="0.6" /><path d="M33.4,279.33 L33.33,279.72 L33.27,280.12 L33.21,280.51 L33.34,281.04 L32.9,281.17 L32.8,280.45 L32.74,280.85 L32.46,281.31 L32.4,281.7 L32.3,282.29 L32.24,282.69 L32.4,283.02" fill="none" stroke="black" stroke-width="0.6" /><path d="M32.62,282.95 L32.34,283.41 L32.27,283.81 L32.97,283.41 L32.87,284.0 L33.34,283.67 L33.63,283.21 L33.03,283.02" fill="none" stroke="black" stroke-width="0.6" /><path d="M33.25,282.95 L33.34,282.36 L33.24,281.63 L32.77,281.96" fill="none" stroke="black" stroke-width="0.6" /><path d="M32.58,281.83 L33.05,281.5 L33.65,281.7 L33.37,282.16 L33.5,282.68 L34.13,282.68" fill="none" stroke="black" stroke-width="0.6" /><path d="M33.94,282.55 L33.88,282.95 L33.81,283.34 L34.16,283.8" fill="none" stroke="black" stroke-width="0.6" /><path d="M34.38,283.73 L33.91,284.06" fill="none" stroke="black" stroke-width="0.6" /><path d="M33.72,283.93 L33.85,284.46 L33.75,283.74 L33.28,284.07" fill="none" stroke="black" stroke-width="0.6" /><path d="M33.09,283.94 L33.47,284.2 L33.19,284.66 L32.59,284.46" fill="none" stroke="black" stroke-width="0.6" /><path d="M32.81,284.4 L32.72,284.99 L32.44,285.45 L32.78,285.91" fill="none" stroke="black" stroke-width="0.6" /><path d="M33.01,285.84 L32.91,285.12 L33.07,285.45" fill="none" stroke="black" stroke-width="0.6" /><path d="M33.29,285.38 L33.23,285.78 L33.16,286.17 L32.75,286.11" fill="none" stroke="black" stroke-width="0.6" /><path d="M32.97,286.04 L32.5,286.37" fill="none" stroke="black" stroke-width="0.6" /><path d="M32.31,286.24 L32.25,286.63 L31.97,287.1 L32.1,287.62 L32.0,288.21 L32.38,288.47 L32.29,287.75 L32.6,287.09 L33.07,286.76 L33.01,287.16 L32.95,287.55 L32.67,288.01 L32.83,288.34" fill="none" stroke="black" stroke-width="0.6" /><path d="M33.05,288.27 L32.57,288.6" fill="none" stroke="black" stroke-width="0.6" /><path d="M32.38,288.47 L32.73,288.93" fill="none" stroke="black" stroke-width="0.6" /><path d="M32.96,288.87 L32.7,289.13" fill="none" stroke="black" stroke-width="0.6" /><path d="M32.51,289.0 L32.99,288.67 L33.34,289.13" fill="none" stroke="black" stroke-width="0.6" /><path d="M33.56,289.06 L33.31,289.32" fill="none" stroke="black" stroke-width="0.6" /><path d="M33.12,289.19 L32.67,289.33 L32.61,289.72 L32.14,290.05" fill="none" stroke="black" stroke-width="0.6" /><path d="M31.95,289.92 L32.33,290.18 L32.99,289.98 L33.5,289.46 L33.97,289.12 L34.25,288.66 L33.62,288.67 L33.56,289.06 L33.46,288.34 L34.12,288.14 L34.21,287.55 L34.6,287.81 L34.53,288.2 L34.47,288.6 L34.19,289.06 L34.86,288.86 L34.76,288.13 L35.23,287.8 L35.32,287.21 L35.22,286.49 L35.6,286.75 L35.54,287.14 L35.67,287.67 L35.42,287.93" fill="none" stroke="black" stroke-width="0.6" /><path d="M35.23,287.8 L34.95,288.26 L35.3,288.72" fill="none" stroke="black" stroke-width="0.6" /><path d="M35.52,288.65 L34.86,288.86 L34.6,289.12" fill="none" stroke="black" stroke-width="0.6" /><path d="M34.41,288.99 L34.35,289.38 L34.29,289.78 L34.93,289.78" fill="none" stroke="black" stroke-width="0.6" /><path d="M34.73,289.65 L35.12,289.91 L34.67,290.04 L34.61,290.43 L34.2,290.37" fill="none" stroke="black" stroke-width="0.6" /><path d="M34.42,290.3 L33.98,290.44 L33.92,290.83 L34.58,290.63 L34.3,291.09 L34.65,291.55" fill="none" stroke="black" stroke-width="0.6" /><path d="M34.88,291.48 L34.4,291.81" fill="none" stroke="black" stroke-width="0.6" /><path d="M34.21,291.68 L34.15,292.08 L34.09,292.47 L34.22,293.0 L33.78,293.13 L33.49,293.59 L33.85,294.05" fill="none" stroke="black" stroke-width="0.6" /><path d="M34.07,293.98 L33.6,294.31" fill="none" stroke="black" stroke-width="0.6" /><path d="M33.4,294.18 L33.34,294.58 L33.09,294.84" fill="none" stroke="black" stroke-width="0.6" /><path d="M32.9,294.71 L32.61,295.17 L32.55,295.56 L32.68,296.09 L32.62,296.48 L32.56,296.87 L32.28,297.33 L32.22,297.73 L31.93,298.18 L32.29,298.64" fill="none" stroke="black" stroke-width="0.6" /><path d="M32.51,298.58 L32.26,298.84" fill="none" stroke="black" stroke-width="0.6" /><path d="M32.06,298.71 L32.38,298.05 L32.47,297.46 L32.98,296.94 L33.07,296.35 L32.74,295.69 L33.25,295.17 L33.53,294.71 L34.01,294.38 L34.1,293.78 L34.19,293.19 L34.47,292.73 L34.37,292.01 L34.85,291.68 L35.2,292.14" fill="none" stroke="black" stroke-width="0.6" /><path d="M35.42,292.07 L34.98,292.2 L34.7,292.67 L34.64,293.06 L34.35,293.52 L34.29,293.91 L34.23,294.31 L34.17,294.7 L34.65,294.37 L34.55,293.65 L35.02,293.32 L34.74,293.78 L35.09,294.24" fill="none" stroke="black" stroke-width="0.6" /><path d="M35.31,294.17 L34.65,294.37 L34.59,294.77 L34.34,295.03" fill="none" stroke="black" stroke-width="0.6" /><path d="M34.14,294.9 L34.3,295.23" fill="none" stroke="black" stroke-width="0.6" /><path d="M34.53,295.16 L34.24,295.62 L34.18,296.01 L33.93,296.28" fill="none" stroke="black" stroke-width="0.6" /><path d="M33.74,296.15 L33.9,296.47" fill="none" stroke="black" stroke-width="0.6" /><path d="M34.12,296.41 L33.84,296.87 L33.78,297.26 L33.94,297.59" fill="none" stroke="black" stroke-width="0.6" /><path d="M34.17,297.52 L34.11,297.92 L33.82,298.38 L33.76,298.77 L34.4,298.77" fill="none" stroke="black" stroke-width="0.6" /><path d="M34.21,298.64 L34.6,298.9 L35.24,298.89" fill="none" stroke="black" stroke-width="0.6" /><path d="M35.05,298.76 L34.99,299.16 L34.7,299.62 L34.42,300.08 L34.9,299.75 L35.18,299.29 L35.27,298.7 L34.91,298.24 L35.22,297.58 L34.58,297.59 L34.97,297.85 L34.49,298.18" fill="none" stroke="black" stroke-width="0.6" /><path d="M34.3,298.05 L34.66,298.5" fill="none" stroke="black" stroke-width="0.6" /><path d="M34.88,298.44 L34.27,298.24" fill="none" stroke="black" stroke-width="0.6" /><path d="M34.49,298.18 L34.39,297.46 L34.7,296.8 L35.15,296.66 L35.31,296.99" fill="none" stroke="black" stroke-width="0.6" /><path d="M35.54,296.92 L35.7,297.25" fill="none" stroke="black" stroke-width="0.6" /><path d="M35.92,297.18 L35.83,297.77 L35.36,298.11" fill="none" stroke="black" stroke-width="0.6" /><path d="M35.16,297.98 L35.77,298.17 L35.72,298.56 L35.66,298.96 L35.4,299.22" fill="none" stroke="black" stroke-width="0.6" /><path d="M35.21,299.09 L35.15,299.48 L35.09,299.88 L34.81,300.34 L34.55,300.6" fill="none" stroke="black" stroke-width="0.6" /><path d="M34.36,300.47 L34.72,300.93" fill="none" stroke="black" stroke-width="0.6" /><path d="M34.94,300.86 L34.46,301.19" fill="none" stroke="black" stroke-width="0.6" /><path d="M34.27,301.06 L34.66,301.32 L34.82,301.65" fill="none" stroke="black" stroke-width="0.6" /><path d="M35.05,301.58 L34.57,301.91" fill="none" stroke="black" stroke-width="0.6" /><path d="M34.37,301.78 L34.51,302.3 L34.03,302.63" fill="none" stroke="black" stroke-width="0.6" /><path d="M33.84,302.5 L33.97,303.03 L33.88,303.61 L33.79,304.2 L33.88,303.61 L33.55,302.96 L33.64,302.37 L34.15,301.85 L34.46,301.19 L34.18,301.65 L33.82,301.19 L34.14,300.54 L34.03,299.82 L34.54,299.29 L33.9,299.29 L33.61,299.75 L33.51,299.03 L33.6,298.44 L33.91,297.79 L33.47,297.92 L33.18,298.38 L33.12,298.77 L32.8,298.12 L33.08,297.66 L33.59,297.13 L33.68,296.54 L33.77,295.95 L34.27,295.42 L34.14,294.9 L33.7,295.03 L33.83,295.56 L33.35,295.89" fill="none" stroke="black" stroke-width="0.6" /><path d="M33.16,295.76 L33.1,296.15 L33.23,296.67 L33.17,297.07 L32.89,297.53 L32.83,297.92 L32.54,298.38 L32.9,298.84" fill="none" stroke="black" stroke-width="0.6" /><path d="M33.12,298.77 L33.48,299.23" fill="none" stroke="black" stroke-width="0.6" /><path d="M33.7,299.16 L33.26,299.3 L33.0,299.56" fill="none" stroke="black" stroke-width="0.6" /><path d="M32.81,299.43 L32.75,299.82 L32.84,299.23 L32.23,299.04" fill="none" stroke="black" stroke-width="0.6" /><path d="M32.45,298.97 L32.17,299.43 L32.1,299.82 L32.2,299.23 L31.84,298.77 L31.74,298.05 L32.05,297.4 L32.34,296.94 L32.43,296.35 L32.52,295.76 L32.42,295.04 L32.73,294.38 L32.83,293.79 L33.18,294.25" fill="none" stroke="black" stroke-width="0.6" /><path d="M33.4,294.18 L33.52,293.39 L33.84,292.74 L33.93,292.14 L33.55,291.88 L34.21,291.68 L33.83,291.42 L33.48,290.97 L33.98,290.44 L33.66,289.78 L34.32,289.58 L33.69,289.59 L33.44,289.85" fill="none" stroke="black" stroke-width="0.6" /><path d="M33.25,289.72 L33.38,290.24 L32.93,290.38 L32.87,290.77 L33.38,290.24 L33.09,290.7 L33.25,291.03" fill="none" stroke="black" stroke-width="0.6" /><path d="M33.48,290.97 L33.19,291.43 L32.91,291.89 L33.51,292.08 L33.42,292.67 L33.14,293.13 L33.04,292.41 L32.98,292.81 L32.6,292.54 L32.69,291.95 L33.19,291.43 L32.84,290.97 L32.56,291.43 L31.95,291.23" fill="none" stroke="black" stroke-width="0.6" /><path d="M32.17,291.17 L32.65,290.84 L32.3,290.38 L32.04,290.64" fill="none" stroke="black" stroke-width="0.6" /><path d="M31.85,290.51 L32.01,290.84" fill="none" stroke="black" stroke-width="0.6" /><path d="M32.24,290.77 L31.6,290.77 L31.92,290.12 L32.01,289.53 L32.48,289.2 L31.91,288.8 L31.85,289.2 L31.79,289.59 L31.72,289.99 L31.66,290.38 L31.38,290.84 L31.09,291.3 L31.45,291.76" fill="none" stroke="black" stroke-width="0.6" /><path d="M31.67,291.69 L31.57,290.97 L31.92,291.43" fill="none" stroke="black" stroke-width="0.6" /><path d="M32.14,291.36 L31.67,291.69" fill="none" stroke="black" stroke-width="0.6" /><path d="M31.48,291.56 L31.83,292.02" fill="none" stroke="black" stroke-width="0.6" /><path d="M32.05,291.95 L32.21,292.28" fill="none" stroke="black" stroke-width="0.6" /><path d="M32.43,292.22 L32.15,292.68 L32.5,293.13" fill="none" stroke="black" stroke-width="0.6" /><path d="M32.73,293.07 L32.31,293.0" fill="none" stroke="black" stroke-width="0.6" /><path d="M32.53,292.94 L32.06,293.27" fill="none" stroke="black" stroke-width="0.6" /><path d="M31.87,293.14 L31.96,292.55 L31.71,292.81" fill="none" stroke="black" stroke-width="0.6" /><path d="M31.51,292.68 L31.87,293.14" fill="none" stroke="black" stroke-width="0.6" /><path d="M32.09,293.07 L31.8,293.53 L31.45,293.07 L31.17,293.53 L31.07,294.12 L31.01,294.51 L30.92,295.11 L30.86,295.5 L31.14,295.04 L31.24,294.45 L31.36,293.66 L31.71,294.12" fill="none" stroke="black" stroke-width="0.6" /><path d="M31.94,294.05 L31.65,294.51 L31.56,295.1 L31.27,295.56 L30.8,295.89" fill="none" stroke="black" stroke-width="0.6" /><path d="M30.6,295.76 L31.21,295.96 L31.75,295.24 L31.84,294.64 L31.94,294.05 L32.25,293.4 L32.89,293.4" fill="none" stroke="black" stroke-width="0.6" /><path d="M32.7,293.27 L32.44,293.53" fill="none" stroke="black" stroke-width="0.6" /><path d="M32.25,293.4 L32.41,293.73" fill="none" stroke="black" stroke-width="0.6" /><path d="M32.63,293.66 L32.35,294.12 L32.07,294.58 L32.2,295.1 L32.14,295.5 L31.47,295.69 L31.18,296.15 L30.7,296.48" fill="none" stroke="black" stroke-width="0.6" /><path d="M30.51,296.35 L31.09,296.74 L30.61,297.07" fill="none" stroke="black" stroke-width="0.6" /><path d="M30.42,296.94 L30.73,296.29 L30.6,295.76 L30.5,295.04 L30.41,294.32 L30.72,293.66 L30.85,292.88 L31.35,292.35 L31.25,291.63 L31.19,292.02 L31.13,292.42 L30.81,291.76 L30.56,292.02" fill="none" stroke="black" stroke-width="0.6" /><path d="M30.36,291.89 L30.72,292.35" fill="none" stroke="black" stroke-width="0.6" /><path d="M30.94,292.28 L30.49,292.42 L30.4,293.01 L30.53,293.53 L30.18,293.07 L30.08,292.35 L30.4,291.69 L29.95,291.83 L29.67,292.28 L29.54,291.76 L29.28,292.02" fill="none" stroke="black" stroke-width="0.6" /><path d="M29.09,291.89 L29.44,292.35" fill="none" stroke="black" stroke-width="0.6" /><path d="M29.67,292.28 L29.22,292.41 L29.63,292.48" fill="none" stroke="black" stroke-width="0.6" /><path d="M29.44,292.35 L29.83,292.61 L29.95,293.14 L29.89,293.53 L29.57,292.87 L29.09,293.2" fill="none" stroke="black" stroke-width="0.6" /><path d="M28.9,293.07 L29.51,293.27 L29.45,293.66 L29.16,294.12 L28.87,294.58 L28.81,294.97 L28.33,295.3" fill="none" stroke="black" stroke-width="0.6" /><path d="M28.14,295.17 L28.52,295.43 L28.43,296.02 L28.94,295.5 L29.26,294.84 L29.57,294.19 L30.05,293.86 L29.99,294.25 L29.7,294.71 L30.37,294.51 L30.28,295.11 L29.83,295.24 L29.55,295.69 L29.9,296.15" fill="none" stroke="black" stroke-width="0.6" /><path d="M30.13,296.09 L29.87,296.35" fill="none" stroke="black" stroke-width="0.6" /><path d="M29.68,296.22 L29.81,296.74 L29.33,297.07" fill="none" stroke="black" stroke-width="0.6" /><path d="M29.14,296.94 L29.49,297.4" fill="none" stroke="black" stroke-width="0.6" /><path d="M29.71,297.33 L30.03,296.68 L29.93,295.96 L30.03,295.37 L30.19,295.7" fill="none" stroke="black" stroke-width="0.6" /><path d="M30.41,295.63 L30.54,296.15 L30.06,296.48" fill="none" stroke="black" stroke-width="0.6" /><path d="M29.87,296.35 L30.03,296.68" fill="none" stroke="black" stroke-width="0.6" /><path d="M30.26,296.61 L30.42,296.94" fill="none" stroke="black" stroke-width="0.6" /><path d="M30.64,296.88 L30.36,297.33 L29.91,297.46 L29.62,297.92 L30.29,297.73 L31.0,297.33 L31.31,296.68 L31.63,296.02 L32.01,296.28 L31.95,296.68 L31.89,297.07 L31.64,297.33" fill="none" stroke="black" stroke-width="0.6" /><path d="M31.44,297.2 L31.61,297.53" fill="none" stroke="black" stroke-width="0.6" /><path d="M31.83,297.46 L31.54,297.92 L31.68,298.45 L31.62,298.84 L31.55,299.23 L31.69,299.76 L31.63,300.15 L32.1,299.82 L32.27,300.15" fill="none" stroke="black" stroke-width="0.6" /><path d="M32.49,300.08 L32.01,300.41" fill="none" stroke="black" stroke-width="0.6" /><path d="M31.82,300.28 L32.18,300.74" fill="none" stroke="black" stroke-width="0.6" /><path d="M32.4,300.67 L31.73,300.87 L31.67,301.26 L31.61,301.66 L31.5,300.94 L31.6,300.35 L31.46,299.82 L30.98,300.15" fill="none" stroke="black" stroke-width="0.6" /><path d="M30.79,300.02 L31.18,300.28 L30.92,300.54" fill="none" stroke="black" stroke-width="0.6" /><path d="M30.73,300.41 L30.86,300.94 L30.8,301.33 L30.51,301.79 L30.38,301.26 L30.7,300.61 L30.79,300.02 L30.88,299.43 L30.4,299.76" fill="none" stroke="black" stroke-width="0.6" /><path d="M30.21,299.63 L30.3,299.04 L30.78,298.71 L30.91,299.23 L31.42,298.71 L31.29,298.19 L31.61,297.53 L31.92,296.87 L31.6,296.22 L31.54,296.61 L31.47,297.01 L31.22,297.27" fill="none" stroke="black" stroke-width="0.6" /><path d="M31.03,297.14 L30.97,297.53 L31.1,298.05 L30.81,298.51 L30.36,298.64 L30.87,298.12 L30.97,297.53 L30.52,297.66 L30.46,298.05 L29.98,298.38" fill="none" stroke="black" stroke-width="0.6" /><path d="M29.78,298.25 L29.91,298.77 L29.82,299.36 L29.53,299.82 L29.47,300.21 L29.18,300.67 L29.7,300.15 L29.63,300.54 L29.15,300.87" fill="none" stroke="black" stroke-width="0.6" /><path d="M28.96,300.74 L29.57,300.94 L29.7,301.46 L30.02,300.81 L30.12,300.22 L30.53,300.28" fill="none" stroke="black" stroke-width="0.6" /><path d="M30.34,300.15 L30.28,300.54 L29.99,301.0 L29.93,301.39 L29.87,301.79 L30.26,302.05 L29.97,302.51 L30.68,302.12 L30.39,302.57 L30.33,302.97 L30.61,302.51 L31.09,302.18 L30.77,301.53 L31.08,300.87 L31.22,301.39 L31.16,301.79 L31.32,302.11" fill="none" stroke="black" stroke-width="0.6" /><path d="M31.54,302.05 L31.06,302.38" fill="none" stroke="black" stroke-width="0.6" /><path d="M30.87,302.25 L31.0,302.77 L30.75,303.03" fill="none" stroke="black" stroke-width="0.6" /><path d="M30.55,302.9 L30.72,303.23" fill="none" stroke="black" stroke-width="0.6" /><path d="M30.94,303.16 L31.45,302.64 L31.74,302.18 L32.25,301.66 L32.15,300.94 L32.5,301.39" fill="none" stroke="black" stroke-width="0.6" /><path d="M32.73,301.33 L32.37,300.87 L32.69,300.21 L33.2,299.69 L32.94,299.95" fill="none" stroke="black" stroke-width="0.6" /><path d="M32.75,299.82 L32.91,300.15" fill="none" stroke="black" stroke-width="0.6" /><path d="M33.13,300.08 L33.81,299.88 L33.75,300.28 L33.69,300.67 L33.07,300.47" fill="none" stroke="black" stroke-width="0.6" /><path d="M33.3,300.41 L32.88,300.34" fill="none" stroke="black" stroke-width="0.6" /><path d="M33.1,300.28 L32.66,300.41 L32.82,300.74" fill="none" stroke="black" stroke-width="0.6" /><path d="M33.04,300.67 L32.95,301.26 L32.47,301.59" fill="none" stroke="black" stroke-width="0.6" /><path d="M32.28,301.46 L32.44,301.79" fill="none" stroke="black" stroke-width="0.6" /><path d="M32.67,301.72 L32.8,302.24 L32.94,302.77 L32.46,303.1" fill="none" stroke="black" stroke-width="0.6" /><path d="M32.26,302.96 L32.85,303.36 L32.56,303.82 L32.28,304.27 L32.59,303.62 L32.26,302.96 L32.35,302.38 L31.87,302.7" fill="none" stroke="black" stroke-width="0.6" /><path d="M31.68,302.57 L31.62,302.97 L31.36,303.23" fill="none" stroke="black" stroke-width="0.6" /><path d="M31.17,303.1 L31.11,303.49 L31.5,303.75 L31.81,303.1 L32.17,303.55" fill="none" stroke="black" stroke-width="0.6" /><path d="M32.4,303.49 L32.14,303.75" fill="none" stroke="black" stroke-width="0.6" /><path d="M31.95,303.62 L31.66,304.08 L32.02,304.54" fill="none" stroke="black" stroke-width="0.6" /><path d="M32.25,304.47 L32.64,304.73 L32.8,305.06" fill="none" stroke="black" stroke-width="0.6" /><path d="M33.03,304.99 L32.89,304.47 L32.79,303.75 L33.1,303.09 L33.0,302.37 L33.12,301.59 L33.21,301.0 L33.37,301.33" fill="none" stroke="black" stroke-width="0.6" /><path d="M33.6,301.26 L33.51,301.85 L33.42,302.44 L33.33,303.03 L33.46,303.55 L33.21,303.81" fill="none" stroke="black" stroke-width="0.6" /><path d="M33.01,303.68 L33.15,304.21 L33.31,304.53" fill="none" stroke="black" stroke-width="0.6" /><path d="M33.54,304.47 L33.9,304.92" fill="none" stroke="black" stroke-width="0.6" /><path d="M34.12,304.86 L33.64,305.19" fill="none" stroke="black" stroke-width="0.6" /><path d="M33.45,305.06 L33.16,305.51 L33.55,305.78 L33.87,305.12 L33.99,304.33 L34.27,303.88 L34.95,303.68 L34.86,304.27 L34.57,304.72 L34.74,305.05" fill="none" stroke="black" stroke-width="0.6" /><path d="M34.96,304.98 L34.68,305.44 L34.4,305.9 L34.48,305.31 L34.03,305.45 L33.97,305.84 L34.11,306.36 L34.59,306.03 L34.88,305.57 L35.19,304.92 L34.8,304.66 L35.31,304.13 L36.01,303.73 L36.15,304.26 L35.67,304.59" fill="none" stroke="black" stroke-width="0.6" /><path d="M35.47,304.46 L35.86,304.72 L35.95,304.13 L35.31,304.13 L35.44,304.65 L35.38,305.05 L35.1,305.51 L35.04,305.9 L34.79,306.16" fill="none" stroke="black" stroke-width="0.6" /><path d="M34.59,306.03 L34.73,306.56 L35.01,306.1 L35.18,306.42" fill="none" stroke="black" stroke-width="0.6" /><path d="M35.4,306.36 L35.12,306.82 L35.6,306.49 L36.11,305.96 L36.25,306.48" fill="none" stroke="black" stroke-width="0.6" /></svg>